<svg width="206" height="404" viewBox="0 0 206 404" fill="none" xmlns="http://www.w3.org/2000/svg">
<rect x="0.5" y="0.5" width="205" height="403" rx="4.5" stroke="#9747FF" stroke-dasharray="10 5"/>
<rect x="20.5" y="308.5" width="165" height="27" rx="13.5" stroke="#FA9E79"/>
<circle cx="40" cy="322" r="4" fill="#FA9E79"/>
<circle cx="58" cy="322" r="4" fill="#FA9E79"/>
<circle cx="76" cy="322" r="4" fill="#FA9E79"/>
<circle cx="94" cy="322" r="4" fill="#FA9E79"/>
<circle cx="112" cy="322" r="4" fill="#FA9E79"/>
<circle cx="130" cy="322" r="4" fill="#FA9E79"/>
<circle cx="148" cy="322" r="4" fill="#FF4800"/>
<circle cx="166" cy="322" r="4" fill="#FA9E79"/>
<rect x="20.5" y="356.5" width="165" height="27" rx="13.5" stroke="#FA9E79"/>
<circle cx="40" cy="370" r="4" fill="#FA9E79"/>
<circle cx="58" cy="370" r="4" fill="#FA9E79"/>
<circle cx="76" cy="370" r="4" fill="#FA9E79"/>
<circle cx="94" cy="370" r="4" fill="#FA9E79"/>
<circle cx="112" cy="370" r="4" fill="#FA9E79"/>
<circle cx="130" cy="370" r="4" fill="#FA9E79"/>
<circle cx="148" cy="370" r="4" fill="#FA9E79"/>
<circle cx="166" cy="370" r="4" fill="#FF4800"/>
<rect x="20.5" y="260.5" width="165" height="27" rx="13.5" stroke="#FA9E79"/>
<circle cx="40" cy="274" r="4" fill="#FA9E79"/>
<circle cx="58" cy="274" r="4" fill="#FA9E79"/>
<circle cx="76" cy="274" r="4" fill="#FA9E79"/>
<circle cx="94" cy="274" r="4" fill="#FA9E79"/>
<circle cx="112" cy="274" r="4" fill="#FA9E79"/>
<circle cx="130" cy="274" r="4" fill="#FF4800"/>
<circle cx="148" cy="274" r="4" fill="#FA9E79"/>
<circle cx="166" cy="274" r="4" fill="#FA9E79"/>
<rect x="20.5" y="212.5" width="165" height="27" rx="13.5" stroke="#FA9E79"/>
<circle cx="40" cy="226" r="4" fill="#FA9E79"/>
<circle cx="58" cy="226" r="4" fill="#FA9E79"/>
<circle cx="76" cy="226" r="4" fill="#FA9E79"/>
<circle cx="94" cy="226" r="4" fill="#FA9E79"/>
<circle cx="112" cy="226" r="4" fill="#FF4800"/>
<circle cx="130" cy="226" r="4" fill="#FA9E79"/>
<circle cx="148" cy="226" r="4" fill="#FA9E79"/>
<circle cx="166" cy="226" r="4" fill="#FA9E79"/>
<rect x="20.5" y="164.5" width="165" height="27" rx="13.5" stroke="#FA9E79"/>
<circle cx="40" cy="178" r="4" fill="#FA9E79"/>
<circle cx="58" cy="178" r="4" fill="#FA9E79"/>
<circle cx="76" cy="178" r="4" fill="#FA9E79"/>
<circle cx="94" cy="178" r="4" fill="#FF4800"/>
<circle cx="112" cy="178" r="4" fill="#FA9E79"/>
<circle cx="130" cy="178" r="4" fill="#FA9E79"/>
<circle cx="148" cy="178" r="4" fill="#FA9E79"/>
<circle cx="166" cy="178" r="4" fill="#FA9E79"/>
<rect x="20.5" y="116.5" width="165" height="27" rx="13.5" stroke="#FA9E79"/>
<circle cx="40" cy="130" r="4" fill="#FA9E79"/>
<circle cx="58" cy="130" r="4" fill="#FA9E79"/>
<circle cx="76" cy="130" r="4" fill="#FF4800"/>
<circle cx="94" cy="130" r="4" fill="#FA9E79"/>
<circle cx="112" cy="130" r="4" fill="#FA9E79"/>
<circle cx="130" cy="130" r="4" fill="#FA9E79"/>
<circle cx="148" cy="130" r="4" fill="#FA9E79"/>
<circle cx="166" cy="130" r="4" fill="#FA9E79"/>
<rect x="20.5" y="68.5" width="165" height="27" rx="13.5" stroke="#FA9E79"/>
<circle cx="40" cy="82" r="4" fill="#FA9E79"/>
<circle cx="58" cy="82" r="4" fill="#FF4800"/>
<circle cx="76" cy="82" r="4" fill="#FA9E79"/>
<circle cx="94" cy="82" r="4" fill="#FA9E79"/>
<circle cx="112" cy="82" r="4" fill="#FA9E79"/>
<circle cx="130" cy="82" r="4" fill="#FA9E79"/>
<circle cx="148" cy="82" r="4" fill="#FA9E79"/>
<circle cx="166" cy="82" r="4" fill="#FA9E79"/>
<rect x="20.5" y="20.5" width="165" height="27" rx="13.5" stroke="#FA9E79"/>
<circle cx="40" cy="34" r="4" fill="#FF4800"/>
<circle cx="58" cy="34" r="4" fill="#FA9E79"/>
<circle cx="76" cy="34" r="4" fill="#FA9E79"/>
<circle cx="94" cy="34" r="4" fill="#FA9E79"/>
<circle cx="112" cy="34" r="4" fill="#FA9E79"/>
<circle cx="130" cy="34" r="4" fill="#FA9E79"/>
<circle cx="148" cy="34" r="4" fill="#FA9E79"/>
<circle cx="166" cy="34" r="4" fill="#FA9E79"/>
</svg>
