<svg xmlns="http://www.w3.org/2000/svg" viewBox="0 0 1586.95 1436.24" fill="none">
  <path d="M1010.84 1391.58C967.805 1428.24 910.494 1443.47 854.935 1433.01C799.248 1422.52 743.563 1412.02 687.858 1401.63C599.347 1385.12 510.744 1369.1 422.304 1352.22C367.926 1341.84 331.359 1310.98 307.558 1259.74C269.655 1178.13 226.794 1098.85 186.908 1018.15C132.834 908.737 79.5234 798.95 25.9461 689.295C20.8764 678.919 13.6201 661.506 9.91325 650.569C-11.8081 586.479 1.21908 556.356 58.398 506.193C189.583 391.105 541.865 78.0607 587.014 36.8944C624.535 2.68299 666.992 -8.41694 714.954 6.45701C795.788 31.5247 1090.75 129.122 1157.94 151.109C1195.08 163.262 1223.42 183.728 1243.06 219.394C1312.82 346.109 1529.61 728.228 1564.62 794.521C1599.19 859.994 1595.49 886.804 1540.31 935.845C1449.79 1016.28 1096.5 1318.54 1011.77 1390.78L1010.84 1391.58Z" fill="#FF4800" fill-opacity="0.05"/>
</svg>
