<svg xmlns="http://www.w3.org/2000/svg" viewBox="0 0 1473.62 1359.92" fill="none">
  <path d="M938.65 1317.63C898.691 1352.35 845.472 1366.77 793.881 1356.86C742.171 1346.93 690.463 1336.99 638.735 1327.15C556.546 1311.52 474.27 1296.35 392.145 1280.37C341.651 1270.54 307.695 1241.32 285.594 1192.8C250.398 1115.53 210.597 1040.46 173.56 964.046C123.348 860.45 73.8443 756.496 24.0932 652.668C19.3855 642.843 12.6474 626.356 9.20531 616C-10.9649 555.315 1.13202 526.793 54.2276 479.296C176.044 370.323 503.168 73.9128 545.093 34.934C579.935 2.54042 619.36 -7.96969 663.897 6.1139C738.958 29.8496 1012.85 122.26 1075.25 143.08C1109.74 154.587 1136.05 173.965 1154.28 207.736C1219.07 327.718 1420.37 689.533 1452.88 752.303C1484.99 814.297 1481.55 839.682 1430.31 886.117C1346.26 962.281 1018.2 1248.48 939.519 1316.88L938.65 1317.63Z" fill="#FF4800" fill-opacity="0.05"/>
</svg>
