<svg width="138" height="258" viewBox="0 0 138 258" fill="none" xmlns="http://www.w3.org/2000/svg">
<rect x="0.5" y="0.5" width="137" height="257" rx="4.5" stroke="#9747FF" stroke-dasharray="10 5"/>
<rect x="20.5" y="130.5" width="43" height="43" rx="21.5" fill="url(#paint0_linear_2192_4794)" fill-opacity="0.15"/>
<rect x="20.5" y="130.5" width="43" height="43" rx="21.5" stroke="#FA9E79"/>
<path d="M53.1431 151.182H32.9266L40.0342 144.397C40.3689 144.077 40.3689 143.559 40.0342 143.24C39.6995 142.92 39.1567 142.92 38.822 143.24L30.2519 151.421C30.1725 151.497 30.1097 151.587 30.0661 151.688C30.0262 151.78 30.0081 151.878 30.005 151.976C30.0048 151.985 30 151.992 30 152C30 152.009 30.0048 152.016 30.005 152.024C30.0081 152.122 30.0262 152.22 30.0661 152.313C30.1097 152.413 30.1725 152.504 30.2519 152.579L38.822 160.761C38.9894 160.92 39.2087 161 39.4281 161C39.6475 161 39.8668 160.92 40.0342 160.761C40.3689 160.441 40.3689 159.923 40.0342 159.603L32.9267 152.819H53.1431C53.6162 152.819 54 152.452 54 152C54 151.548 53.6162 151.182 53.1431 151.182Z" fill="#FF4800"/>
<rect x="74.5" y="130.5" width="43" height="43" rx="21.5" fill="url(#paint1_linear_2192_4794)" fill-opacity="0.15"/>
<rect x="74.5" y="130.5" width="43" height="43" rx="21.5" stroke="#FA9E79"/>
<path d="M84.8569 151.182H105.073L97.9658 144.397C97.6311 144.077 97.6311 143.559 97.9658 143.24C98.3005 142.92 98.8433 142.92 99.178 143.24L107.748 151.421C107.827 151.497 107.89 151.587 107.934 151.688C107.974 151.78 107.992 151.878 107.995 151.976C107.995 151.985 108 151.992 108 152C108 152.009 107.995 152.016 107.995 152.024C107.992 152.122 107.974 152.22 107.934 152.313C107.89 152.413 107.827 152.504 107.748 152.579L99.178 160.761C99.0106 160.92 98.7913 161 98.5719 161C98.3525 161 98.1332 160.92 97.9658 160.761C97.6311 160.441 97.6311 159.923 97.9658 159.603L105.073 152.819H84.8569C84.3838 152.819 84 152.452 84 152C84 151.548 84.3838 151.182 84.8569 151.182Z" fill="#FF4800"/>
<rect x="74.5" y="74.5" width="43" height="43" rx="21.5" stroke="#FA9E79"/>
<path d="M84.8569 95.1819H105.073L97.9658 88.3967C97.6311 88.0772 97.6311 87.5591 97.9658 87.2396C98.3005 86.9201 98.8433 86.9201 99.178 87.2396L107.748 95.4211C107.827 95.4967 107.89 95.5874 107.934 95.6879C107.974 95.7802 107.992 95.8781 107.995 95.9764C107.995 95.9848 108 95.9918 108 96.0003C108 96.0087 107.995 96.0157 107.995 96.0241C107.992 96.1224 107.974 96.2203 107.934 96.3126C107.89 96.4131 107.827 96.5038 107.748 96.5794L99.178 104.761C99.0106 104.92 98.7913 105 98.5719 105C98.3525 105 98.1332 104.92 97.9658 104.761C97.6311 104.441 97.6311 103.923 97.9658 103.603L105.073 96.8186H84.8569C84.3838 96.8186 84 96.4522 84 96.0003C84 95.5483 84.3838 95.1819 84.8569 95.1819Z" fill="#FA9E79"/>
<rect x="20.5" y="74.5" width="43" height="43" rx="21.5" stroke="#FA9E79"/>
<path d="M53.1431 95.1819H32.9266L40.0342 88.3967C40.3689 88.0772 40.3689 87.5591 40.0342 87.2396C39.6995 86.9201 39.1567 86.9201 38.822 87.2396L30.2519 95.4211C30.1725 95.4967 30.1097 95.5874 30.0661 95.6879C30.0262 95.7802 30.0081 95.8781 30.005 95.9764C30.0048 95.9848 30 95.9918 30 96.0003C30 96.0087 30.0048 96.0157 30.005 96.0241C30.0081 96.1224 30.0262 96.2203 30.0661 96.3126C30.1097 96.4131 30.1725 96.5038 30.2519 96.5794L38.822 104.761C38.9894 104.92 39.2087 105 39.4281 105C39.6475 105 39.8668 104.92 40.0342 104.761C40.3689 104.441 40.3689 103.923 40.0342 103.603L32.9267 96.8186H53.1431C53.6162 96.8186 54 96.4522 54 96.0003C54 95.5483 53.6162 95.1819 53.1431 95.1819Z" fill="#FF4800"/>
<rect x="74.5" y="20.5" width="43" height="43" rx="21.5" stroke="#FA9E79"/>
<path d="M84.8569 41.1819H105.073L97.9658 34.3967C97.6311 34.0772 97.6311 33.5591 97.9658 33.2396C98.3005 32.9201 98.8433 32.9201 99.178 33.2396L107.748 41.4211C107.827 41.4967 107.89 41.5874 107.934 41.6879C107.974 41.7802 107.992 41.8781 107.995 41.9764C107.995 41.9848 108 41.9918 108 42.0003C108 42.0087 107.995 42.0157 107.995 42.0241C107.992 42.1224 107.974 42.2203 107.934 42.3126C107.89 42.4131 107.827 42.5038 107.748 42.5794L99.178 50.7609C99.0106 50.9203 98.7913 51 98.5719 51C98.3525 51 98.1332 50.9203 97.9658 50.7609C97.6311 50.4414 97.6311 49.9234 97.9658 49.6032L105.073 42.8186H84.8569C84.3838 42.8186 84 42.4522 84 42.0003C84 41.5483 84.3838 41.1819 84.8569 41.1819Z" fill="#FF4800"/>
<rect x="20.5" y="20.5" width="43" height="43" rx="21.5" stroke="#FA9E79"/>
<path d="M53.1431 41.1819H32.9266L40.0342 34.3967C40.3689 34.0772 40.3689 33.5591 40.0342 33.2396C39.6995 32.9201 39.1567 32.9201 38.822 33.2396L30.2519 41.4211C30.1725 41.4967 30.1097 41.5874 30.0661 41.6879C30.0262 41.7802 30.0081 41.8781 30.005 41.9764C30.0048 41.9848 30 41.9918 30 42.0003C30 42.0087 30.0048 42.0157 30.005 42.0241C30.0081 42.1224 30.0262 42.2203 30.0661 42.3126C30.1097 42.4131 30.1725 42.5038 30.2519 42.5794L38.822 50.7609C38.9894 50.9203 39.2087 51 39.4281 51C39.6475 51 39.8668 50.9203 40.0342 50.7609C40.3689 50.4414 40.3689 49.9234 40.0342 49.6032L32.9267 42.8186H53.1431C53.6162 42.8186 54 42.4522 54 42.0003C54 41.5483 53.6162 41.1819 53.1431 41.1819Z" fill="#FA9E79"/>
<rect x="20.5" y="194.5" width="97" height="43" rx="21.5" stroke="#FA9E79"/>
<path d="M47.7358 220.12C45.2878 220.12 43.5118 218.308 43.5118 215.8C43.5118 213.292 45.3958 211.48 47.8678 211.48C48.9118 211.48 49.9198 211.768 50.6518 212.284V213.58C49.9198 212.992 48.9118 212.56 47.8678 212.56C46.0438 212.56 44.6638 213.892 44.6638 215.8C44.6638 217.708 45.9718 219.04 47.7958 219.04C49.0198 219.04 50.2918 218.188 50.4958 216.544H47.6398V215.464H51.6358V216.28C51.6358 218.32 49.9678 220.12 47.7358 220.12ZM55.8687 220.12C53.9367 220.12 52.5567 218.632 52.5567 216.796C52.5567 214.96 53.9367 213.46 55.8687 213.46C57.8007 213.46 59.1807 214.96 59.1807 216.796C59.1807 218.632 57.8007 220.12 55.8687 220.12ZM55.8687 219.112C57.1287 219.112 58.0767 218.068 58.0767 216.796C58.0767 215.524 57.1287 214.468 55.8687 214.468C54.6087 214.468 53.6607 215.524 53.6607 216.796C53.6607 218.068 54.6087 219.112 55.8687 219.112ZM63.6068 220V211.24H64.6868V214.432C65.1548 213.796 65.8748 213.46 66.6788 213.46C68.1548 213.46 68.9828 214.564 68.9828 215.932V220H67.9028V216.196C67.9028 214.984 67.3268 214.48 66.4268 214.48C65.5148 214.48 64.6868 215.212 64.6868 216.292V220H63.6068ZM73.5289 220.12C71.5969 220.12 70.2169 218.632 70.2169 216.796C70.2169 214.96 71.5969 213.46 73.5289 213.46C75.4609 213.46 76.8409 214.96 76.8409 216.796C76.8409 218.632 75.4609 220.12 73.5289 220.12ZM73.5289 219.112C74.7889 219.112 75.7369 218.068 75.7369 216.796C75.7369 215.524 74.7889 214.468 73.5289 214.468C72.2689 214.468 71.3209 215.524 71.3209 216.796C71.3209 218.068 72.2689 219.112 73.5289 219.112ZM78.1497 220V213.58H79.2297V214.432C79.6977 213.772 80.3577 213.46 81.1257 213.46C82.0737 213.46 82.7337 213.904 83.0337 214.636C83.5257 213.844 84.3657 213.46 85.1937 213.46C86.5137 213.46 87.3417 214.348 87.3417 215.812V220H86.2617V216.124C86.2617 215.008 85.7817 214.48 84.9417 214.48C84.0897 214.48 83.2857 215.212 83.2857 216.184V220H82.2057V216.124C82.2057 215.008 81.7137 214.48 80.8737 214.48C80.0217 214.48 79.2297 215.212 79.2297 216.184V220H78.1497ZM92.0722 220.12C90.1402 220.12 88.5802 218.848 88.5802 216.808C88.5802 214.84 89.9962 213.46 91.7242 213.46C93.4162 213.46 94.5562 214.696 94.5562 216.592C94.5562 216.76 94.5442 216.94 94.5202 217.096H89.6962C89.8282 218.284 90.8002 219.112 92.0722 219.112C92.8522 219.112 93.5002 218.872 94.1482 218.548V219.604C93.5842 219.952 92.7922 220.12 92.0722 220.12ZM89.7442 216.184H93.4402C93.4162 215.2 92.6722 214.42 91.7242 214.42C90.7282 214.42 89.9482 215.056 89.7442 216.184Z" fill="#FF4800"/>
<defs>
<linearGradient id="paint0_linear_2192_4794" x1="43.126" y1="130" x2="43.126" y2="174" gradientUnits="userSpaceOnUse">
<stop stop-color="#D6C2D9"/>
<stop offset="0.707446" stop-color="#C7C8CB"/>
<stop offset="1" stop-color="#B9CDBE"/>
</linearGradient>
<linearGradient id="paint1_linear_2192_4794" x1="97.126" y1="130" x2="97.126" y2="174" gradientUnits="userSpaceOnUse">
<stop stop-color="#D6C2D9"/>
<stop offset="0.707446" stop-color="#C7C8CB"/>
<stop offset="1" stop-color="#B9CDBE"/>
</linearGradient>
</defs>
</svg>
