<svg width="138" height="212" viewBox="0 0 138 212" fill="none" xmlns="http://www.w3.org/2000/svg">
<rect x="0.5" y="0.5" width="137" height="211" rx="4.5" stroke="#9747FF" stroke-dasharray="10 5"/>
<rect x="20.5" y="148.5" width="43" height="43" rx="21.5" stroke="#FA9E79"/>
<path d="M53.1431 169.182H32.9266L40.0342 162.397C40.3689 162.077 40.3689 161.559 40.0342 161.24C39.6995 160.92 39.1567 160.92 38.822 161.24L30.2519 169.421C30.1725 169.497 30.1097 169.587 30.0661 169.688C30.0262 169.78 30.0081 169.878 30.005 169.976C30.0048 169.985 30 169.992 30 170C30 170.009 30.0048 170.016 30.005 170.024C30.0081 170.122 30.0262 170.22 30.0661 170.313C30.1097 170.413 30.1725 170.504 30.2519 170.579L38.822 178.761C38.9894 178.92 39.2087 179 39.4281 179C39.6475 179 39.8668 178.92 40.0342 178.761C40.3689 178.441 40.3689 177.923 40.0342 177.603L32.9267 170.819H53.1431C53.6162 170.819 54 170.452 54 170C54 169.548 53.6162 169.182 53.1431 169.182Z" fill="#FF4800"/>
<rect x="74.5" y="148.5" width="43" height="43" rx="21.5" stroke="#FA9E79"/>
<path d="M84.8569 169.182H105.073L97.9658 162.397C97.6311 162.077 97.6311 161.559 97.9658 161.24C98.3005 160.92 98.8433 160.92 99.178 161.24L107.748 169.421C107.827 169.497 107.89 169.587 107.934 169.688C107.974 169.78 107.992 169.878 107.995 169.976C107.995 169.985 108 169.992 108 170C108 170.009 107.995 170.016 107.995 170.024C107.992 170.122 107.974 170.22 107.934 170.313C107.89 170.413 107.827 170.504 107.748 170.579L99.178 178.761C99.0106 178.92 98.7913 179 98.5719 179C98.3525 179 98.1332 178.92 97.9658 178.761C97.6311 178.441 97.6311 177.923 97.9658 177.603L105.073 170.819H84.8569C84.3838 170.819 84 170.452 84 170C84 169.548 84.3838 169.182 84.8569 169.182Z" fill="#FA9E79"/>
<rect x="20.5" y="84.5" width="43" height="43" rx="21.5" stroke="#FA9E79"/>
<path d="M53.1431 105.182H32.9266L40.0342 98.3967C40.3689 98.0772 40.3689 97.5591 40.0342 97.2396C39.6995 96.9201 39.1567 96.9201 38.822 97.2396L30.2519 105.421C30.1725 105.497 30.1097 105.587 30.0661 105.688C30.0262 105.78 30.0081 105.878 30.005 105.976C30.0048 105.985 30 105.992 30 106C30 106.009 30.0048 106.016 30.005 106.024C30.0081 106.122 30.0262 106.22 30.0661 106.313C30.1097 106.413 30.1725 106.504 30.2519 106.579L38.822 114.761C38.9894 114.92 39.2087 115 39.4281 115C39.6475 115 39.8668 114.92 40.0342 114.761C40.3689 114.441 40.3689 113.923 40.0342 113.603L32.9267 106.819H53.1431C53.6162 106.819 54 106.452 54 106C54 105.548 53.6162 105.182 53.1431 105.182Z" fill="#FF4800"/>
<rect x="74.5" y="84.5" width="43" height="43" rx="21.5" stroke="#FA9E79"/>
<path d="M84.8569 105.182H105.073L97.9658 98.3967C97.6311 98.0772 97.6311 97.5591 97.9658 97.2396C98.3005 96.9201 98.8433 96.9201 99.178 97.2396L107.748 105.421C107.827 105.497 107.89 105.587 107.934 105.688C107.974 105.78 107.992 105.878 107.995 105.976C107.995 105.985 108 105.992 108 106C108 106.009 107.995 106.016 107.995 106.024C107.992 106.122 107.974 106.22 107.934 106.313C107.89 106.413 107.827 106.504 107.748 106.579L99.178 114.761C99.0106 114.92 98.7913 115 98.5719 115C98.3525 115 98.1332 114.92 97.9658 114.761C97.6311 114.441 97.6311 113.923 97.9658 113.603L105.073 106.819H84.8569C84.3838 106.819 84 106.452 84 106C84 105.548 84.3838 105.182 84.8569 105.182Z" fill="#FF4800"/>
<rect x="20.5" y="20.5" width="43" height="43" rx="21.5" stroke="#FA9E79"/>
<path d="M53.1431 41.1819H32.9266L40.0342 34.3967C40.3689 34.0772 40.3689 33.5591 40.0342 33.2396C39.6995 32.9201 39.1567 32.9201 38.822 33.2396L30.2519 41.4211C30.1725 41.4967 30.1097 41.5874 30.0661 41.6879C30.0262 41.7802 30.0081 41.8781 30.005 41.9764C30.0048 41.9848 30 41.9918 30 42.0003C30 42.0087 30.0048 42.0157 30.005 42.0241C30.0081 42.1224 30.0262 42.2203 30.0661 42.3126C30.1097 42.4131 30.1725 42.5038 30.2519 42.5794L38.822 50.7609C38.9894 50.9203 39.2087 51 39.4281 51C39.6475 51 39.8668 50.9203 40.0342 50.7609C40.3689 50.4414 40.3689 49.9234 40.0342 49.6032L32.9267 42.8186H53.1431C53.6162 42.8186 54 42.4522 54 42.0003C54 41.5483 53.6162 41.1819 53.1431 41.1819Z" fill="#FA9E79"/>
<rect x="74.5" y="20.5" width="43" height="43" rx="21.5" stroke="#FA9E79"/>
<path d="M84.8569 41.1819H105.073L97.9658 34.3967C97.6311 34.0772 97.6311 33.5591 97.9658 33.2396C98.3005 32.9201 98.8433 32.9201 99.178 33.2396L107.748 41.4211C107.827 41.4967 107.89 41.5874 107.934 41.6879C107.974 41.7802 107.992 41.8781 107.995 41.9764C107.995 41.9848 108 41.9918 108 42.0003C108 42.0087 107.995 42.0157 107.995 42.0241C107.992 42.1224 107.974 42.2203 107.934 42.3126C107.89 42.4131 107.827 42.5038 107.748 42.5794L99.178 50.7609C99.0106 50.9203 98.7913 51 98.5719 51C98.3525 51 98.1332 50.9203 97.9658 50.7609C97.6311 50.4414 97.6311 49.9234 97.9658 49.6032L105.073 42.8186H84.8569C84.3838 42.8186 84 42.4522 84 42.0003C84 41.5483 84.3838 41.1819 84.8569 41.1819Z" fill="#FF4800"/>
</svg>
