<svg width="1480" height="312" viewBox="0 0 1480 312" fill="none" xmlns="http://www.w3.org/2000/svg">
<rect x="0.5" y="0.5" width="1479" height="311" rx="4.5" stroke="#9747FF" stroke-dasharray="10 5"/>
<rect width="1440" height="72" transform="translate(20 120)" fill="#F8F5EE"/>
<path d="M70.0812 154.112H60.5322V143.956H56V168.2H60.5322V158.375H70.0812V168.2H74.612V143.956H70.0812V154.112Z" fill="#FF4800"/>
<path d="M89.118 160.363C89.118 162.384 87.4344 164.024 85.3672 164.024C83.2993 164.024 81.6199 162.38 81.6199 160.363V149.98H77.3257V160.363C77.3257 164.695 80.9337 168.22 85.3672 168.22C89.8007 168.22 93.408 164.695 93.408 160.363V149.98H89.118V160.363Z" fill="#FF4800"/>
<path d="M120.97 151.054V151.05C120.97 148.922 122.412 148.247 123.989 148.247C125.26 148.247 126.944 149.193 128.043 150.343L130.858 147.101C129.453 145.246 126.6 143.959 124.267 143.959C119.596 143.959 116.23 146.627 116.23 151.054C116.23 159.262 126.498 156.658 126.498 161.253C126.498 162.671 125.093 163.92 123.479 163.92C120.938 163.92 120.111 162.703 118.947 161.421L115.821 164.595C117.815 166.994 120.287 168.208 123.237 168.208C127.667 168.208 131.238 165.505 131.238 161.285C131.238 152.168 120.97 155.006 120.97 151.054Z" fill="#FF4800"/>
<path d="M184.488 164.324V164.328C181.947 164.328 181.228 163.254 181.228 161.609V154.332H185.175V150.643H181.228V145.776L176.868 147.689V162.516C176.868 166.308 179.544 168.22 183.217 168.22C183.765 168.22 184.525 168.184 184.934 168.085L186 164.26C185.518 164.292 184.971 164.324 184.488 164.324Z" fill="#FF4800"/>
<path d="M105.479 150.104C103.35 150.104 101.862 150.707 100.429 152.084V144.104H96.1216V158.894C96.1216 164.432 100.22 168.22 104.821 168.22C109.936 168.22 114.42 164.359 114.42 159.162C114.42 153.964 110.284 150.104 105.479 150.104ZM105.45 163.985C102.753 163.985 100.567 161.849 100.567 159.214C100.567 156.579 102.753 154.443 105.45 154.443C108.147 154.443 110.333 156.579 110.333 159.214C110.333 161.849 108.147 163.985 105.45 163.985Z" fill="#FF4800"/>
<path d="M152.228 158.942C152.228 153.745 147.746 149.884 142.63 149.884C138.029 149.884 133.931 153.676 133.931 159.209V174H138.237V166.02C139.672 167.398 141.159 168 143.288 168C148.098 168 152.228 164.076 152.228 158.942ZM143.264 163.661C140.567 163.661 138.38 161.525 138.38 158.89C138.38 156.256 140.567 154.12 143.264 154.12C145.961 154.12 148.147 156.256 148.147 158.89C148.147 161.525 145.961 163.661 143.264 163.661Z" fill="#FF4800"/>
<path d="M166.146 149.685V145.453C167.274 144.93 168.066 143.816 168.066 142.519V142.423C168.066 140.635 166.571 139.174 164.74 139.174H164.642C162.811 139.174 161.316 140.635 161.316 142.423V142.519C161.316 143.813 162.109 144.93 163.237 145.453V149.681C161.557 149.936 160.021 150.611 158.754 151.609L146.876 142.583C146.953 142.287 147.01 141.988 147.01 141.669C147.01 139.644 145.335 138 143.264 138C141.192 138 139.508 139.637 139.508 141.66C139.508 143.685 141.184 145.329 143.255 145.329C143.929 145.329 144.554 145.142 145.102 144.838L156.784 153.716C155.791 155.182 155.207 156.938 155.207 158.827C155.207 160.715 155.849 162.635 156.927 164.14L153.372 167.613C153.09 167.529 152.8 167.474 152.49 167.474C150.786 167.474 149.405 168.823 149.405 170.487C149.405 172.152 150.786 173.501 152.49 173.501C154.194 173.501 155.575 172.152 155.575 170.487C155.575 170.188 155.518 169.901 155.432 169.625L158.946 166.192C160.539 167.381 162.529 168.096 164.691 168.096C169.929 168.096 174.175 163.949 174.175 158.831C174.175 154.2 170.689 150.371 166.146 149.685ZM164.687 163.577C162.002 163.577 159.825 161.449 159.825 158.827C159.825 156.204 162.002 154.076 164.687 154.076C167.372 154.076 169.549 156.204 169.549 158.827C169.549 161.449 167.372 163.577 164.687 163.577Z" fill="#FF4800"/>
<circle cx="963" cy="156" r="4" fill="#FF4800"/>
<path d="M976.264 162V150.8H977.768V160.56H983.096V162H976.264ZM988.367 162.16C985.791 162.16 983.951 160.176 983.951 157.728C983.951 155.28 985.791 153.28 988.367 153.28C990.943 153.28 992.783 155.28 992.783 157.728C992.783 160.176 990.943 162.16 988.367 162.16ZM988.367 160.816C990.047 160.816 991.311 159.424 991.311 157.728C991.311 156.032 990.047 154.624 988.367 154.624C986.687 154.624 985.423 156.032 985.423 157.728C985.423 159.424 986.687 160.816 988.367 160.816ZM994.528 162V153.44H995.968V154.768C996.528 153.744 997.568 153.28 998.336 153.28C998.656 153.28 998.944 153.344 999.136 153.424V154.88C998.816 154.752 998.464 154.688 998.128 154.688C996.864 154.688 995.968 155.808 995.968 157.392V162H994.528ZM1004.61 162.16C1002.03 162.16 999.951 160.464 999.951 157.744C999.951 155.12 1001.84 153.28 1004.14 153.28C1006.4 153.28 1007.92 154.928 1007.92 157.456C1007.92 157.68 1007.9 157.92 1007.87 158.128H1001.44C1001.61 159.712 1002.91 160.816 1004.61 160.816C1005.65 160.816 1006.51 160.496 1007.37 160.064V161.472C1006.62 161.936 1005.57 162.16 1004.61 162.16ZM1001.5 156.912H1006.43C1006.4 155.6 1005.41 154.56 1004.14 154.56C1002.81 154.56 1001.77 155.408 1001.5 156.912ZM1009.68 162V153.44H1011.12V154.576C1011.75 153.696 1012.63 153.28 1013.65 153.28C1014.92 153.28 1015.8 153.872 1016.2 154.848C1016.85 153.792 1017.97 153.28 1019.08 153.28C1020.84 153.28 1021.94 154.464 1021.94 156.416V162H1020.5V156.832C1020.5 155.344 1019.86 154.64 1018.74 154.64C1017.6 154.64 1016.53 155.616 1016.53 156.912V162H1015.09V156.832C1015.09 155.344 1014.44 154.64 1013.32 154.64C1012.18 154.64 1011.12 155.616 1011.12 156.912V162H1009.68ZM1031.41 164.384L1036.35 150.8H1037.87L1032.93 164.384H1031.41ZM1047.4 162V153.44H1048.84V162H1047.4ZM1048.12 152.24C1047.55 152.24 1047.08 151.76 1047.08 151.184C1047.08 150.64 1047.55 150.16 1048.12 150.16C1048.68 150.16 1049.16 150.64 1049.16 151.184C1049.16 151.76 1048.68 152.24 1048.12 152.24ZM1051.18 165.52V153.44H1052.62V154.704C1053.18 153.808 1054.3 153.28 1055.54 153.28C1057.82 153.28 1059.76 155.12 1059.76 157.728C1059.76 160.336 1057.82 162.16 1055.54 162.16C1054.3 162.16 1053.18 161.632 1052.62 160.736V165.52H1051.18ZM1055.41 160.816C1057.04 160.816 1058.29 159.44 1058.29 157.712C1058.29 155.984 1057.04 154.624 1055.41 154.624C1053.76 154.624 1052.54 155.984 1052.54 157.712C1052.54 159.44 1053.76 160.816 1055.41 160.816ZM1063.75 162.16C1062.44 162.16 1061.61 161.776 1060.94 161.328V159.792C1061.45 160.192 1062.54 160.848 1063.72 160.848C1064.74 160.848 1065.53 160.384 1065.53 159.648C1065.53 159.04 1065.13 158.656 1064.34 158.448L1063.1 158.128C1061.62 157.744 1060.92 157.008 1060.92 155.76C1060.92 154.176 1062.34 153.28 1063.9 153.28C1064.87 153.28 1065.83 153.616 1066.55 154.032V155.504C1065.72 154.912 1064.79 154.576 1063.94 154.576C1063 154.576 1062.34 155.024 1062.34 155.712C1062.34 156.224 1062.68 156.64 1063.59 156.88L1064.78 157.184C1066.22 157.552 1066.97 158.352 1066.97 159.568C1066.97 161.168 1065.56 162.16 1063.75 162.16ZM1071.71 162.16C1069.74 162.16 1068.67 160.688 1068.67 158.864V153.44H1070.11V158.512C1070.11 160.128 1070.84 160.8 1072.04 160.8C1073.26 160.8 1074.33 159.824 1074.33 158.384V153.44H1075.77V162H1074.33V160.864C1073.71 161.712 1072.78 162.16 1071.71 162.16ZM1078.14 162V153.44H1079.58V154.576C1080.2 153.696 1081.08 153.28 1082.11 153.28C1083.37 153.28 1084.25 153.872 1084.65 154.848C1085.31 153.792 1086.43 153.28 1087.53 153.28C1089.29 153.28 1090.39 154.464 1090.39 156.416V162H1088.95V156.832C1088.95 155.344 1088.31 154.64 1087.19 154.64C1086.06 154.64 1084.99 155.616 1084.99 156.912V162H1083.55V156.832C1083.55 155.344 1082.89 154.64 1081.77 154.64C1080.63 154.64 1079.58 155.616 1079.58 156.912V162H1078.14ZM1099.86 164.384L1104.8 150.8H1106.32L1101.38 164.384H1099.86ZM1119.49 162.16C1117.2 162.16 1115.26 160.32 1115.26 157.712C1115.26 155.104 1117.2 153.28 1119.49 153.28C1120.72 153.28 1121.84 153.808 1122.4 154.704V150.32H1123.84V162H1122.4V160.736C1121.84 161.632 1120.72 162.16 1119.49 162.16ZM1119.62 160.816C1121.26 160.816 1122.48 159.456 1122.48 157.728C1122.48 156 1121.26 154.624 1119.62 154.624C1117.98 154.624 1116.74 156 1116.74 157.728C1116.74 159.456 1117.98 160.816 1119.62 160.816ZM1129.9 162.16C1127.32 162.16 1125.48 160.176 1125.48 157.728C1125.48 155.28 1127.32 153.28 1129.9 153.28C1132.47 153.28 1134.31 155.28 1134.31 157.728C1134.31 160.176 1132.47 162.16 1129.9 162.16ZM1129.9 160.816C1131.58 160.816 1132.84 159.424 1132.84 157.728C1132.84 156.032 1131.58 154.624 1129.9 154.624C1128.22 154.624 1126.95 156.032 1126.95 157.728C1126.95 159.424 1128.22 160.816 1129.9 160.816ZM1138.01 162.16C1136.75 162.16 1136.06 161.248 1136.06 160V150.32H1137.5V159.76C1137.5 160.576 1137.93 160.8 1138.4 160.8C1138.6 160.8 1138.78 160.752 1138.91 160.704V162.048C1138.68 162.112 1138.36 162.16 1138.01 162.16ZM1144.21 162.16C1141.63 162.16 1139.79 160.176 1139.79 157.728C1139.79 155.28 1141.63 153.28 1144.21 153.28C1146.79 153.28 1148.63 155.28 1148.63 157.728C1148.63 160.176 1146.79 162.16 1144.21 162.16ZM1144.21 160.816C1145.89 160.816 1147.15 159.424 1147.15 157.728C1147.15 156.032 1145.89 154.624 1144.21 154.624C1142.53 154.624 1141.27 156.032 1141.27 157.728C1141.27 159.424 1142.53 160.816 1144.21 160.816ZM1150.37 162V153.44H1151.81V154.768C1152.37 153.744 1153.41 153.28 1154.18 153.28C1154.5 153.28 1154.79 153.344 1154.98 153.424V154.88C1154.66 154.752 1154.31 154.688 1153.97 154.688C1152.71 154.688 1151.81 155.808 1151.81 157.392V162H1150.37Z" fill="#042729"/>
<path d="M1208.21 150.556H1187.79C1187.35 150.556 1187 150.208 1187 149.778C1187 149.348 1187.35 149 1187.79 149H1208.21C1208.65 149 1209 149.348 1209 149.778C1209 150.208 1208.65 150.556 1208.21 150.556Z" fill="#FF4800"/>
<path d="M1208.21 163H1187.79C1187.35 163 1187 162.652 1187 162.222C1187 161.793 1187.35 161.445 1187.79 161.445H1208.21C1208.65 161.445 1209 161.793 1209 162.222C1209 162.652 1208.65 163 1208.21 163Z" fill="#FF4800"/>
<path d="M1208.21 156.778H1187.79C1187.35 156.778 1187 156.43 1187 156C1187 155.571 1187.35 155.222 1187.79 155.222H1208.21C1208.65 155.222 1209 155.571 1209 156C1209 156.43 1208.65 156.778 1208.21 156.778Z" fill="#FF4800"/>
<path d="M1219.26 162V150.8H1220.98L1224.82 156.72L1228.66 150.8H1230.37V162H1228.86V153.168L1225.22 158.64H1224.42L1220.77 153.168V162H1219.26ZM1236.84 162.16C1234.27 162.16 1232.19 160.464 1232.19 157.744C1232.19 155.12 1234.07 153.28 1236.38 153.28C1238.63 153.28 1240.15 154.928 1240.15 157.456C1240.15 157.68 1240.14 157.92 1240.11 158.128H1233.67C1233.85 159.712 1235.15 160.816 1236.84 160.816C1237.88 160.816 1238.75 160.496 1239.61 160.064V161.472C1238.86 161.936 1237.8 162.16 1236.84 162.16ZM1233.74 156.912H1238.67C1238.63 155.6 1237.64 154.56 1236.38 154.56C1235.05 154.56 1234.01 155.408 1233.74 156.912ZM1241.92 162V153.44H1243.36V154.576C1243.98 153.728 1244.94 153.28 1246.01 153.28C1247.98 153.28 1249.09 154.752 1249.09 156.576V162H1247.65V156.928C1247.65 155.312 1246.88 154.64 1245.68 154.64C1244.46 154.64 1243.36 155.616 1243.36 157.056V162H1241.92ZM1254.3 162.16C1252.33 162.16 1251.26 160.688 1251.26 158.864V153.44H1252.7V158.512C1252.7 160.128 1253.44 160.8 1254.64 160.8C1255.85 160.8 1256.92 159.824 1256.92 158.384V153.44H1258.36V162H1256.92V160.864C1256.3 161.712 1255.37 162.16 1254.3 162.16Z" fill="#FF4800"/>
<rect x="1290" y="138" width="134" height="36" rx="18" fill="#FF4800"/>
<path d="M1315.4 162V150.8H1316.91V160.56H1322.24V162H1315.4ZM1327.75 162.16C1325.17 162.16 1323.09 160.464 1323.09 157.744C1323.09 155.12 1324.98 153.28 1327.28 153.28C1329.54 153.28 1331.06 154.928 1331.06 157.456C1331.06 157.68 1331.04 157.92 1331.01 158.128H1324.58C1324.76 159.712 1326.05 160.816 1327.75 160.816C1328.79 160.816 1329.65 160.496 1330.52 160.064V161.472C1329.76 161.936 1328.71 162.16 1327.75 162.16ZM1324.64 156.912H1329.57C1329.54 155.6 1328.55 154.56 1327.28 154.56C1325.96 154.56 1324.92 155.408 1324.64 156.912ZM1334.95 162.16C1333.48 162.16 1332.22 161.152 1332.22 159.552C1332.22 158.128 1333.24 156.976 1335.11 156.976H1337.72V156.512C1337.72 155.184 1336.7 154.624 1335.51 154.624C1334.71 154.624 1333.82 154.944 1332.95 155.552V154.096C1333.93 153.504 1334.94 153.296 1335.83 153.296C1337.59 153.296 1339.14 154.4 1339.14 156.544V160.272C1339.14 160.848 1339.46 160.976 1339.94 160.784V161.952C1339.7 162.08 1339.37 162.16 1339.05 162.16C1338.36 162.16 1337.83 161.76 1337.75 160.784C1337.13 161.648 1336.14 162.16 1334.95 162.16ZM1335.22 160.864C1336.41 160.864 1337.72 159.968 1337.72 158.448V158.144H1335.35C1334.3 158.144 1333.69 158.72 1333.69 159.552C1333.69 160.368 1334.33 160.864 1335.22 160.864ZM1341.57 162V153.44H1343.01V154.768C1343.57 153.744 1344.61 153.28 1345.38 153.28C1345.7 153.28 1345.99 153.344 1346.18 153.424V154.88C1345.86 154.752 1345.51 154.688 1345.17 154.688C1343.91 154.688 1343.01 155.808 1343.01 157.392V162H1341.57ZM1347.81 162V153.44H1349.25V154.576C1349.87 153.728 1350.83 153.28 1351.91 153.28C1353.87 153.28 1354.98 154.752 1354.98 156.576V162H1353.54V156.928C1353.54 155.312 1352.77 154.64 1351.57 154.64C1350.35 154.64 1349.25 155.616 1349.25 157.056V162H1347.81ZM1361.4 162V153.44H1362.84V154.576C1363.47 153.696 1364.35 153.28 1365.37 153.28C1366.63 153.28 1367.51 153.872 1367.91 154.848C1368.57 153.792 1369.69 153.28 1370.79 153.28C1372.55 153.28 1373.66 154.464 1373.66 156.416V162H1372.22V156.832C1372.22 155.344 1371.58 154.64 1370.46 154.64C1369.32 154.64 1368.25 155.616 1368.25 156.912V162H1366.81V156.832C1366.81 155.344 1366.15 154.64 1365.03 154.64C1363.9 154.64 1362.84 155.616 1362.84 156.912V162H1361.4ZM1379.73 162.16C1377.15 162.16 1375.31 160.176 1375.31 157.728C1375.31 155.28 1377.15 153.28 1379.73 153.28C1382.3 153.28 1384.14 155.28 1384.14 157.728C1384.14 160.176 1382.3 162.16 1379.73 162.16ZM1379.73 160.816C1381.41 160.816 1382.67 159.424 1382.67 157.728C1382.67 156.032 1381.41 154.624 1379.73 154.624C1378.05 154.624 1376.78 156.032 1376.78 157.728C1376.78 159.424 1378.05 160.816 1379.73 160.816ZM1385.89 162V153.44H1387.33V154.768C1387.89 153.744 1388.93 153.28 1389.7 153.28C1390.02 153.28 1390.3 153.344 1390.5 153.424V154.88C1390.18 154.752 1389.82 154.688 1389.49 154.688C1388.22 154.688 1387.33 155.808 1387.33 157.392V162H1385.89ZM1395.97 162.16C1393.39 162.16 1391.31 160.464 1391.31 157.744C1391.31 155.12 1393.2 153.28 1395.5 153.28C1397.76 153.28 1399.28 154.928 1399.28 157.456C1399.28 157.68 1399.26 157.92 1399.23 158.128H1392.8C1392.97 159.712 1394.27 160.816 1395.97 160.816C1397.01 160.816 1397.87 160.496 1398.73 160.064V161.472C1397.98 161.936 1396.93 162.16 1395.97 162.16ZM1392.86 156.912H1397.79C1397.76 155.6 1396.77 154.56 1395.5 154.56C1394.17 154.56 1393.13 155.408 1392.86 156.912Z" fill="#F8F5EE"/>
<path d="M70.0812 54.1119H60.5322V43.9561H56V68.2002H60.5322V58.3754H70.0812V68.2002H74.612V43.9561H70.0812V54.1119Z" fill="#FF4800"/>
<path d="M89.118 60.3634C89.118 62.3838 87.4344 64.0245 85.3672 64.0245C83.2993 64.0245 81.6199 62.3796 81.6199 60.3634V49.9799H77.3257V60.3634C77.3257 64.6949 80.9337 68.2199 85.3672 68.2199C89.8007 68.2199 93.408 64.6949 93.408 60.3634V49.9799H89.118V60.3634Z" fill="#FF4800"/>
<path d="M120.97 51.0539V51.0498C120.97 48.9219 122.412 48.2472 123.989 48.2472C125.26 48.2472 126.944 49.1932 128.043 50.3432L130.858 47.1014C129.453 45.2455 126.6 43.9595 124.267 43.9595C119.596 43.9595 116.23 46.6267 116.23 51.0539C116.23 59.2616 126.498 56.6583 126.498 61.2535C126.498 62.6708 125.093 63.92 123.479 63.92C120.938 63.92 120.111 62.7027 118.947 61.4215L115.821 64.5946C117.815 66.9939 120.287 68.2078 123.237 68.2078C127.667 68.2078 131.238 65.5052 131.238 61.2854C131.238 52.1679 120.97 55.0058 120.97 51.0539Z" fill="#FF4800"/>
<path d="M184.488 64.3237V64.3278C181.947 64.3278 181.228 63.2541 181.228 61.6093V54.3316H185.175V50.6428H181.228V45.7762L176.868 47.689V62.5157C176.868 66.3079 179.544 68.22 183.217 68.22C183.765 68.22 184.525 68.1839 184.934 68.0847L186 64.2598C185.518 64.2917 184.971 64.3237 184.488 64.3237Z" fill="#FF4800"/>
<path d="M105.479 50.1038C103.35 50.1038 101.862 50.7069 100.429 52.0839V44.1038H96.1216V58.8945C96.1216 64.4315 100.22 68.2203 104.821 68.2203C109.936 68.2203 114.42 64.3593 114.42 59.1617C114.42 53.964 110.284 50.1038 105.479 50.1038ZM105.45 63.9846C102.753 63.9846 100.567 61.8486 100.567 59.2137C100.567 56.5789 102.753 54.4429 105.45 54.4429C108.147 54.4429 110.333 56.5789 110.333 59.2137C110.333 61.8486 108.147 63.9846 105.45 63.9846Z" fill="#FF4800"/>
<path d="M152.228 58.9422C152.228 53.7445 147.746 49.8843 142.63 49.8843C138.029 49.8843 133.931 53.6765 133.931 59.2094V74H138.237V66.02C139.672 67.3976 141.159 68 143.288 68C148.098 68 152.228 64.0759 152.228 58.9422ZM143.264 63.6609C140.567 63.6609 138.38 61.5254 138.38 58.8901C138.38 56.2555 140.567 54.12 143.264 54.12C145.961 54.12 148.147 56.2555 148.147 58.8901C148.147 61.5254 145.961 63.6609 143.264 63.6609Z" fill="#FF4800"/>
<path d="M166.146 49.6848V45.4532C167.274 44.93 168.066 43.816 168.066 42.5189V42.4231C168.066 40.6345 166.571 39.1736 164.74 39.1736H164.642C162.811 39.1736 161.316 40.6345 161.316 42.4231V42.5189C161.316 43.8126 162.109 44.93 163.237 45.4532V49.6806C161.557 49.9361 160.021 50.6107 158.754 51.6087L146.876 42.5827C146.953 42.2871 147.01 41.9879 147.01 41.6686C147.01 39.6441 145.335 38 143.264 38C141.192 38 139.508 39.6365 139.508 41.6603C139.508 43.6849 141.184 45.329 143.255 45.329C143.929 45.329 144.554 45.1416 145.102 44.8383L156.784 53.7165C155.791 55.1816 155.207 56.9382 155.207 58.8267C155.207 60.7152 155.849 62.6349 156.927 64.1402L153.372 67.6132C153.09 67.5292 152.8 67.4737 152.49 67.4737C150.786 67.4737 149.405 68.8229 149.405 70.4872C149.405 72.1522 150.786 73.5014 152.49 73.5014C154.194 73.5014 155.575 72.1522 155.575 70.4872C155.575 70.1881 155.518 69.9008 155.432 69.6252L158.946 66.1918C160.539 67.3814 162.529 68.0962 164.691 68.0962C169.929 68.0962 174.175 63.9487 174.175 58.8308C174.175 54.1995 170.689 50.3712 166.146 49.6848ZM164.687 63.5774C162.002 63.5774 159.825 61.4495 159.825 58.8267C159.825 56.2039 162.002 54.076 164.687 54.076C167.372 54.076 169.549 56.2039 169.549 58.8267C169.549 61.4495 167.372 63.5774 164.687 63.5774Z" fill="#FF4800"/>
<circle cx="963" cy="56" r="4" fill="#FF4800"/>
<path d="M976.264 62V50.8H977.768V60.56H983.096V62H976.264ZM988.367 62.16C985.791 62.16 983.951 60.176 983.951 57.728C983.951 55.28 985.791 53.28 988.367 53.28C990.943 53.28 992.783 55.28 992.783 57.728C992.783 60.176 990.943 62.16 988.367 62.16ZM988.367 60.816C990.047 60.816 991.311 59.424 991.311 57.728C991.311 56.032 990.047 54.624 988.367 54.624C986.687 54.624 985.423 56.032 985.423 57.728C985.423 59.424 986.687 60.816 988.367 60.816ZM994.528 62V53.44H995.968V54.768C996.528 53.744 997.568 53.28 998.336 53.28C998.656 53.28 998.944 53.344 999.136 53.424V54.88C998.816 54.752 998.464 54.688 998.128 54.688C996.864 54.688 995.968 55.808 995.968 57.392V62H994.528ZM1004.61 62.16C1002.03 62.16 999.951 60.464 999.951 57.744C999.951 55.12 1001.84 53.28 1004.14 53.28C1006.4 53.28 1007.92 54.928 1007.92 57.456C1007.92 57.68 1007.9 57.92 1007.87 58.128H1001.44C1001.61 59.712 1002.91 60.816 1004.61 60.816C1005.65 60.816 1006.51 60.496 1007.37 60.064V61.472C1006.62 61.936 1005.57 62.16 1004.61 62.16ZM1001.5 56.912H1006.43C1006.4 55.6 1005.41 54.56 1004.14 54.56C1002.81 54.56 1001.77 55.408 1001.5 56.912ZM1009.68 62V53.44H1011.12V54.576C1011.75 53.696 1012.63 53.28 1013.65 53.28C1014.92 53.28 1015.8 53.872 1016.2 54.848C1016.85 53.792 1017.97 53.28 1019.08 53.28C1020.84 53.28 1021.94 54.464 1021.94 56.416V62H1020.5V56.832C1020.5 55.344 1019.86 54.64 1018.74 54.64C1017.6 54.64 1016.53 55.616 1016.53 56.912V62H1015.09V56.832C1015.09 55.344 1014.44 54.64 1013.32 54.64C1012.18 54.64 1011.12 55.616 1011.12 56.912V62H1009.68ZM1031.41 64.384L1036.35 50.8H1037.87L1032.93 64.384H1031.41ZM1047.4 62V53.44H1048.84V62H1047.4ZM1048.12 52.24C1047.55 52.24 1047.08 51.76 1047.08 51.184C1047.08 50.64 1047.55 50.16 1048.12 50.16C1048.68 50.16 1049.16 50.64 1049.16 51.184C1049.16 51.76 1048.68 52.24 1048.12 52.24ZM1051.18 65.52V53.44H1052.62V54.704C1053.18 53.808 1054.3 53.28 1055.54 53.28C1057.82 53.28 1059.76 55.12 1059.76 57.728C1059.76 60.336 1057.82 62.16 1055.54 62.16C1054.3 62.16 1053.18 61.632 1052.62 60.736V65.52H1051.18ZM1055.41 60.816C1057.04 60.816 1058.29 59.44 1058.29 57.712C1058.29 55.984 1057.04 54.624 1055.41 54.624C1053.76 54.624 1052.54 55.984 1052.54 57.712C1052.54 59.44 1053.76 60.816 1055.41 60.816ZM1063.75 62.16C1062.44 62.16 1061.61 61.776 1060.94 61.328V59.792C1061.45 60.192 1062.54 60.848 1063.72 60.848C1064.74 60.848 1065.53 60.384 1065.53 59.648C1065.53 59.04 1065.13 58.656 1064.34 58.448L1063.1 58.128C1061.62 57.744 1060.92 57.008 1060.92 55.76C1060.92 54.176 1062.34 53.28 1063.9 53.28C1064.87 53.28 1065.83 53.616 1066.55 54.032V55.504C1065.72 54.912 1064.79 54.576 1063.94 54.576C1063 54.576 1062.34 55.024 1062.34 55.712C1062.34 56.224 1062.68 56.64 1063.59 56.88L1064.78 57.184C1066.22 57.552 1066.97 58.352 1066.97 59.568C1066.97 61.168 1065.56 62.16 1063.75 62.16ZM1071.71 62.16C1069.74 62.16 1068.67 60.688 1068.67 58.864V53.44H1070.11V58.512C1070.11 60.128 1070.84 60.8 1072.04 60.8C1073.26 60.8 1074.33 59.824 1074.33 58.384V53.44H1075.77V62H1074.33V60.864C1073.71 61.712 1072.78 62.16 1071.71 62.16ZM1078.14 62V53.44H1079.58V54.576C1080.2 53.696 1081.08 53.28 1082.11 53.28C1083.37 53.28 1084.25 53.872 1084.65 54.848C1085.31 53.792 1086.43 53.28 1087.53 53.28C1089.29 53.28 1090.39 54.464 1090.39 56.416V62H1088.95V56.832C1088.95 55.344 1088.31 54.64 1087.19 54.64C1086.06 54.64 1084.99 55.616 1084.99 56.912V62H1083.55V56.832C1083.55 55.344 1082.89 54.64 1081.77 54.64C1080.63 54.64 1079.58 55.616 1079.58 56.912V62H1078.14ZM1099.86 64.384L1104.8 50.8H1106.32L1101.38 64.384H1099.86ZM1119.49 62.16C1117.2 62.16 1115.26 60.32 1115.26 57.712C1115.26 55.104 1117.2 53.28 1119.49 53.28C1120.72 53.28 1121.84 53.808 1122.4 54.704V50.32H1123.84V62H1122.4V60.736C1121.84 61.632 1120.72 62.16 1119.49 62.16ZM1119.62 60.816C1121.26 60.816 1122.48 59.456 1122.48 57.728C1122.48 56 1121.26 54.624 1119.62 54.624C1117.98 54.624 1116.74 56 1116.74 57.728C1116.74 59.456 1117.98 60.816 1119.62 60.816ZM1129.9 62.16C1127.32 62.16 1125.48 60.176 1125.48 57.728C1125.48 55.28 1127.32 53.28 1129.9 53.28C1132.47 53.28 1134.31 55.28 1134.31 57.728C1134.31 60.176 1132.47 62.16 1129.9 62.16ZM1129.9 60.816C1131.58 60.816 1132.84 59.424 1132.84 57.728C1132.84 56.032 1131.58 54.624 1129.9 54.624C1128.22 54.624 1126.95 56.032 1126.95 57.728C1126.95 59.424 1128.22 60.816 1129.9 60.816ZM1138.01 62.16C1136.75 62.16 1136.06 61.248 1136.06 60V50.32H1137.5V59.76C1137.5 60.576 1137.93 60.8 1138.4 60.8C1138.6 60.8 1138.78 60.752 1138.91 60.704V62.048C1138.68 62.112 1138.36 62.16 1138.01 62.16ZM1144.21 62.16C1141.63 62.16 1139.79 60.176 1139.79 57.728C1139.79 55.28 1141.63 53.28 1144.21 53.28C1146.79 53.28 1148.63 55.28 1148.63 57.728C1148.63 60.176 1146.79 62.16 1144.21 62.16ZM1144.21 60.816C1145.89 60.816 1147.15 59.424 1147.15 57.728C1147.15 56.032 1145.89 54.624 1144.21 54.624C1142.53 54.624 1141.27 56.032 1141.27 57.728C1141.27 59.424 1142.53 60.816 1144.21 60.816ZM1150.37 62V53.44H1151.81V54.768C1152.37 53.744 1153.41 53.28 1154.18 53.28C1154.5 53.28 1154.79 53.344 1154.98 53.424V54.88C1154.66 54.752 1154.31 54.688 1153.97 54.688C1152.71 54.688 1151.81 55.808 1151.81 57.392V62H1150.37Z" fill="#042729"/>
<path d="M1208.21 50.5559H1187.79C1187.35 50.5559 1187 50.2076 1187 49.7779C1187 49.3483 1187.35 49 1187.79 49H1208.21C1208.65 49 1209 49.3483 1209 49.7779C1209 50.2076 1208.65 50.5559 1208.21 50.5559Z" fill="#FF4800"/>
<path d="M1208.21 63H1187.79C1187.35 63 1187 62.6517 1187 62.2224C1187 61.7931 1187.35 61.4448 1187.79 61.4448H1208.21C1208.65 61.4448 1209 61.7931 1209 62.2224C1209 62.6517 1208.65 63 1208.21 63Z" fill="#FF4800"/>
<path d="M1208.21 56.7783H1187.79C1187.35 56.7783 1187 56.43 1187 56.0003C1187 55.5707 1187.35 55.2224 1187.79 55.2224H1208.21C1208.65 55.2224 1209 55.5707 1209 56.0003C1209 56.43 1208.65 56.7783 1208.21 56.7783Z" fill="#FF4800"/>
<path d="M1219.26 62V50.8H1220.98L1224.82 56.72L1228.66 50.8H1230.37V62H1228.86V53.168L1225.22 58.64H1224.42L1220.77 53.168V62H1219.26ZM1236.84 62.16C1234.27 62.16 1232.19 60.464 1232.19 57.744C1232.19 55.12 1234.07 53.28 1236.38 53.28C1238.63 53.28 1240.15 54.928 1240.15 57.456C1240.15 57.68 1240.14 57.92 1240.11 58.128H1233.67C1233.85 59.712 1235.15 60.816 1236.84 60.816C1237.88 60.816 1238.75 60.496 1239.61 60.064V61.472C1238.86 61.936 1237.8 62.16 1236.84 62.16ZM1233.74 56.912H1238.67C1238.63 55.6 1237.64 54.56 1236.38 54.56C1235.05 54.56 1234.01 55.408 1233.74 56.912ZM1241.92 62V53.44H1243.36V54.576C1243.98 53.728 1244.94 53.28 1246.01 53.28C1247.98 53.28 1249.09 54.752 1249.09 56.576V62H1247.65V56.928C1247.65 55.312 1246.88 54.64 1245.68 54.64C1244.46 54.64 1243.36 55.616 1243.36 57.056V62H1241.92ZM1254.3 62.16C1252.33 62.16 1251.26 60.688 1251.26 58.864V53.44H1252.7V58.512C1252.7 60.128 1253.44 60.8 1254.64 60.8C1255.85 60.8 1256.92 59.824 1256.92 58.384V53.44H1258.36V62H1256.92V60.864C1256.3 61.712 1255.37 62.16 1254.3 62.16Z" fill="#FF4800"/>
<rect x="1290" y="38" width="134" height="36" rx="18" fill="#FF4800"/>
<path d="M1315.4 62V50.8H1316.91V60.56H1322.24V62H1315.4ZM1327.75 62.16C1325.17 62.16 1323.09 60.464 1323.09 57.744C1323.09 55.12 1324.98 53.28 1327.28 53.28C1329.54 53.28 1331.06 54.928 1331.06 57.456C1331.06 57.68 1331.04 57.92 1331.01 58.128H1324.58C1324.76 59.712 1326.05 60.816 1327.75 60.816C1328.79 60.816 1329.65 60.496 1330.52 60.064V61.472C1329.76 61.936 1328.71 62.16 1327.75 62.16ZM1324.64 56.912H1329.57C1329.54 55.6 1328.55 54.56 1327.28 54.56C1325.96 54.56 1324.92 55.408 1324.64 56.912ZM1334.95 62.16C1333.48 62.16 1332.22 61.152 1332.22 59.552C1332.22 58.128 1333.24 56.976 1335.11 56.976H1337.72V56.512C1337.72 55.184 1336.7 54.624 1335.51 54.624C1334.71 54.624 1333.82 54.944 1332.95 55.552V54.096C1333.93 53.504 1334.94 53.296 1335.83 53.296C1337.59 53.296 1339.14 54.4 1339.14 56.544V60.272C1339.14 60.848 1339.46 60.976 1339.94 60.784V61.952C1339.7 62.08 1339.37 62.16 1339.05 62.16C1338.36 62.16 1337.83 61.76 1337.75 60.784C1337.13 61.648 1336.14 62.16 1334.95 62.16ZM1335.22 60.864C1336.41 60.864 1337.72 59.968 1337.72 58.448V58.144H1335.35C1334.3 58.144 1333.69 58.72 1333.69 59.552C1333.69 60.368 1334.33 60.864 1335.22 60.864ZM1341.57 62V53.44H1343.01V54.768C1343.57 53.744 1344.61 53.28 1345.38 53.28C1345.7 53.28 1345.99 53.344 1346.18 53.424V54.88C1345.86 54.752 1345.51 54.688 1345.17 54.688C1343.91 54.688 1343.01 55.808 1343.01 57.392V62H1341.57ZM1347.81 62V53.44H1349.25V54.576C1349.87 53.728 1350.83 53.28 1351.91 53.28C1353.87 53.28 1354.98 54.752 1354.98 56.576V62H1353.54V56.928C1353.54 55.312 1352.77 54.64 1351.57 54.64C1350.35 54.64 1349.25 55.616 1349.25 57.056V62H1347.81ZM1361.4 62V53.44H1362.84V54.576C1363.47 53.696 1364.35 53.28 1365.37 53.28C1366.63 53.28 1367.51 53.872 1367.91 54.848C1368.57 53.792 1369.69 53.28 1370.79 53.28C1372.55 53.28 1373.66 54.464 1373.66 56.416V62H1372.22V56.832C1372.22 55.344 1371.58 54.64 1370.46 54.64C1369.32 54.64 1368.25 55.616 1368.25 56.912V62H1366.81V56.832C1366.81 55.344 1366.15 54.64 1365.03 54.64C1363.9 54.64 1362.84 55.616 1362.84 56.912V62H1361.4ZM1379.73 62.16C1377.15 62.16 1375.31 60.176 1375.31 57.728C1375.31 55.28 1377.15 53.28 1379.73 53.28C1382.3 53.28 1384.14 55.28 1384.14 57.728C1384.14 60.176 1382.3 62.16 1379.73 62.16ZM1379.73 60.816C1381.41 60.816 1382.67 59.424 1382.67 57.728C1382.67 56.032 1381.41 54.624 1379.73 54.624C1378.05 54.624 1376.78 56.032 1376.78 57.728C1376.78 59.424 1378.05 60.816 1379.73 60.816ZM1385.89 62V53.44H1387.33V54.768C1387.89 53.744 1388.93 53.28 1389.7 53.28C1390.02 53.28 1390.3 53.344 1390.5 53.424V54.88C1390.18 54.752 1389.82 54.688 1389.49 54.688C1388.22 54.688 1387.33 55.808 1387.33 57.392V62H1385.89ZM1395.97 62.16C1393.39 62.16 1391.31 60.464 1391.31 57.744C1391.31 55.12 1393.2 53.28 1395.5 53.28C1397.76 53.28 1399.28 54.928 1399.28 57.456C1399.28 57.68 1399.26 57.92 1399.23 58.128H1392.8C1392.97 59.712 1394.27 60.816 1395.97 60.816C1397.01 60.816 1397.87 60.496 1398.73 60.064V61.472C1397.98 61.936 1396.93 62.16 1395.97 62.16ZM1392.86 56.912H1397.79C1397.76 55.6 1396.77 54.56 1395.5 54.56C1394.17 54.56 1393.13 55.408 1392.86 56.912Z" fill="#F8F5EE"/>
<path d="M70.0812 254.112H60.5322V243.956H56V268.2H60.5322V258.375H70.0812V268.2H74.612V243.956H70.0812V254.112Z" fill="#FF4800"/>
<path d="M89.118 260.363C89.118 262.384 87.4344 264.024 85.3672 264.024C83.2993 264.024 81.6199 262.38 81.6199 260.363V249.98H77.3257V260.363C77.3257 264.695 80.9337 268.22 85.3672 268.22C89.8007 268.22 93.408 264.695 93.408 260.363V249.98H89.118V260.363Z" fill="#FF4800"/>
<path d="M120.97 251.054V251.05C120.97 248.922 122.412 248.247 123.989 248.247C125.26 248.247 126.944 249.193 128.043 250.343L130.858 247.101C129.453 245.246 126.6 243.959 124.267 243.959C119.596 243.959 116.23 246.627 116.23 251.054C116.23 259.262 126.498 256.658 126.498 261.253C126.498 262.671 125.093 263.92 123.479 263.92C120.938 263.92 120.111 262.703 118.947 261.421L115.821 264.595C117.815 266.994 120.287 268.208 123.237 268.208C127.667 268.208 131.238 265.505 131.238 261.285C131.238 252.168 120.97 255.006 120.97 251.054Z" fill="#FF4800"/>
<path d="M184.488 264.324V264.328C181.947 264.328 181.228 263.254 181.228 261.609V254.332H185.175V250.643H181.228V245.776L176.868 247.689V262.516C176.868 266.308 179.544 268.22 183.217 268.22C183.765 268.22 184.525 268.184 184.934 268.085L186 264.26C185.518 264.292 184.971 264.324 184.488 264.324Z" fill="#FF4800"/>
<path d="M105.479 250.104C103.35 250.104 101.862 250.707 100.429 252.084V244.104H96.1216V258.894C96.1216 264.432 100.22 268.22 104.821 268.22C109.936 268.22 114.42 264.359 114.42 259.162C114.42 253.964 110.284 250.104 105.479 250.104ZM105.45 263.985C102.753 263.985 100.567 261.849 100.567 259.214C100.567 256.579 102.753 254.443 105.45 254.443C108.147 254.443 110.333 256.579 110.333 259.214C110.333 261.849 108.147 263.985 105.45 263.985Z" fill="#FF4800"/>
<path d="M152.228 258.942C152.228 253.745 147.746 249.884 142.63 249.884C138.029 249.884 133.931 253.676 133.931 259.209V274H138.237V266.02C139.672 267.398 141.159 268 143.288 268C148.098 268 152.228 264.076 152.228 258.942ZM143.264 263.661C140.567 263.661 138.38 261.525 138.38 258.89C138.38 256.256 140.567 254.12 143.264 254.12C145.961 254.12 148.147 256.256 148.147 258.89C148.147 261.525 145.961 263.661 143.264 263.661Z" fill="#FF4800"/>
<path d="M166.146 249.685V245.453C167.274 244.93 168.066 243.816 168.066 242.519V242.423C168.066 240.635 166.571 239.174 164.74 239.174H164.642C162.811 239.174 161.316 240.635 161.316 242.423V242.519C161.316 243.813 162.109 244.93 163.237 245.453V249.681C161.557 249.936 160.021 250.611 158.754 251.609L146.876 242.583C146.953 242.287 147.01 241.988 147.01 241.669C147.01 239.644 145.335 238 143.264 238C141.192 238 139.508 239.637 139.508 241.66C139.508 243.685 141.184 245.329 143.255 245.329C143.929 245.329 144.554 245.142 145.102 244.838L156.784 253.716C155.791 255.182 155.207 256.938 155.207 258.827C155.207 260.715 155.849 262.635 156.927 264.14L153.372 267.613C153.09 267.529 152.8 267.474 152.49 267.474C150.786 267.474 149.405 268.823 149.405 270.487C149.405 272.152 150.786 273.501 152.49 273.501C154.194 273.501 155.575 272.152 155.575 270.487C155.575 270.188 155.518 269.901 155.432 269.625L158.946 266.192C160.539 267.381 162.529 268.096 164.691 268.096C169.929 268.096 174.175 263.949 174.175 258.831C174.175 254.2 170.689 250.371 166.146 249.685ZM164.687 263.577C162.002 263.577 159.825 261.449 159.825 258.827C159.825 256.204 162.002 254.076 164.687 254.076C167.372 254.076 169.549 256.204 169.549 258.827C169.549 261.449 167.372 263.577 164.687 263.577Z" fill="#FF4800"/>
<path d="M1208.21 250.556H1187.79C1187.35 250.556 1187 250.208 1187 249.778C1187 249.348 1187.35 249 1187.79 249H1208.21C1208.65 249 1209 249.348 1209 249.778C1209 250.208 1208.65 250.556 1208.21 250.556Z" fill="#FF4800"/>
<path d="M1208.21 263H1187.79C1187.35 263 1187 262.652 1187 262.222C1187 261.793 1187.35 261.445 1187.79 261.445H1208.21C1208.65 261.445 1209 261.793 1209 262.222C1209 262.652 1208.65 263 1208.21 263Z" fill="#FF4800"/>
<path d="M1208.21 256.778H1187.79C1187.35 256.778 1187 256.43 1187 256C1187 255.571 1187.35 255.222 1187.79 255.222H1208.21C1208.65 255.222 1209 255.571 1209 256C1209 256.43 1208.65 256.778 1208.21 256.778Z" fill="#FF4800"/>
<path d="M1219.26 262V250.8H1220.98L1224.82 256.72L1228.66 250.8H1230.37V262H1228.86V253.168L1225.22 258.64H1224.42L1220.77 253.168V262H1219.26ZM1236.84 262.16C1234.27 262.16 1232.19 260.464 1232.19 257.744C1232.19 255.12 1234.07 253.28 1236.38 253.28C1238.63 253.28 1240.15 254.928 1240.15 257.456C1240.15 257.68 1240.14 257.92 1240.11 258.128H1233.67C1233.85 259.712 1235.15 260.816 1236.84 260.816C1237.88 260.816 1238.75 260.496 1239.61 260.064V261.472C1238.86 261.936 1237.8 262.16 1236.84 262.16ZM1233.74 256.912H1238.67C1238.63 255.6 1237.64 254.56 1236.38 254.56C1235.05 254.56 1234.01 255.408 1233.74 256.912ZM1241.92 262V253.44H1243.36V254.576C1243.98 253.728 1244.94 253.28 1246.01 253.28C1247.98 253.28 1249.09 254.752 1249.09 256.576V262H1247.65V256.928C1247.65 255.312 1246.88 254.64 1245.68 254.64C1244.46 254.64 1243.36 255.616 1243.36 257.056V262H1241.92ZM1254.3 262.16C1252.33 262.16 1251.26 260.688 1251.26 258.864V253.44H1252.7V258.512C1252.7 260.128 1253.44 260.8 1254.64 260.8C1255.85 260.8 1256.92 259.824 1256.92 258.384V253.44H1258.36V262H1256.92V260.864C1256.3 261.712 1255.37 262.16 1254.3 262.16Z" fill="#FF4800"/>
<rect x="1290" y="238" width="134" height="36" rx="18" fill="#FF4800"/>
<path d="M1315.4 262V250.8H1316.91V260.56H1322.24V262H1315.4ZM1327.75 262.16C1325.17 262.16 1323.09 260.464 1323.09 257.744C1323.09 255.12 1324.98 253.28 1327.28 253.28C1329.54 253.28 1331.06 254.928 1331.06 257.456C1331.06 257.68 1331.04 257.92 1331.01 258.128H1324.58C1324.76 259.712 1326.05 260.816 1327.75 260.816C1328.79 260.816 1329.65 260.496 1330.52 260.064V261.472C1329.76 261.936 1328.71 262.16 1327.75 262.16ZM1324.64 256.912H1329.57C1329.54 255.6 1328.55 254.56 1327.28 254.56C1325.96 254.56 1324.92 255.408 1324.64 256.912ZM1334.95 262.16C1333.48 262.16 1332.22 261.152 1332.22 259.552C1332.22 258.128 1333.24 256.976 1335.11 256.976H1337.72V256.512C1337.72 255.184 1336.7 254.624 1335.51 254.624C1334.71 254.624 1333.82 254.944 1332.95 255.552V254.096C1333.93 253.504 1334.94 253.296 1335.83 253.296C1337.59 253.296 1339.14 254.4 1339.14 256.544V260.272C1339.14 260.848 1339.46 260.976 1339.94 260.784V261.952C1339.7 262.08 1339.37 262.16 1339.05 262.16C1338.36 262.16 1337.83 261.76 1337.75 260.784C1337.13 261.648 1336.14 262.16 1334.95 262.16ZM1335.22 260.864C1336.41 260.864 1337.72 259.968 1337.72 258.448V258.144H1335.35C1334.3 258.144 1333.69 258.72 1333.69 259.552C1333.69 260.368 1334.33 260.864 1335.22 260.864ZM1341.57 262V253.44H1343.01V254.768C1343.57 253.744 1344.61 253.28 1345.38 253.28C1345.7 253.28 1345.99 253.344 1346.18 253.424V254.88C1345.86 254.752 1345.51 254.688 1345.17 254.688C1343.91 254.688 1343.01 255.808 1343.01 257.392V262H1341.57ZM1347.81 262V253.44H1349.25V254.576C1349.87 253.728 1350.83 253.28 1351.91 253.28C1353.87 253.28 1354.98 254.752 1354.98 256.576V262H1353.54V256.928C1353.54 255.312 1352.77 254.64 1351.57 254.64C1350.35 254.64 1349.25 255.616 1349.25 257.056V262H1347.81ZM1361.4 262V253.44H1362.84V254.576C1363.47 253.696 1364.35 253.28 1365.37 253.28C1366.63 253.28 1367.51 253.872 1367.91 254.848C1368.57 253.792 1369.69 253.28 1370.79 253.28C1372.55 253.28 1373.66 254.464 1373.66 256.416V262H1372.22V256.832C1372.22 255.344 1371.58 254.64 1370.46 254.64C1369.32 254.64 1368.25 255.616 1368.25 256.912V262H1366.81V256.832C1366.81 255.344 1366.15 254.64 1365.03 254.64C1363.9 254.64 1362.84 255.616 1362.84 256.912V262H1361.4ZM1379.73 262.16C1377.15 262.16 1375.31 260.176 1375.31 257.728C1375.31 255.28 1377.15 253.28 1379.73 253.28C1382.3 253.28 1384.14 255.28 1384.14 257.728C1384.14 260.176 1382.3 262.16 1379.73 262.16ZM1379.73 260.816C1381.41 260.816 1382.67 259.424 1382.67 257.728C1382.67 256.032 1381.41 254.624 1379.73 254.624C1378.05 254.624 1376.78 256.032 1376.78 257.728C1376.78 259.424 1378.05 260.816 1379.73 260.816ZM1385.89 262V253.44H1387.33V254.768C1387.89 253.744 1388.93 253.28 1389.7 253.28C1390.02 253.28 1390.3 253.344 1390.5 253.424V254.88C1390.18 254.752 1389.82 254.688 1389.49 254.688C1388.22 254.688 1387.33 255.808 1387.33 257.392V262H1385.89ZM1395.97 262.16C1393.39 262.16 1391.31 260.464 1391.31 257.744C1391.31 255.12 1393.2 253.28 1395.5 253.28C1397.76 253.28 1399.28 254.928 1399.28 257.456C1399.28 257.68 1399.26 257.92 1399.23 258.128H1392.8C1392.97 259.712 1394.27 260.816 1395.97 260.816C1397.01 260.816 1397.87 260.496 1398.73 260.064V261.472C1397.98 261.936 1396.93 262.16 1395.97 262.16ZM1392.86 256.912H1397.79C1397.76 255.6 1396.77 254.56 1395.5 254.56C1394.17 254.56 1393.13 255.408 1392.86 256.912Z" fill="#F8F5EE"/>
</svg>
