<svg width="114" height="108" viewBox="0 0 114 108" fill="none" xmlns="http://www.w3.org/2000/svg">
<rect x="0.5" y="0.5" width="113" height="107" rx="4.5" stroke="#9747FF" stroke-dasharray="10 5"/>
<path d="M38.4474 68.2664L32 74.7115L25.5526 68.2664C25.1973 67.9112 24.6219 67.9112 24.2666 68.2665C23.9112 68.6217 23.9112 69.1968 24.2665 69.5521L30.7139 75.9972L24.2665 82.4423C23.9112 82.7975 23.9112 83.3727 24.2665 83.7279C24.6219 84.0832 25.1973 84.0832 25.5526 83.7279L32 77.2828L38.453 83.7336C38.8084 84.0888 39.3837 84.0888 39.7391 83.7336L39.7335 83.7279C40.0888 83.3727 40.0888 82.7975 39.7335 82.4423L33.2861 75.9972L39.7335 69.5521C40.0888 69.1968 40.0888 68.6217 39.7335 68.2664C39.3781 67.9112 38.8027 67.9112 38.4474 68.2664Z" fill="#FF4800"/>
<path d="M58.4 82.16C57.312 82.16 56.3307 81.9147 55.456 81.424C54.592 80.9227 53.9093 80.2347 53.408 79.36C52.9173 78.4853 52.672 77.4987 52.672 76.4C52.672 75.3013 52.9173 74.3147 53.408 73.44C53.9093 72.5653 54.592 71.8827 55.456 71.392C56.3307 70.8907 57.312 70.64 58.4 70.64C58.976 70.64 59.5733 70.7307 60.192 70.912C60.8107 71.0827 61.3227 71.328 61.728 71.648V73.376C61.3227 72.9707 60.8213 72.656 60.224 72.432C59.6373 72.1973 59.0293 72.08 58.4 72.08C57.6 72.08 56.88 72.2667 56.24 72.64C55.6 73.0027 55.0987 73.5147 54.736 74.176C54.384 74.8267 54.208 75.568 54.208 76.4C54.208 77.232 54.384 77.9787 54.736 78.64C55.0987 79.2907 55.6 79.8027 56.24 80.176C56.88 80.5387 57.6 80.72 58.4 80.72C58.976 80.72 59.5787 80.6027 60.208 80.368C60.8373 80.1227 61.344 79.808 61.728 79.424V81.152C61.3227 81.472 60.8107 81.7227 60.192 81.904C59.5733 82.0747 58.976 82.16 58.4 82.16ZM65.6985 82.16C65.0798 82.16 64.5998 81.9627 64.2585 81.568C63.9172 81.1627 63.7465 80.64 63.7465 80V70.32H65.1865V79.76C65.1865 80.4533 65.4852 80.8 66.0825 80.8C66.2532 80.8 66.4238 80.768 66.5945 80.704V82.048C66.3385 82.1227 66.0398 82.16 65.6985 82.16ZM71.8979 82.16C71.0552 82.16 70.2979 81.9627 69.6259 81.568C68.9539 81.1733 68.4259 80.64 68.0419 79.968C67.6685 79.2853 67.4819 78.5387 67.4819 77.728C67.4819 76.9173 67.6685 76.176 68.0419 75.504C68.4259 74.8213 68.9539 74.2827 69.6259 73.888C70.2979 73.4827 71.0552 73.28 71.8979 73.28C72.7405 73.28 73.4979 73.4827 74.1699 73.888C74.8419 74.2827 75.3645 74.8213 75.7379 75.504C76.1219 76.176 76.3139 76.9173 76.3139 77.728C76.3139 78.5387 76.1219 79.2853 75.7379 79.968C75.3645 80.64 74.8419 81.1733 74.1699 81.568C73.4979 81.9627 72.7405 82.16 71.8979 82.16ZM71.8979 80.816C72.4419 80.816 72.9379 80.6773 73.3859 80.4C73.8445 80.1227 74.2019 79.7493 74.4579 79.28C74.7139 78.8 74.8419 78.2827 74.8419 77.728C74.8419 77.1733 74.7139 76.656 74.4579 76.176C74.2019 75.696 73.8445 75.3173 73.3859 75.04C72.9379 74.7627 72.4419 74.624 71.8979 74.624C71.3539 74.624 70.8525 74.7627 70.3939 75.04C69.9459 75.3173 69.5939 75.696 69.3379 76.176C69.0819 76.656 68.9539 77.1733 68.9539 77.728C68.9539 78.2827 69.0819 78.8 69.3379 79.28C69.5939 79.7493 69.9459 80.1227 70.3939 80.4C70.8525 80.6773 71.3539 80.816 71.8979 80.816ZM80.315 82.16C79.7177 82.16 79.195 82.0853 78.747 81.936C78.3097 81.7867 77.8937 81.584 77.499 81.328V79.792C77.8403 80.0587 78.2563 80.304 78.747 80.528C79.2483 80.7413 79.7603 80.848 80.283 80.848C80.8057 80.848 81.2377 80.7413 81.579 80.528C81.9203 80.304 82.091 80.0107 82.091 79.648C82.091 79.0613 81.6963 78.6613 80.907 78.448L79.659 78.128C78.923 77.936 78.3737 77.648 78.011 77.264C77.659 76.88 77.483 76.3787 77.483 75.76C77.483 75.248 77.6163 74.8053 77.883 74.432C78.1603 74.0587 78.5283 73.776 78.987 73.584C79.4457 73.3813 79.9363 73.28 80.459 73.28C80.9177 73.28 81.3763 73.3493 81.835 73.488C82.3043 73.6267 82.731 73.808 83.115 74.032V75.504C82.699 75.2053 82.267 74.976 81.819 74.816C81.371 74.656 80.9337 74.576 80.507 74.576C80.027 74.576 79.6377 74.6827 79.339 74.896C79.051 75.0987 78.907 75.3707 78.907 75.712C78.907 76.2667 79.323 76.656 80.155 76.88L81.339 77.184C82.8003 77.5573 83.531 78.352 83.531 79.568C83.531 80.0907 83.387 80.5493 83.099 80.944C82.8217 81.328 82.4377 81.6267 81.947 81.84C81.467 82.0533 80.923 82.16 80.315 82.16ZM89.3566 82.16C88.4926 82.16 87.7033 81.9787 86.9886 81.616C86.2846 81.2533 85.7246 80.7413 85.3086 80.08C84.9033 79.408 84.7006 78.6293 84.7006 77.744C84.7006 76.8907 84.8873 76.1227 85.2606 75.44C85.634 74.7573 86.1406 74.2293 86.7806 73.856C87.4206 73.472 88.1246 73.28 88.8926 73.28C89.6393 73.28 90.2953 73.456 90.8606 73.808C91.4366 74.1493 91.8793 74.6347 92.1886 75.264C92.5086 75.8933 92.6686 76.624 92.6686 77.456C92.6686 77.6907 92.6526 77.9147 92.6206 78.128H86.1886C86.274 78.9173 86.61 79.5627 87.1966 80.064C87.794 80.5653 88.514 80.816 89.3566 80.816C89.8366 80.816 90.2953 80.752 90.7326 80.624C91.1806 80.496 91.6446 80.3093 92.1246 80.064V81.472C91.762 81.696 91.3353 81.8667 90.8446 81.984C90.354 82.1013 89.858 82.16 89.3566 82.16ZM91.1806 76.912C91.17 76.4853 91.0633 76.0907 90.8606 75.728C90.658 75.3653 90.3806 75.0827 90.0286 74.88C89.6873 74.6667 89.3086 74.56 88.8926 74.56C88.2206 74.56 87.6446 74.768 87.1646 75.184C86.6953 75.6 86.3913 76.176 86.2526 76.912H91.1806Z" fill="#FF4800"/>
<path d="M42.2145 26.5559H21.7859C21.3518 26.5559 21 26.2076 21 25.7779C21 25.3483 21.3518 25 21.7859 25H42.2145C42.6482 25 43 25.3483 43 25.7779C43 26.2076 42.6482 26.5559 42.2145 26.5559Z" fill="#FF4800"/>
<path d="M42.2145 39H21.7859C21.3518 39 21 38.6517 21 38.2224C21 37.7931 21.3518 37.4448 21.7859 37.4448H42.2145C42.6482 37.4448 43 37.7931 43 38.2224C43 38.6517 42.6482 39 42.2145 39Z" fill="#FF4800"/>
<path d="M42.2145 32.7783H21.7859C21.3518 32.7783 21 32.43 21 32.0003C21 31.5707 21.3518 31.2224 21.7859 31.2224H42.2145C42.6482 31.2224 43 31.5707 43 32.0003C43 32.43 42.6482 32.7783 42.2145 32.7783Z" fill="#FF4800"/>
<path d="M53.264 26.8H54.976L58.816 32.72L62.656 26.8H64.368V38H62.864V29.168L59.216 34.64H58.416L54.768 29.168V38H53.264V26.8ZM70.841 38.16C69.977 38.16 69.1877 37.9787 68.473 37.616C67.769 37.2533 67.209 36.7413 66.793 36.08C66.3877 35.408 66.185 34.6293 66.185 33.744C66.185 32.8907 66.3717 32.1227 66.745 31.44C67.1183 30.7573 67.625 30.2293 68.265 29.856C68.905 29.472 69.609 29.28 70.377 29.28C71.1237 29.28 71.7797 29.456 72.345 29.808C72.921 30.1493 73.3637 30.6347 73.673 31.264C73.993 31.8933 74.153 32.624 74.153 33.456C74.153 33.6907 74.137 33.9147 74.105 34.128H67.673C67.7583 34.9173 68.0943 35.5627 68.681 36.064C69.2783 36.5653 69.9983 36.816 70.841 36.816C71.321 36.816 71.7797 36.752 72.217 36.624C72.665 36.496 73.129 36.3093 73.609 36.064V37.472C73.2463 37.696 72.8197 37.8667 72.329 37.984C71.8383 38.1013 71.3423 38.16 70.841 38.16ZM72.665 32.912C72.6543 32.4853 72.5477 32.0907 72.345 31.728C72.1423 31.3653 71.865 31.0827 71.513 30.88C71.1717 30.6667 70.793 30.56 70.377 30.56C69.705 30.56 69.129 30.768 68.649 31.184C68.1797 31.6 67.8757 32.176 67.737 32.912H72.665ZM75.9184 29.44H77.3584V30.576C77.6677 30.16 78.0517 29.84 78.5104 29.616C78.969 29.392 79.4704 29.28 80.0144 29.28C80.6544 29.28 81.2037 29.4293 81.6624 29.728C82.1317 30.016 82.4837 30.4107 82.7184 30.912C82.9637 31.4027 83.0864 31.9573 83.0864 32.576V38H81.6464V32.928C81.6464 32.1493 81.4757 31.5733 81.1344 31.2C80.793 30.8267 80.3077 30.64 79.6784 30.64C79.273 30.64 78.889 30.7413 78.5264 30.944C78.1744 31.1467 77.8917 31.4347 77.6784 31.808C77.465 32.1707 77.3584 32.5867 77.3584 33.056V38H75.9184V29.44ZM88.2999 38.16C87.6599 38.16 87.1105 38.016 86.6519 37.728C86.1932 37.44 85.8465 37.0453 85.6119 36.544C85.3772 36.0427 85.2599 35.4827 85.2599 34.864V29.44H86.6999V34.512C86.6999 36.0373 87.3452 36.8 88.6359 36.8C89.0412 36.8 89.4199 36.6987 89.7719 36.496C90.1239 36.2933 90.4012 36.0107 90.6039 35.648C90.8172 35.2747 90.9239 34.8533 90.9239 34.384V29.44H92.3639V38H90.9239V36.864C90.6145 37.2907 90.2305 37.616 89.7719 37.84C89.3239 38.0533 88.8332 38.16 88.2999 38.16Z" fill="#FF4800"/>
</svg>
