<svg width="24" height="24" viewBox="0 0 24 24" fill="none" xmlns="http://www.w3.org/2000/svg">
<path d="M0.856934 11.1819H21.0734L13.9658 4.39666C13.6311 4.07717 13.6311 3.55912 13.9658 3.23962C14.3005 2.92013 14.8433 2.92013 15.178 3.23962L23.7481 11.4211C23.8275 11.4967 23.8903 11.5874 23.9339 11.6879C23.9738 11.7802 23.9919 11.8781 23.995 11.9764C23.9952 11.9848 24 11.9918 24 12.0003C24 12.0087 23.9952 12.0157 23.995 12.0241C23.9919 12.1224 23.9738 12.2203 23.9339 12.3126C23.8903 12.4131 23.8275 12.5038 23.7481 12.5794L15.178 20.7609C15.0106 20.9203 14.7913 21 14.5719 21C14.3525 21 14.1332 20.9203 13.9658 20.7609C13.6311 20.4414 13.6311 19.9234 13.9658 19.6032L21.0733 12.8186H0.856934C0.383789 12.8186 0 12.4522 0 12.0003C0 11.5483 0.383789 11.1819 0.856934 11.1819Z" fill="#FF4800"/>
</svg>
