<svg width="24" height="24" viewBox="0 0 24 24" fill="none" xmlns="http://www.w3.org/2000/svg">
<path d="M23.1431 11.1819H2.92662L10.0342 4.39666C10.3689 4.07717 10.3689 3.55912 10.0342 3.23962C9.69946 2.92013 9.15674 2.92013 8.82202 3.23962L0.251907 11.4211C0.172531 11.4967 0.10968 11.5874 0.0661011 11.6879C0.0261841 11.7802 0.00810247 11.8781 0.00503542 11.9764C0.00476077 11.9848 0 11.9918 0 12.0003C0 12.0087 0.00476077 12.0157 0.00503542 12.0241C0.00810247 12.1224 0.0261841 12.2203 0.0661011 12.3126C0.10968 12.4131 0.172531 12.5038 0.251907 12.5794L8.82202 20.7609C8.98938 20.9203 9.20874 21 9.4281 21C9.64746 21 9.86682 20.9203 10.0342 20.7609C10.3689 20.4414 10.3689 19.9234 10.0342 19.6032L2.92671 12.8186H23.1431C23.6162 12.8186 24 12.4522 24 12.0003C24 11.5483 23.6162 11.1819 23.1431 11.1819Z" fill="#FF4800"/>
</svg>
