<svg width="24" height="24" viewBox="0 0 24 24" fill="none" xmlns="http://www.w3.org/2000/svg">
<path d="M9.77161 23C9.2981 23 8.91431 22.6325 8.91431 22.1794V1.82095C8.91431 1.36751 9.2981 1 9.77161 1C10.2451 1 10.6289 1.36751 10.6289 1.82095V22.1794C10.6289 22.6325 10.2451 23 9.77161 23Z" fill="#FF4800"/>
<path d="M5.31445 18.6873C4.84094 18.6873 4.45715 18.3198 4.45715 17.8667V5.41473C4.45715 4.9613 4.84094 4.59378 5.31445 4.59378C5.78796 4.59378 6.17175 4.9613 6.17175 5.41473V17.8667C6.17175 18.3198 5.78796 18.6873 5.31445 18.6873Z" fill="#FF4800"/>
<path d="M18.6859 20.1244C18.2128 20.1244 17.829 19.7569 17.829 19.3038V3.97729C17.829 3.52385 18.2128 3.15634 18.6859 3.15634C19.1591 3.15634 19.5428 3.52385 19.5428 3.97729V19.3038C19.5428 19.7569 19.1591 20.1244 18.6859 20.1244Z" fill="#FF4800"/>
<path d="M0.8573 14.3746C0.383789 14.3746 0 14.0071 0 13.554V9.72741C0 9.27398 0.383789 8.90646 0.8573 8.90646C1.33081 8.90646 1.7146 9.27398 1.7146 9.72741V13.554C1.7146 14.0071 1.33081 14.3746 0.8573 14.3746Z" fill="#FF4800"/>
<path d="M23.1431 14.3746C22.6699 14.3746 22.2861 14.0071 22.2861 13.554V9.72741C22.2861 9.27398 22.6699 8.90646 23.1431 8.90646C23.6162 8.90646 24 9.27398 24 9.72741V13.554C24 14.0071 23.6162 14.3746 23.1431 14.3746Z" fill="#FF4800"/>
<path d="M14.2288 17.2495C13.7556 17.2495 13.3718 16.882 13.3718 16.4289V6.85217C13.3718 6.39874 13.7556 6.03123 14.2288 6.03123C14.7019 6.03123 15.0857 6.39874 15.0857 6.85217V16.4289C15.0857 16.882 14.7019 17.2495 14.2288 17.2495Z" fill="#FF4800"/>
</svg>
