<svg width="24" height="24" viewBox="0 0 24 24" fill="none" xmlns="http://www.w3.org/2000/svg">
<path d="M22.2145 6.55585H1.78586C1.35181 6.55585 1 6.2076 1 5.77793C1 5.34826 1.35181 5 1.78586 5H22.2145C22.6482 5 23 5.34826 23 5.77793C23 6.2076 22.6482 6.55585 22.2145 6.55585Z" fill="#FF4800"/>
<path d="M22.2145 19H1.78586C1.35181 19 1 18.6517 1 18.2224C1 17.7931 1.35181 17.4448 1.78586 17.4448H22.2145C22.6482 17.4448 23 17.7931 23 18.2224C23 18.6517 22.6482 19 22.2145 19Z" fill="#FF4800"/>
<path d="M22.2145 12.7783H1.78586C1.35181 12.7783 1 12.43 1 12.0003C1 11.5707 1.35181 11.2224 1.78586 11.2224H22.2145C22.6482 11.2224 23 11.5707 23 12.0003C23 12.43 22.6482 12.7783 22.2145 12.7783Z" fill="#FF4800"/>
</svg>
