<svg width="24" height="24" viewBox="0 0 24 24" fill="none" xmlns="http://www.w3.org/2000/svg">
<path d="M17.5771 3C16.3886 3 15.28 3.20407 14.2629 3.60087C13.8171 3.77093 13.6114 4.26976 13.7829 4.70057C13.9543 5.14272 14.4571 5.34679 14.8914 5.17673C15.7029 4.85929 16.6057 4.68923 17.5771 4.68923C20.3314 4.68923 21.8171 5.99301 22.2857 6.49184V17.1601C21.2571 16.4458 19.7029 15.7429 17.5771 15.7429C14.7314 15.7429 12.9143 16.99 12 17.863C11.0857 16.99 9.28 15.7429 6.43429 15.7429C4.29714 15.7429 2.74286 16.4458 1.71429 17.1601V6.50318C2.18286 6.00434 3.66857 4.70057 6.42286 4.70057C6.81143 4.70057 7.18857 4.72325 7.53143 4.77993C9.58857 5.06336 11.1429 6.8773 11.1429 8.98601V14.0537C11.1429 14.5185 11.5314 14.904 12 14.904C12.4686 14.904 12.8571 14.5185 12.8571 14.0537V8.98601C12.8571 6.02702 10.6743 3.49883 7.77143 3.0907C7.34857 3.03401 6.90286 3 6.42286 3C2.17143 3 0.24 5.58487 0.16 5.69824C0.0571429 5.84562 0 6.01568 0 6.19707V19.1554C0 19.5296 0.251429 19.8583 0.605714 19.9604C0.971428 20.0737 1.36 19.9377 1.56571 19.6316C1.62286 19.5409 3.10857 17.4549 6.43429 17.4549C9.76 17.4549 11.2343 19.5409 11.2914 19.6202C11.4514 19.8583 11.7143 19.9944 12 19.9944C12.2857 19.9944 12.5486 19.8583 12.7086 19.6202C12.7657 19.5296 14.2514 17.4435 17.5771 17.4435C20.9029 17.4435 22.3771 19.5296 22.4343 19.6202C22.5943 19.8583 22.8686 19.9944 23.1429 19.9944C23.2229 19.9944 23.3143 19.983 23.3943 19.9604C23.76 19.847 24 19.5182 24 19.1441V6.19707C24 6.01568 23.9429 5.84562 23.84 5.69824C23.76 5.58487 21.8171 3 17.5771 3Z" fill="#FF4800"/>
</svg>
