<svg width="24" height="24" viewBox="0 0 24 24" fill="none" xmlns="http://www.w3.org/2000/svg">
<path d="M5 24H19C20.6533 24 22 22.6533 22 21V3C22 1.34667 20.6533 0 19 0H5C3.34667 0 2 1.34667 2 3V21C2 22.6533 3.34667 24 5 24ZM4 3C4 2.45333 4.45333 2 5 2H19C19.5467 2 20 2.45333 20 3V21C20 21.5467 19.5467 22 19 22H5C4.45333 22 4 21.5467 4 21V3Z" fill="#FF4800"/>
<path d="M7 6H17C17.5467 6 18 5.54667 18 5C18 4.45333 17.5467 4 17 4H7C6.45333 4 6 4.45333 6 5C6 5.54667 6.45333 6 7 6Z" fill="#FF4800"/>
<path d="M7 10H17C17.5467 10 18 9.54667 18 9C18 8.45333 17.5467 8 17 8H7C6.45333 8 6 8.45333 6 9C6 9.54667 6.45333 10 7 10Z" fill="#FF4800"/>
<path d="M7 14H13C13.5467 14 14 13.5467 14 13C14 12.4533 13.5467 12 13 12H7C6.45333 12 6 12.4533 6 13C6 13.5467 6.45333 14 7 14Z" fill="#FF4800"/>
</svg>
