<svg width="24" height="24" viewBox="0 0 24 24" fill="none" xmlns="http://www.w3.org/2000/svg">
<g clip-path="url(#clip0_2192_5048)">
<path d="M22.2145 11.231H11.1032C10.7518 9.90755 9.53198 8.923 8.07172 8.923C6.61145 8.923 5.39141 9.90755 5.03994 11.231H1.78586C1.35181 11.231 1 11.5754 1 12.0003C1 12.4253 1.35181 12.7697 1.78586 12.7697H5.03999C5.3915 14.0928 6.61149 15.077 8.07172 15.077C9.53194 15.077 10.7517 14.0928 11.1032 12.7697H22.2145C22.6482 12.7697 23 12.4253 23 12.0003C23 11.5754 22.6482 11.231 22.2145 11.231ZM8.07172 13.539C7.20496 13.539 6.5 12.8485 6.5 12.0003C6.5 11.1518 7.20496 10.4617 8.07172 10.4617C8.93739 10.4617 9.64163 11.1506 9.64289 11.9982L9.64243 12.0003L9.64289 12.0025C9.64163 12.8497 8.93739 13.539 8.07172 13.539Z" fill="#FF4800"/>
<path d="M1.78586 5.84666H12.8971C13.2486 7.17003 14.4683 8.15433 15.9283 8.15433C17.3883 8.15433 18.608 7.17003 18.9594 5.84666H22.2145C22.6482 5.84666 23 5.50225 23 5.07733C23 4.6524 22.6482 4.308 22.2145 4.308H18.9595C18.608 2.98455 17.3883 2 15.9283 2C14.4683 2 13.2485 2.98455 12.8971 4.308H1.78586C1.35181 4.308 1 4.6524 1 5.07733C1 5.50225 1.35181 5.84666 1.78586 5.84666ZM15.9283 3.53866C16.795 3.53866 17.5 4.2288 17.5 5.07733C17.5 5.92553 16.795 6.61566 15.9283 6.61566C15.0623 6.61566 14.358 5.92672 14.3568 5.0795L14.3572 5.07733L14.3568 5.07515C14.358 4.2276 15.0623 3.53866 15.9283 3.53866Z" fill="#FF4800"/>
<path d="M22.2145 18.1543H18.9596C18.6083 16.8305 17.3884 15.846 15.9283 15.846C14.4681 15.846 13.2482 16.8305 12.897 18.1543H1.78586C1.35181 18.1543 1 18.4987 1 18.9233C1 19.3479 1.35181 19.6923 1.78586 19.6923H12.8971C13.2484 21.0156 14.4682 22 15.9283 22C17.3883 22 18.6082 21.0156 18.9595 19.6923H22.2145C22.6482 19.6923 23 19.3479 23 18.9233C23 18.4987 22.6482 18.1543 22.2145 18.1543ZM15.9283 20.462C15.0623 20.462 14.358 19.7731 14.3568 18.9255L14.3572 18.9233L14.3568 18.9212C14.358 18.0736 15.0623 17.384 15.9283 17.384C16.795 17.384 17.5 18.0748 17.5 18.9233C17.5 19.7719 16.795 20.462 15.9283 20.462Z" fill="#FF4800"/>
</g>
<defs>
<clipPath id="clip0_2192_5048">
<rect width="22" height="20" fill="white" transform="translate(1 2)"/>
</clipPath>
</defs>
</svg>
