<svg width="25" height="24" viewBox="0 0 25 24" fill="none" xmlns="http://www.w3.org/2000/svg">
<path d="M23.7486 3.91565C23.7036 3.36487 23.23 2.96399 22.6685 3.00256L18.6734 3.33753C18.1236 3.38391 17.7144 3.86731 17.7613 4.4176C17.8072 4.96887 18.2876 5.37903 18.8413 5.33069L20.4173 5.19849L13.6855 13.1627L9.25485 9.41663C9.05368 9.24524 8.79782 9.1593 8.52536 9.18372C8.26169 9.20618 8.01657 9.33215 7.84567 9.53479L0.236299 18.5377C-0.120146 18.9596 -0.0674115 19.5905 0.354464 19.9469C0.541964 20.1061 0.771456 20.1832 0.998995 20.1832C1.28317 20.1832 1.56638 20.0631 1.76364 19.8287L8.72751 11.5895L13.1582 15.3356C13.3593 15.5065 13.6162 15.5953 13.8877 15.568C14.1513 15.5465 14.3965 15.4196 14.5674 15.2174L21.9567 6.47522L22.0913 8.07776C22.1343 8.59973 22.5718 8.99426 23.0865 8.99426C23.1148 8.99426 23.1421 8.99329 23.1714 8.99085C23.7212 8.94446 24.1304 8.46106 24.0835 7.91077L23.7486 3.91565Z" fill="#FF4800"/>
</svg>
