<svg width="24" height="24" viewBox="0 0 24 24" fill="none" xmlns="http://www.w3.org/2000/svg">
<path d="M20.3811 1H3.61886C2.17347 1 1 2.17347 1 3.61886V20.3811C1 21.8265 2.17347 23 3.61886 23H20.3811C21.8265 23 23 21.8265 23 20.3811V3.61886C23 2.17347 21.8265 1 20.3811 1ZM7.80983 9.38114V19.3336H4.6672V9.38114H7.80983ZM4.6664 6.48396C4.6664 5.75084 5.29525 5.19017 6.23771 5.19017C7.18018 5.19017 7.77213 5.75084 7.80903 6.48396C7.80903 7.21708 7.22269 7.80903 6.23771 7.80903C5.29444 7.80903 4.6664 7.21708 4.6664 6.48396ZM16.191 19.3336V14.0951C16.191 13.0475 15.6672 12 14.3574 11.9791H14.3157C13.0483 11.9791 12.5246 13.058 12.5246 14.0951V19.3336H9.38195V9.38114H12.5246V10.7223C12.5246 10.7223 13.5352 9.38114 15.5677 9.38114C17.6476 9.38114 19.3344 10.8113 19.3344 13.7077V19.3336H16.191Z" fill="#FF4800"/>
</svg>
