<svg width="24" height="24" viewBox="0 0 24 24" fill="none" xmlns="http://www.w3.org/2000/svg">
<path d="M12.5058 24C18.2893 24 23 19.3823 23 13.7131C23 8.04382 18.2893 3.42612 12.5058 3.42612H10.2438L12.2493 1.46017C12.5875 1.12871 12.5875 0.580069 12.2493 0.248601C11.9112 -0.0828669 11.3515 -0.082867 11.0133 0.248601L7.51527 3.67758C7.17712 4.00905 7.17712 4.55769 7.51527 4.88915L11.0133 8.31813C11.1882 8.48958 11.4098 8.56959 11.6313 8.56959C11.8529 8.56959 12.0744 8.48958 12.2493 8.31813C12.5875 7.98667 12.5875 7.43803 12.2493 7.10656L10.2438 5.14061H12.5058C17.3331 5.14061 21.251 8.98107 21.251 13.7131C21.251 18.4451 17.3331 22.2855 12.5058 22.2855C7.67851 22.2855 3.76069 18.4451 3.76069 13.7131C3.76069 11.5071 4.61188 9.40398 6.16269 7.80379C6.50083 7.46089 6.47751 6.92368 6.12771 6.59221C5.7779 6.27217 5.22987 6.28361 4.89173 6.6265C3.0261 8.54673 2 11.0613 2 13.7131C2 19.3823 6.71072 24 12.4942 24H12.5058Z" fill="currentColor"/>
<path d="M12.1383 15.9762C11.4736 15.9762 10.7857 15.7704 10.261 15.4047H10.2376V17.0049C10.5991 17.2335 11.4037 17.5535 12.1732 17.5535C13.7707 17.5535 14.9134 16.582 14.9134 15.199C14.9134 13.9417 13.829 13.0501 12.558 13.0501C12.3715 13.0501 12.2082 13.073 12.0333 13.1073L12.1266 12.2386H14.482V10.6498H10.6458L10.2376 14.7875H10.261C10.879 14.4789 11.4853 14.3646 12.045 14.3646C12.7329 14.3646 13.1061 14.696 13.1061 15.1647C13.1061 15.6676 12.6863 15.9648 12.1383 15.9648L12.1383 15.9762Z" fill="currentColor"/>
</svg>
