<svg width="24" height="24" viewBox="0 0 24 24" fill="none" xmlns="http://www.w3.org/2000/svg">
<path d="M18.8817 6.59221C18.5317 6.92368 18.52 7.46089 18.8467 7.80378C20.3983 9.40397 21.25 11.4957 21.25 13.7131C21.25 18.4451 17.33 22.2855 12.5 22.2855C7.67 22.2855 3.75 18.4451 3.75 13.7131C3.75 8.98107 7.67 5.14061 12.5 5.14061H14.7633L12.7567 7.10656C12.4183 7.43803 12.4183 7.98666 12.7567 8.31813C12.9317 8.48958 13.1533 8.56959 13.375 8.56959C13.5967 8.56959 13.8183 8.48958 13.9933 8.31813L17.4933 4.88915C17.8317 4.55768 17.8317 4.00905 17.4933 3.67758L13.9933 0.248601C13.655 -0.082867 13.095 -0.082867 12.7567 0.248601C12.4183 0.580069 12.4183 1.12871 12.7567 1.46017L14.7633 3.42612H12.5C6.71333 3.42612 2 8.04382 2 13.7131C2 19.3823 6.71333 24 12.5 24C18.2867 24 23 19.3823 23 13.7131C23 11.0613 21.9733 8.54673 20.1067 6.6265C19.7683 6.2836 19.22 6.27217 18.87 6.59221H18.8817Z" fill="currentColor"/>
<path d="M12.145 15.9762C11.48 15.9762 10.7917 15.7704 10.2667 15.4047H10.2433V17.0049C10.605 17.2335 11.41 17.5535 12.18 17.5535C13.7783 17.5535 14.9217 16.582 14.9217 15.199C14.9217 13.9417 13.8367 13.0501 12.565 13.0501C12.3783 13.0501 12.215 13.073 12.04 13.1073L12.1333 12.2386H14.49V10.6498H10.6517L10.2433 14.7875H10.2667C10.885 14.4789 11.4917 14.3646 12.0517 14.3646C12.74 14.3646 13.1133 14.696 13.1133 15.1647C13.1133 15.6676 12.6933 15.9648 12.145 15.9648L12.145 15.9762Z" fill="currentColor"/>
</svg>
