<svg width="24" height="24" viewBox="0 0 24 24" fill="none" xmlns="http://www.w3.org/2000/svg">
<path d="M12 0C5.3833 0 0 5.38338 0 12.0005C0 18.6173 5.3833 24 12 24C18.6167 24 24 18.6173 24 12.0005C24 5.38338 18.6167 0 12 0ZM12 22.2861C6.32849 22.2861 1.7146 17.6718 1.7146 12.0005C1.7146 6.32895 6.32849 1.71463 12 1.71463C17.6719 1.71463 22.2861 6.32895 22.2861 12.0005C22.2861 17.6718 17.6719 22.2861 12 22.2861Z" fill="#FF4800"/>
<path d="M16.7197 11.3201L9.86206 7.29357C9.59766 7.13866 9.26917 7.13646 9.0022 7.28881C8.7356 7.44152 8.5708 7.7257 8.5708 8.03296V15.9681C8.5708 16.2736 8.7334 16.5555 8.99744 16.7094C9.13037 16.787 9.27942 16.8251 9.4281 16.8251C9.57458 16.8251 9.72107 16.7877 9.85254 16.713L16.7102 12.8044C16.9761 12.6528 17.1409 12.3712 17.1423 12.065C17.1445 11.7592 16.9834 11.475 16.7197 11.3201Z" fill="#FF4800"/>
</svg>
