<svg width="24" height="24" viewBox="0 0 24 24" fill="none" xmlns="http://www.w3.org/2000/svg">
<path d="M1.87953 17.4992H6.57037L15.5064 22.8778C15.6471 22.9633 15.7996 23 15.952 23C16.1045 23 16.2569 22.9633 16.3977 22.8778C16.6674 22.7188 16.8433 22.4133 16.8433 22.0832V1.91374C16.8433 1.58369 16.6791 1.29032 16.4094 1.11918C16.1397 0.960272 15.8113 0.960272 15.5299 1.11918L6.53518 6.47326L1.87953 6.49771C1.39872 6.49771 1 6.91332 1 7.4145V16.5824C1 16.8269 1.09382 17.0592 1.258 17.2303C1.42217 17.4014 1.64499 17.4992 1.87953 17.4992ZM2.75906 8.3313L6.76973 8.30685C6.92218 8.30685 7.0629 8.27018 7.20363 8.18461L15.0842 3.49062V20.4941L7.26226 15.7879C7.13327 15.7023 6.98081 15.6656 6.81663 15.6656H2.77079V8.33129L2.75906 8.3313Z" fill="#FF4800"/>
<path d="M7.15672 12.9153V11.0817C7.15672 10.5805 6.758 10.1649 6.27719 10.1649C5.79638 10.1649 5.39766 10.5805 5.39766 11.0817V12.9153C5.39766 13.4164 5.79638 13.8321 6.27719 13.8321C6.758 13.8321 7.15672 13.4164 7.15672 12.9153Z" fill="#FF4800"/>
<path d="M19.3294 14.3332C18.8486 14.4188 18.532 14.8955 18.6023 15.3845C18.6727 15.8368 19.048 16.1546 19.4702 16.1546C19.5171 16.1546 19.564 16.1546 19.6226 16.1424C21.581 15.8001 23 14.0521 23 11.9985C23 9.94485 21.581 8.19683 19.6226 7.85456C19.1535 7.78122 18.6844 8.11126 18.6141 8.61245C18.5437 9.11363 18.8603 9.59036 19.3412 9.6637C20.4435 9.85928 21.2409 10.8372 21.2409 11.9985C21.2409 13.1597 20.4435 14.1499 19.3412 14.3332L19.3294 14.3332Z" fill="#FF4800"/>
</svg>
