<svg width="24" height="24" viewBox="0 0 24 24" fill="none" xmlns="http://www.w3.org/2000/svg">
<path d="M2.56617 1.33155C2.21064 0.977128 1.62218 0.977128 1.26665 1.33155C0.911117 1.68597 0.911117 2.27259 1.26665 2.62701L21.4338 22.7311C21.6177 22.9145 21.8507 23 22.0836 23C22.3165 23 22.5495 22.9145 22.7334 22.7311C23.0889 22.3767 23.0889 21.7901 22.7334 21.4357L2.56617 1.33155Z" fill="#FF4800"/>
<path d="M18.4057 14.7506C18.9083 14.7506 19.3252 14.3351 19.3252 13.834V1.91817C19.3252 1.5882 19.1535 1.29488 18.8715 1.12378C18.5896 0.964906 18.234 0.952685 17.9521 1.12378L11.1725 4.98573C10.7311 5.24238 10.584 5.79234 10.8292 6.23231C11.0867 6.67228 11.6383 6.81893 12.0797 6.57451L17.4862 3.49473V13.834C17.4862 14.3351 17.903 14.7506 18.4057 14.7506Z" fill="#FF4800"/>
<path d="M3.69406 8.33438C3.19142 8.33438 2.77459 8.74991 2.77459 9.25098V16.5838C2.77459 16.8282 2.87267 17.0604 3.0443 17.2315C3.21594 17.4026 3.44887 17.5004 3.69406 17.5004H8.59794L14.5561 20.9224C14.7033 21.0079 14.8626 21.0446 15.0098 21.0446C15.3285 21.0446 15.635 20.8857 15.8066 20.5802C16.0641 20.1402 15.9047 19.578 15.4756 19.3336L9.309 15.7894C9.17414 15.7039 9.01477 15.6672 8.84313 15.6672H4.61354V9.25098C4.61354 8.74991 4.19671 8.33438 3.69406 8.33438Z" fill="#FF4800"/>
</svg>
