<svg width="528" height="76" viewBox="0 0 528 76" fill="none" xmlns="http://www.w3.org/2000/svg">
<rect x="0.5" y="0.5" width="527" height="75" rx="4.5" stroke="#9747FF" stroke-dasharray="10 5"/>
<rect x="186" y="20" width="146" height="36" rx="18" fill="#042729"/>
<path d="M211.412 32.8H212.916V42.56H218.244V44H211.412V32.8ZM223.515 44.16C222.672 44.16 221.915 43.9627 221.243 43.568C220.571 43.1733 220.043 42.64 219.659 41.968C219.286 41.2853 219.099 40.5387 219.099 39.728C219.099 38.9173 219.286 38.176 219.659 37.504C220.043 36.8213 220.571 36.2827 221.243 35.888C221.915 35.4827 222.672 35.28 223.515 35.28C224.358 35.28 225.115 35.4827 225.787 35.888C226.459 36.2827 226.982 36.8213 227.355 37.504C227.739 38.176 227.931 38.9173 227.931 39.728C227.931 40.5387 227.739 41.2853 227.355 41.968C226.982 42.64 226.459 43.1733 225.787 43.568C225.115 43.9627 224.358 44.16 223.515 44.16ZM223.515 42.816C224.059 42.816 224.555 42.6773 225.003 42.4C225.462 42.1227 225.819 41.7493 226.075 41.28C226.331 40.8 226.459 40.2827 226.459 39.728C226.459 39.1733 226.331 38.656 226.075 38.176C225.819 37.696 225.462 37.3173 225.003 37.04C224.555 36.7627 224.059 36.624 223.515 36.624C222.971 36.624 222.47 36.7627 222.011 37.04C221.563 37.3173 221.211 37.696 220.955 38.176C220.699 38.656 220.571 39.1733 220.571 39.728C220.571 40.2827 220.699 40.8 220.955 41.28C221.211 41.7493 221.563 42.1227 222.011 42.4C222.47 42.6773 222.971 42.816 223.515 42.816ZM229.676 35.44H231.116V36.768C231.383 36.288 231.735 35.92 232.172 35.664C232.62 35.408 233.058 35.28 233.484 35.28C233.783 35.28 234.05 35.328 234.284 35.424V36.88C233.964 36.752 233.628 36.688 233.276 36.688C232.647 36.688 232.13 36.944 231.724 37.456C231.319 37.9573 231.116 38.6027 231.116 39.392V44H229.676V35.44ZM239.755 44.16C238.891 44.16 238.102 43.9787 237.387 43.616C236.683 43.2533 236.123 42.7413 235.707 42.08C235.302 41.408 235.099 40.6293 235.099 39.744C235.099 38.8907 235.286 38.1227 235.659 37.44C236.032 36.7573 236.539 36.2293 237.179 35.856C237.819 35.472 238.523 35.28 239.291 35.28C240.038 35.28 240.694 35.456 241.259 35.808C241.835 36.1493 242.278 36.6347 242.587 37.264C242.907 37.8933 243.067 38.624 243.067 39.456C243.067 39.6907 243.051 39.9147 243.019 40.128H236.587C236.672 40.9173 237.008 41.5627 237.595 42.064C238.192 42.5653 238.912 42.816 239.755 42.816C240.235 42.816 240.694 42.752 241.131 42.624C241.579 42.496 242.043 42.3093 242.523 42.064V43.472C242.16 43.696 241.734 43.8667 241.243 43.984C240.752 44.1013 240.256 44.16 239.755 44.16ZM241.579 38.912C241.568 38.4853 241.462 38.0907 241.259 37.728C241.056 37.3653 240.779 37.0827 240.427 36.88C240.086 36.6667 239.707 36.56 239.291 36.56C238.619 36.56 238.043 36.768 237.563 37.184C237.094 37.6 236.79 38.176 236.651 38.912H241.579ZM244.832 35.44H246.272V36.576C246.88 35.712 247.723 35.28 248.8 35.28C249.419 35.28 249.947 35.4187 250.384 35.696C250.822 35.9627 251.142 36.3467 251.344 36.848C251.664 36.336 252.08 35.9467 252.592 35.68C253.104 35.4133 253.648 35.28 254.224 35.28C255.11 35.28 255.808 35.5627 256.32 36.128C256.832 36.6827 257.088 37.4453 257.088 38.416V44H255.648V38.832C255.648 38.096 255.494 37.5467 255.184 37.184C254.886 36.8213 254.454 36.64 253.888 36.64C253.515 36.64 253.158 36.7413 252.816 36.944C252.475 37.1467 252.198 37.424 251.984 37.776C251.782 38.1173 251.68 38.496 251.68 38.912V44H250.24V38.832C250.24 38.096 250.086 37.5467 249.776 37.184C249.478 36.8213 249.04 36.64 248.464 36.64C248.091 36.64 247.734 36.7413 247.392 36.944C247.051 37.136 246.779 37.408 246.576 37.76C246.374 38.112 246.272 38.496 246.272 38.912V44H244.832V35.44ZM263.6 32.8H265.104V44H263.6V32.8ZM267.551 35.44H268.991V36.704C269.269 36.256 269.669 35.9093 270.191 35.664C270.714 35.408 271.285 35.28 271.903 35.28C272.661 35.28 273.359 35.472 273.999 35.856C274.65 36.2293 275.167 36.7573 275.551 37.44C275.935 38.1227 276.127 38.8853 276.127 39.728C276.127 40.5707 275.935 41.3333 275.551 42.016C275.167 42.688 274.65 43.216 273.999 43.6C273.359 43.9733 272.661 44.16 271.903 44.16C271.285 44.16 270.714 44.0373 270.191 43.792C269.669 43.536 269.269 43.184 268.991 42.736V47.52H267.551V35.44ZM271.775 42.816C272.309 42.816 272.794 42.6773 273.231 42.4C273.679 42.1227 274.026 41.7493 274.271 41.28C274.527 40.8 274.655 40.2773 274.655 39.712C274.655 39.1467 274.527 38.6293 274.271 38.16C274.026 37.68 273.679 37.3067 273.231 37.04C272.794 36.7627 272.309 36.624 271.775 36.624C271.231 36.624 270.741 36.7627 270.303 37.04C269.877 37.3067 269.535 37.68 269.279 38.16C269.034 38.6293 268.911 39.1467 268.911 39.712C268.911 40.2773 269.034 40.8 269.279 41.28C269.535 41.7493 269.877 42.1227 270.303 42.4C270.741 42.6773 271.231 42.816 271.775 42.816ZM280.12 44.16C279.522 44.16 279 44.0853 278.552 43.936C278.114 43.7867 277.698 43.584 277.304 43.328V41.792C277.645 42.0587 278.061 42.304 278.552 42.528C279.053 42.7413 279.565 42.848 280.088 42.848C280.61 42.848 281.042 42.7413 281.384 42.528C281.725 42.304 281.896 42.0107 281.896 41.648C281.896 41.0613 281.501 40.6613 280.712 40.448L279.464 40.128C278.728 39.936 278.178 39.648 277.816 39.264C277.464 38.88 277.288 38.3787 277.288 37.76C277.288 37.248 277.421 36.8053 277.688 36.432C277.965 36.0587 278.333 35.776 278.792 35.584C279.25 35.3813 279.741 35.28 280.264 35.28C280.722 35.28 281.181 35.3493 281.64 35.488C282.109 35.6267 282.536 35.808 282.92 36.032V37.504C282.504 37.2053 282.072 36.976 281.624 36.816C281.176 36.656 280.738 36.576 280.312 36.576C279.832 36.576 279.442 36.6827 279.144 36.896C278.856 37.0987 278.712 37.3707 278.712 37.712C278.712 38.2667 279.128 38.656 279.96 38.88L281.144 39.184C282.605 39.5573 283.336 40.352 283.336 41.568C283.336 42.0907 283.192 42.5493 282.904 42.944C282.626 43.328 282.242 43.6267 281.752 43.84C281.272 44.0533 280.728 44.16 280.12 44.16ZM288.073 44.16C287.433 44.16 286.884 44.016 286.425 43.728C285.967 43.44 285.62 43.0453 285.385 42.544C285.151 42.0427 285.033 41.4827 285.033 40.864V35.44H286.473V40.512C286.473 42.0373 287.119 42.8 288.409 42.8C288.815 42.8 289.193 42.6987 289.545 42.496C289.897 42.2933 290.175 42.0107 290.377 41.648C290.591 41.2747 290.697 40.8533 290.697 40.384V35.44H292.137V44H290.697V42.864C290.388 43.2907 290.004 43.616 289.545 43.84C289.097 44.0533 288.607 44.16 288.073 44.16ZM294.504 35.44H295.944V36.576C296.552 35.712 297.395 35.28 298.472 35.28C299.091 35.28 299.619 35.4187 300.056 35.696C300.494 35.9627 300.814 36.3467 301.016 36.848C301.336 36.336 301.752 35.9467 302.264 35.68C302.776 35.4133 303.32 35.28 303.896 35.28C304.782 35.28 305.48 35.5627 305.992 36.128C306.504 36.6827 306.76 37.4453 306.76 38.416V44H305.32V38.832C305.32 38.096 305.166 37.5467 304.856 37.184C304.558 36.8213 304.126 36.64 303.56 36.64C303.187 36.64 302.83 36.7413 302.488 36.944C302.147 37.1467 301.87 37.424 301.656 37.776C301.454 38.1173 301.352 38.496 301.352 38.912V44H299.912V38.832C299.912 38.096 299.758 37.5467 299.448 37.184C299.15 36.8213 298.712 36.64 298.136 36.64C297.763 36.64 297.406 36.7413 297.064 36.944C296.723 37.136 296.451 37.408 296.248 37.76C296.046 38.112 295.944 38.496 295.944 38.912V44H294.504V35.44Z" fill="#F8F5EE"/>
<rect x="20.5" y="20.5" width="145" height="35" rx="17.5" fill="#F8F5EE"/>
<rect x="20.5" y="20.5" width="145" height="35" rx="17.5" stroke="#042729"/>
<path d="M45.4124 44V32.8H46.9164V42.56H52.2444V44H45.4124ZM57.5151 44.16C54.9391 44.16 53.0991 42.176 53.0991 39.728C53.0991 37.28 54.9391 35.28 57.5151 35.28C60.0911 35.28 61.9311 37.28 61.9311 39.728C61.9311 42.176 60.0911 44.16 57.5151 44.16ZM57.5151 42.816C59.1951 42.816 60.4591 41.424 60.4591 39.728C60.4591 38.032 59.1951 36.624 57.5151 36.624C55.8351 36.624 54.5711 38.032 54.5711 39.728C54.5711 41.424 55.8351 42.816 57.5151 42.816ZM63.6762 44V35.44H65.1162V36.768C65.6762 35.744 66.7162 35.28 67.4842 35.28C67.8042 35.28 68.0922 35.344 68.2842 35.424V36.88C67.9642 36.752 67.6122 36.688 67.2762 36.688C66.0122 36.688 65.1162 37.808 65.1162 39.392V44H63.6762ZM73.7551 44.16C71.1791 44.16 69.0991 42.464 69.0991 39.744C69.0991 37.12 70.9871 35.28 73.2911 35.28C75.5471 35.28 77.0671 36.928 77.0671 39.456C77.0671 39.68 77.0511 39.92 77.0191 40.128H70.5871C70.7631 41.712 72.0591 42.816 73.7551 42.816C74.7951 42.816 75.6591 42.496 76.5231 42.064V43.472C75.7711 43.936 74.7151 44.16 73.7551 44.16ZM70.6511 38.912H75.5791C75.5471 37.6 74.5551 36.56 73.2911 36.56C71.9631 36.56 70.9231 37.408 70.6511 38.912ZM78.8324 44V35.44H80.2724V36.576C80.8964 35.696 81.7764 35.28 82.8004 35.28C84.0644 35.28 84.9444 35.872 85.3444 36.848C86.0004 35.792 87.1204 35.28 88.2244 35.28C89.9844 35.28 91.0884 36.464 91.0884 38.416V44H89.6484V38.832C89.6484 37.344 89.0084 36.64 87.8884 36.64C86.7524 36.64 85.6804 37.616 85.6804 38.912V44H84.2404V38.832C84.2404 37.344 83.5844 36.64 82.4644 36.64C81.3284 36.64 80.2724 37.616 80.2724 38.912V44H78.8324ZM97.5999 44V32.8H99.1039V44H97.5999ZM101.551 47.52V35.44H102.991V36.704C103.551 35.808 104.671 35.28 105.903 35.28C108.191 35.28 110.127 37.12 110.127 39.728C110.127 42.336 108.191 44.16 105.903 44.16C104.671 44.16 103.551 43.632 102.991 42.736V47.52H101.551ZM105.775 42.816C107.407 42.816 108.655 41.44 108.655 39.712C108.655 37.984 107.407 36.624 105.775 36.624C104.127 36.624 102.911 37.984 102.911 39.712C102.911 41.44 104.127 42.816 105.775 42.816ZM114.12 44.16C112.808 44.16 111.976 43.776 111.304 43.328V41.792C111.816 42.192 112.904 42.848 114.088 42.848C115.112 42.848 115.896 42.384 115.896 41.648C115.896 41.04 115.496 40.656 114.712 40.448L113.464 40.128C111.992 39.744 111.288 39.008 111.288 37.76C111.288 36.176 112.712 35.28 114.264 35.28C115.24 35.28 116.2 35.616 116.92 36.032V37.504C116.088 36.912 115.16 36.576 114.312 36.576C113.368 36.576 112.712 37.024 112.712 37.712C112.712 38.224 113.048 38.64 113.96 38.88L115.144 39.184C116.584 39.552 117.336 40.352 117.336 41.568C117.336 43.168 115.928 44.16 114.12 44.16ZM122.073 44.16C120.105 44.16 119.033 42.688 119.033 40.864V35.44H120.473V40.512C120.473 42.128 121.209 42.8 122.409 42.8C123.625 42.8 124.697 41.824 124.697 40.384V35.44H126.137V44H124.697V42.864C124.073 43.712 123.145 44.16 122.073 44.16ZM128.504 44V35.44H129.944V36.576C130.568 35.696 131.448 35.28 132.472 35.28C133.736 35.28 134.616 35.872 135.016 36.848C135.672 35.792 136.792 35.28 137.896 35.28C139.656 35.28 140.76 36.464 140.76 38.416V44H139.32V38.832C139.32 37.344 138.68 36.64 137.56 36.64C136.424 36.64 135.352 37.616 135.352 38.912V44H133.912V38.832C133.912 37.344 133.256 36.64 132.136 36.64C131 36.64 129.944 37.616 129.944 38.912V44H128.504Z" fill="#042729"/>
<rect x="352.5" y="20.5" width="145" height="35" rx="17.5" stroke="#9F9F9F"/>
<path d="M377.412 44V32.8H378.916V42.56H384.244V44H377.412ZM389.515 44.16C386.939 44.16 385.099 42.176 385.099 39.728C385.099 37.28 386.939 35.28 389.515 35.28C392.091 35.28 393.931 37.28 393.931 39.728C393.931 42.176 392.091 44.16 389.515 44.16ZM389.515 42.816C391.195 42.816 392.459 41.424 392.459 39.728C392.459 38.032 391.195 36.624 389.515 36.624C387.835 36.624 386.571 38.032 386.571 39.728C386.571 41.424 387.835 42.816 389.515 42.816ZM395.676 44V35.44H397.116V36.768C397.676 35.744 398.716 35.28 399.484 35.28C399.804 35.28 400.092 35.344 400.284 35.424V36.88C399.964 36.752 399.612 36.688 399.276 36.688C398.012 36.688 397.116 37.808 397.116 39.392V44H395.676ZM405.755 44.16C403.179 44.16 401.099 42.464 401.099 39.744C401.099 37.12 402.987 35.28 405.291 35.28C407.547 35.28 409.067 36.928 409.067 39.456C409.067 39.68 409.051 39.92 409.019 40.128H402.587C402.763 41.712 404.059 42.816 405.755 42.816C406.795 42.816 407.659 42.496 408.523 42.064V43.472C407.771 43.936 406.715 44.16 405.755 44.16ZM402.651 38.912H407.579C407.547 37.6 406.555 36.56 405.291 36.56C403.963 36.56 402.923 37.408 402.651 38.912ZM410.832 44V35.44H412.272V36.576C412.896 35.696 413.776 35.28 414.8 35.28C416.064 35.28 416.944 35.872 417.344 36.848C418 35.792 419.12 35.28 420.224 35.28C421.984 35.28 423.088 36.464 423.088 38.416V44H421.648V38.832C421.648 37.344 421.008 36.64 419.888 36.64C418.752 36.64 417.68 37.616 417.68 38.912V44H416.24V38.832C416.24 37.344 415.584 36.64 414.464 36.64C413.328 36.64 412.272 37.616 412.272 38.912V44H410.832ZM429.6 44V32.8H431.104V44H429.6ZM433.551 47.52V35.44H434.991V36.704C435.551 35.808 436.671 35.28 437.903 35.28C440.191 35.28 442.127 37.12 442.127 39.728C442.127 42.336 440.191 44.16 437.903 44.16C436.671 44.16 435.551 43.632 434.991 42.736V47.52H433.551ZM437.775 42.816C439.407 42.816 440.655 41.44 440.655 39.712C440.655 37.984 439.407 36.624 437.775 36.624C436.127 36.624 434.911 37.984 434.911 39.712C434.911 41.44 436.127 42.816 437.775 42.816ZM446.12 44.16C444.808 44.16 443.976 43.776 443.304 43.328V41.792C443.816 42.192 444.904 42.848 446.088 42.848C447.112 42.848 447.896 42.384 447.896 41.648C447.896 41.04 447.496 40.656 446.712 40.448L445.464 40.128C443.992 39.744 443.288 39.008 443.288 37.76C443.288 36.176 444.712 35.28 446.264 35.28C447.24 35.28 448.2 35.616 448.92 36.032V37.504C448.088 36.912 447.16 36.576 446.312 36.576C445.368 36.576 444.712 37.024 444.712 37.712C444.712 38.224 445.048 38.64 445.96 38.88L447.144 39.184C448.584 39.552 449.336 40.352 449.336 41.568C449.336 43.168 447.928 44.16 446.12 44.16ZM454.073 44.16C452.105 44.16 451.033 42.688 451.033 40.864V35.44H452.473V40.512C452.473 42.128 453.209 42.8 454.409 42.8C455.625 42.8 456.697 41.824 456.697 40.384V35.44H458.137V44H456.697V42.864C456.073 43.712 455.145 44.16 454.073 44.16ZM460.504 44V35.44H461.944V36.576C462.568 35.696 463.448 35.28 464.472 35.28C465.736 35.28 466.616 35.872 467.016 36.848C467.672 35.792 468.792 35.28 469.896 35.28C471.656 35.28 472.76 36.464 472.76 38.416V44H471.32V38.832C471.32 37.344 470.68 36.64 469.56 36.64C468.424 36.64 467.352 37.616 467.352 38.912V44H465.912V38.832C465.912 37.344 465.256 36.64 464.136 36.64C463 36.64 461.944 37.616 461.944 38.912V44H460.504Z" fill="#9F9F9F"/>
</svg>
