<svg width="273" height="126" viewBox="0 0 273 126" fill="none" xmlns="http://www.w3.org/2000/svg">
<rect x="0.5" y="0.5" width="272" height="125" rx="4.5" stroke="#9747FF" stroke-dasharray="10 5"/>
<rect x="20" y="20" width="44" height="44" rx="22" fill="#FF4800"/>
<path d="M39.9289 36.1257C39.5396 35.8857 39.0421 36.0343 38.8258 36.4457L35.1054 43.2914C34.9649 43.5543 34.9649 43.8857 35.1054 44.1486C35.246 44.4114 35.5164 44.5714 35.8084 44.5714H40.3832V53.1429C40.3832 53.5314 40.6319 53.8743 40.9888 53.9657C41.0537 53.9886 41.1294 54 41.1943 54C41.4755 54 41.7458 53.84 41.8973 53.5657L48.8946 40.7086C49.0351 40.4457 49.0351 40.1143 48.8946 39.8514C48.754 39.5886 48.4836 39.4286 48.1916 39.4286H43.6277V30.8571C43.6277 30.3886 43.2599 30 42.8165 30C42.3731 30 42.0054 30.3886 42.0054 30.8571V40.2857C42.0054 40.7543 42.3731 41.1429 42.8165 41.1429H46.7964L42.0162 49.9314V43.7143C42.0162 43.2457 41.6485 42.8571 41.2051 42.8571H37.2252L40.2534 37.2914C40.4805 36.88 40.3399 36.3543 39.9506 36.1257H39.9289Z" fill="#F8F5EE"/>
<path d="M73.264 36.8H74.768V46.56H80.096V48H73.264V36.8ZM85.3666 48.16C84.524 48.16 83.7666 47.9627 83.0946 47.568C82.4226 47.1733 81.8946 46.64 81.5106 45.968C81.1373 45.2853 80.9506 44.5387 80.9506 43.728C80.9506 42.9173 81.1373 42.176 81.5106 41.504C81.8946 40.8213 82.4226 40.2827 83.0946 39.888C83.7666 39.4827 84.524 39.28 85.3666 39.28C86.2093 39.28 86.9666 39.4827 87.6386 39.888C88.3106 40.2827 88.8333 40.8213 89.2066 41.504C89.5906 42.176 89.7826 42.9173 89.7826 43.728C89.7826 44.5387 89.5906 45.2853 89.2066 45.968C88.8333 46.64 88.3106 47.1733 87.6386 47.568C86.9666 47.9627 86.2093 48.16 85.3666 48.16ZM85.3666 46.816C85.9106 46.816 86.4066 46.6773 86.8546 46.4C87.3133 46.1227 87.6706 45.7493 87.9266 45.28C88.1826 44.8 88.3106 44.2827 88.3106 43.728C88.3106 43.1733 88.1826 42.656 87.9266 42.176C87.6706 41.696 87.3133 41.3173 86.8546 41.04C86.4066 40.7627 85.9106 40.624 85.3666 40.624C84.8226 40.624 84.3213 40.7627 83.8626 41.04C83.4146 41.3173 83.0626 41.696 82.8066 42.176C82.5506 42.656 82.4226 43.1733 82.4226 43.728C82.4226 44.2827 82.5506 44.8 82.8066 45.28C83.0626 45.7493 83.4146 46.1227 83.8626 46.4C84.3213 46.6773 84.8226 46.816 85.3666 46.816ZM91.5278 39.44H92.9678V40.768C93.2344 40.288 93.5864 39.92 94.0238 39.664C94.4718 39.408 94.9091 39.28 95.3358 39.28C95.6344 39.28 95.9011 39.328 96.1358 39.424V40.88C95.8158 40.752 95.4798 40.688 95.1278 40.688C94.4984 40.688 93.9811 40.944 93.5758 41.456C93.1704 41.9573 92.9678 42.6027 92.9678 43.392V48H91.5278V39.44ZM101.607 48.16C100.743 48.16 99.9533 47.9787 99.2386 47.616C98.5346 47.2533 97.9746 46.7413 97.5586 46.08C97.1533 45.408 96.9506 44.6293 96.9506 43.744C96.9506 42.8907 97.1373 42.1227 97.5106 41.44C97.884 40.7573 98.3906 40.2293 99.0306 39.856C99.6706 39.472 100.375 39.28 101.143 39.28C101.889 39.28 102.545 39.456 103.111 39.808C103.687 40.1493 104.129 40.6347 104.439 41.264C104.759 41.8933 104.919 42.624 104.919 43.456C104.919 43.6907 104.903 43.9147 104.871 44.128H98.4386C98.524 44.9173 98.86 45.5627 99.4466 46.064C100.044 46.5653 100.764 46.816 101.607 46.816C102.087 46.816 102.545 46.752 102.983 46.624C103.431 46.496 103.895 46.3093 104.375 46.064V47.472C104.012 47.696 103.585 47.8667 103.095 47.984C102.604 48.1013 102.108 48.16 101.607 48.16ZM103.431 42.912C103.42 42.4853 103.313 42.0907 103.111 41.728C102.908 41.3653 102.631 41.0827 102.279 40.88C101.937 40.6667 101.559 40.56 101.143 40.56C100.471 40.56 99.8946 40.768 99.4146 41.184C98.9453 41.6 98.6413 42.176 98.5026 42.912H103.431ZM106.684 39.44H108.124V40.576C108.732 39.712 109.575 39.28 110.652 39.28C111.271 39.28 111.799 39.4187 112.236 39.696C112.673 39.9627 112.993 40.3467 113.196 40.848C113.516 40.336 113.932 39.9467 114.444 39.68C114.956 39.4133 115.5 39.28 116.076 39.28C116.961 39.28 117.66 39.5627 118.172 40.128C118.684 40.6827 118.94 41.4453 118.94 42.416V48H117.5V42.832C117.5 42.096 117.345 41.5467 117.036 41.184C116.737 40.8213 116.305 40.64 115.74 40.64C115.367 40.64 115.009 40.7413 114.668 40.944C114.327 41.1467 114.049 41.424 113.836 41.776C113.633 42.1173 113.532 42.496 113.532 42.912V48H112.092V42.832C112.092 42.096 111.937 41.5467 111.628 41.184C111.329 40.8213 110.892 40.64 110.316 40.64C109.943 40.64 109.585 40.7413 109.244 40.944C108.903 41.136 108.631 41.408 108.428 41.76C108.225 42.112 108.124 42.496 108.124 42.912V48H106.684V39.44ZM133.352 36.8H134.872L129.928 50.384H128.408L133.352 36.8ZM144.402 39.44H145.842V48H144.402V39.44ZM145.122 38.24C144.834 38.24 144.589 38.1387 144.386 37.936C144.183 37.7227 144.082 37.472 144.082 37.184C144.082 36.9067 144.183 36.6667 144.386 36.464C144.589 36.2613 144.834 36.16 145.122 36.16C145.399 36.16 145.639 36.2613 145.842 36.464C146.055 36.6667 146.162 36.9067 146.162 37.184C146.162 37.472 146.055 37.7227 145.842 37.936C145.639 38.1387 145.399 38.24 145.122 38.24ZM148.184 39.44H149.624V40.704C149.901 40.256 150.301 39.9093 150.824 39.664C151.347 39.408 151.917 39.28 152.536 39.28C153.293 39.28 153.992 39.472 154.632 39.856C155.283 40.2293 155.8 40.7573 156.184 41.44C156.568 42.1227 156.76 42.8853 156.76 43.728C156.76 44.5707 156.568 45.3333 156.184 46.016C155.8 46.688 155.283 47.216 154.632 47.6C153.992 47.9733 153.293 48.16 152.536 48.16C151.917 48.16 151.347 48.0373 150.824 47.792C150.301 47.536 149.901 47.184 149.624 46.736V51.52H148.184V39.44ZM152.408 46.816C152.941 46.816 153.427 46.6773 153.864 46.4C154.312 46.1227 154.659 45.7493 154.904 45.28C155.16 44.8 155.288 44.2773 155.288 43.712C155.288 43.1467 155.16 42.6293 154.904 42.16C154.659 41.68 154.312 41.3067 153.864 41.04C153.427 40.7627 152.941 40.624 152.408 40.624C151.864 40.624 151.373 40.7627 150.936 41.04C150.509 41.3067 150.168 41.68 149.912 42.16C149.667 42.6293 149.544 43.1467 149.544 43.712C149.544 44.2773 149.667 44.8 149.912 45.28C150.168 45.7493 150.509 46.1227 150.936 46.4C151.373 46.6773 151.864 46.816 152.408 46.816ZM160.753 48.16C160.155 48.16 159.633 48.0853 159.185 47.936C158.747 47.7867 158.331 47.584 157.937 47.328V45.792C158.278 46.0587 158.694 46.304 159.185 46.528C159.686 46.7413 160.198 46.848 160.721 46.848C161.243 46.848 161.675 46.7413 162.016 46.528C162.358 46.304 162.529 46.0107 162.529 45.648C162.529 45.0613 162.134 44.6613 161.345 44.448L160.097 44.128C159.361 43.936 158.811 43.648 158.449 43.264C158.097 42.88 157.921 42.3787 157.921 41.76C157.921 41.248 158.054 40.8053 158.321 40.432C158.598 40.0587 158.966 39.776 159.424 39.584C159.883 39.3813 160.374 39.28 160.897 39.28C161.355 39.28 161.814 39.3493 162.273 39.488C162.742 39.6267 163.169 39.808 163.553 40.032V41.504C163.137 41.2053 162.705 40.976 162.257 40.816C161.809 40.656 161.371 40.576 160.945 40.576C160.465 40.576 160.075 40.6827 159.777 40.896C159.489 41.0987 159.345 41.3707 159.345 41.712C159.345 42.2667 159.761 42.656 160.593 42.88L161.777 43.184C163.238 43.5573 163.969 44.352 163.969 45.568C163.969 46.0907 163.825 46.5493 163.537 46.944C163.259 47.328 162.875 47.6267 162.385 47.84C161.905 48.0533 161.361 48.16 160.753 48.16ZM168.706 48.16C168.066 48.16 167.517 48.016 167.058 47.728C166.599 47.44 166.253 47.0453 166.018 46.544C165.783 46.0427 165.666 45.4827 165.666 44.864V39.44H167.106V44.512C167.106 46.0373 167.751 46.8 169.042 46.8C169.447 46.8 169.826 46.6987 170.178 46.496C170.53 46.2933 170.807 46.0107 171.01 45.648C171.223 45.2747 171.33 44.8533 171.33 44.384V39.44H172.77V48H171.33V46.864C171.021 47.2907 170.637 47.616 170.178 47.84C169.73 48.0533 169.239 48.16 168.706 48.16ZM175.137 39.44H176.577V40.576C177.185 39.712 178.028 39.28 179.105 39.28C179.724 39.28 180.252 39.4187 180.689 39.696C181.126 39.9627 181.446 40.3467 181.649 40.848C181.969 40.336 182.385 39.9467 182.897 39.68C183.409 39.4133 183.953 39.28 184.529 39.28C185.414 39.28 186.113 39.5627 186.625 40.128C187.137 40.6827 187.393 41.4453 187.393 42.416V48H185.953V42.832C185.953 42.096 185.798 41.5467 185.489 41.184C185.19 40.8213 184.758 40.64 184.193 40.64C183.82 40.64 183.462 40.7413 183.121 40.944C182.78 41.1467 182.502 41.424 182.289 41.776C182.086 42.1173 181.985 42.496 181.985 42.912V48H180.545V42.832C180.545 42.096 180.39 41.5467 180.081 41.184C179.782 40.8213 179.345 40.64 178.769 40.64C178.396 40.64 178.038 40.7413 177.697 40.944C177.356 41.136 177.084 41.408 176.881 41.76C176.678 42.112 176.577 42.496 176.577 42.912V48H175.137V39.44ZM201.805 36.8H203.325L198.381 50.384H196.861L201.805 36.8ZM216.487 48.16C215.73 48.16 215.026 47.9733 214.375 47.6C213.735 47.216 213.223 46.6827 212.839 46C212.455 45.3173 212.263 44.5547 212.263 43.712C212.263 42.8693 212.455 42.112 212.839 41.44C213.223 40.7573 213.735 40.2293 214.375 39.856C215.026 39.472 215.73 39.28 216.487 39.28C217.106 39.28 217.676 39.408 218.199 39.664C218.722 39.9093 219.122 40.256 219.399 40.704V36.32H220.839V48H219.399V46.736C219.122 47.184 218.722 47.536 218.199 47.792C217.676 48.0373 217.106 48.16 216.487 48.16ZM216.615 46.816C217.159 46.816 217.644 46.6827 218.071 46.416C218.508 46.1387 218.85 45.7653 219.095 45.296C219.351 44.816 219.479 44.2933 219.479 43.728C219.479 43.1627 219.351 42.6453 219.095 42.176C218.85 41.696 218.508 41.3173 218.071 41.04C217.644 40.7627 217.159 40.624 216.615 40.624C216.082 40.624 215.591 40.7627 215.143 41.04C214.706 41.3173 214.359 41.696 214.103 42.176C213.858 42.6453 213.735 43.1627 213.735 43.728C213.735 44.2933 213.858 44.816 214.103 45.296C214.359 45.7653 214.706 46.1387 215.143 46.416C215.591 46.6827 216.082 46.816 216.615 46.816ZM226.898 48.16C226.055 48.16 225.298 47.9627 224.626 47.568C223.954 47.1733 223.426 46.64 223.042 45.968C222.669 45.2853 222.482 44.5387 222.482 43.728C222.482 42.9173 222.669 42.176 223.042 41.504C223.426 40.8213 223.954 40.2827 224.626 39.888C225.298 39.4827 226.055 39.28 226.898 39.28C227.741 39.28 228.498 39.4827 229.17 39.888C229.842 40.2827 230.365 40.8213 230.738 41.504C231.122 42.176 231.314 42.9173 231.314 43.728C231.314 44.5387 231.122 45.2853 230.738 45.968C230.365 46.64 229.842 47.1733 229.17 47.568C228.498 47.9627 227.741 48.16 226.898 48.16ZM226.898 46.816C227.442 46.816 227.938 46.6773 228.386 46.4C228.845 46.1227 229.202 45.7493 229.458 45.28C229.714 44.8 229.842 44.2827 229.842 43.728C229.842 43.1733 229.714 42.656 229.458 42.176C229.202 41.696 228.845 41.3173 228.386 41.04C227.938 40.7627 227.442 40.624 226.898 40.624C226.354 40.624 225.853 40.7627 225.394 41.04C224.946 41.3173 224.594 41.696 224.338 42.176C224.082 42.656 223.954 43.1733 223.954 43.728C223.954 44.2827 224.082 44.8 224.338 45.28C224.594 45.7493 224.946 46.1227 225.394 46.4C225.853 46.6773 226.354 46.816 226.898 46.816ZM235.011 48.16C234.392 48.16 233.912 47.9627 233.571 47.568C233.23 47.1627 233.059 46.64 233.059 46V36.32H234.499V45.76C234.499 46.4533 234.798 46.8 235.395 46.8C235.566 46.8 235.736 46.768 235.907 46.704V48.048C235.651 48.1227 235.352 48.16 235.011 48.16ZM241.21 48.16C240.368 48.16 239.61 47.9627 238.938 47.568C238.266 47.1733 237.738 46.64 237.354 45.968C236.981 45.2853 236.794 44.5387 236.794 43.728C236.794 42.9173 236.981 42.176 237.354 41.504C237.738 40.8213 238.266 40.2827 238.938 39.888C239.61 39.4827 240.368 39.28 241.21 39.28C242.053 39.28 242.81 39.4827 243.482 39.888C244.154 40.2827 244.677 40.8213 245.05 41.504C245.434 42.176 245.626 42.9173 245.626 43.728C245.626 44.5387 245.434 45.2853 245.05 45.968C244.677 46.64 244.154 47.1733 243.482 47.568C242.81 47.9627 242.053 48.16 241.21 48.16ZM241.21 46.816C241.754 46.816 242.25 46.6773 242.698 46.4C243.157 46.1227 243.514 45.7493 243.77 45.28C244.026 44.8 244.154 44.2827 244.154 43.728C244.154 43.1733 244.026 42.656 243.77 42.176C243.514 41.696 243.157 41.3173 242.698 41.04C242.25 40.7627 241.754 40.624 241.21 40.624C240.666 40.624 240.165 40.7627 239.706 41.04C239.258 41.3173 238.906 41.696 238.65 42.176C238.394 42.656 238.266 43.1733 238.266 43.728C238.266 44.2827 238.394 44.8 238.65 45.28C238.906 45.7493 239.258 46.1227 239.706 46.4C240.165 46.6773 240.666 46.816 241.21 46.816ZM247.372 39.44H248.812V40.768C249.078 40.288 249.43 39.92 249.868 39.664C250.316 39.408 250.753 39.28 251.18 39.28C251.478 39.28 251.745 39.328 251.98 39.424V40.88C251.66 40.752 251.324 40.688 250.972 40.688C250.342 40.688 249.825 40.944 249.42 41.456C249.014 41.9573 248.812 42.6027 248.812 43.392V48H247.372V39.44Z" fill="#042729"/>
<circle cx="24" cy="95" r="4" fill="#FF4800"/>
<path d="M37.264 89.8H38.768V99.56H44.096V101H37.264V89.8ZM49.3666 101.16C48.524 101.16 47.7666 100.963 47.0946 100.568C46.4226 100.173 45.8946 99.64 45.5106 98.968C45.1373 98.2853 44.9506 97.5387 44.9506 96.728C44.9506 95.9173 45.1373 95.176 45.5106 94.504C45.8946 93.8213 46.4226 93.2827 47.0946 92.888C47.7666 92.4827 48.524 92.28 49.3666 92.28C50.2093 92.28 50.9666 92.4827 51.6386 92.888C52.3106 93.2827 52.8333 93.8213 53.2066 94.504C53.5906 95.176 53.7826 95.9173 53.7826 96.728C53.7826 97.5387 53.5906 98.2853 53.2066 98.968C52.8333 99.64 52.3106 100.173 51.6386 100.568C50.9666 100.963 50.2093 101.16 49.3666 101.16ZM49.3666 99.816C49.9106 99.816 50.4066 99.6773 50.8546 99.4C51.3133 99.1227 51.6706 98.7493 51.9266 98.28C52.1826 97.8 52.3106 97.2827 52.3106 96.728C52.3106 96.1733 52.1826 95.656 51.9266 95.176C51.6706 94.696 51.3133 94.3173 50.8546 94.04C50.4066 93.7627 49.9106 93.624 49.3666 93.624C48.8226 93.624 48.3213 93.7627 47.8626 94.04C47.4146 94.3173 47.0626 94.696 46.8066 95.176C46.5506 95.656 46.4226 96.1733 46.4226 96.728C46.4226 97.2827 46.5506 97.8 46.8066 98.28C47.0626 98.7493 47.4146 99.1227 47.8626 99.4C48.3213 99.6773 48.8226 99.816 49.3666 99.816ZM55.5278 92.44H56.9678V93.768C57.2344 93.288 57.5864 92.92 58.0238 92.664C58.4718 92.408 58.9091 92.28 59.3358 92.28C59.6344 92.28 59.9011 92.328 60.1358 92.424V93.88C59.8158 93.752 59.4798 93.688 59.1278 93.688C58.4984 93.688 57.9811 93.944 57.5758 94.456C57.1704 94.9573 56.9678 95.6027 56.9678 96.392V101H55.5278V92.44ZM65.6066 101.16C64.7426 101.16 63.9533 100.979 63.2386 100.616C62.5346 100.253 61.9746 99.7413 61.5586 99.08C61.1533 98.408 60.9506 97.6293 60.9506 96.744C60.9506 95.8907 61.1373 95.1227 61.5106 94.44C61.884 93.7573 62.3906 93.2293 63.0306 92.856C63.6706 92.472 64.3746 92.28 65.1426 92.28C65.8893 92.28 66.5453 92.456 67.1106 92.808C67.6866 93.1493 68.1293 93.6347 68.4386 94.264C68.7586 94.8933 68.9186 95.624 68.9186 96.456C68.9186 96.6907 68.9026 96.9147 68.8706 97.128H62.4386C62.524 97.9173 62.86 98.5627 63.4466 99.064C64.044 99.5653 64.764 99.816 65.6066 99.816C66.0866 99.816 66.5453 99.752 66.9826 99.624C67.4306 99.496 67.8946 99.3093 68.3746 99.064V100.472C68.012 100.696 67.5853 100.867 67.0946 100.984C66.604 101.101 66.108 101.16 65.6066 101.16ZM67.4306 95.912C67.42 95.4853 67.3133 95.0907 67.1106 94.728C66.908 94.3653 66.6306 94.0827 66.2786 93.88C65.9373 93.6667 65.5586 93.56 65.1426 93.56C64.4706 93.56 63.8946 93.768 63.4146 94.184C62.9453 94.6 62.6413 95.176 62.5026 95.912H67.4306ZM70.684 92.44H72.124V93.576C72.732 92.712 73.5747 92.28 74.652 92.28C75.2707 92.28 75.7987 92.4187 76.236 92.696C76.6733 92.9627 76.9933 93.3467 77.196 93.848C77.516 93.336 77.932 92.9467 78.444 92.68C78.956 92.4133 79.5 92.28 80.076 92.28C80.9613 92.28 81.66 92.5627 82.172 93.128C82.684 93.6827 82.94 94.4453 82.94 95.416V101H81.5V95.832C81.5 95.096 81.3453 94.5467 81.036 94.184C80.7373 93.8213 80.3053 93.64 79.74 93.64C79.3667 93.64 79.0093 93.7413 78.668 93.944C78.3267 94.1467 78.0493 94.424 77.836 94.776C77.6333 95.1173 77.532 95.496 77.532 95.912V101H76.092V95.832C76.092 95.096 75.9373 94.5467 75.628 94.184C75.3293 93.8213 74.892 93.64 74.316 93.64C73.9427 93.64 73.5853 93.7413 73.244 93.944C72.9027 94.136 72.6307 94.408 72.428 94.76C72.2253 95.112 72.124 95.496 72.124 95.912V101H70.684V92.44ZM97.3518 89.8H98.8718L93.9278 103.384H92.4078L97.3518 89.8ZM108.402 92.44H109.842V101H108.402V92.44ZM109.122 91.24C108.834 91.24 108.589 91.1387 108.386 90.936C108.183 90.7227 108.082 90.472 108.082 90.184C108.082 89.9067 108.183 89.6667 108.386 89.464C108.589 89.2613 108.834 89.16 109.122 89.16C109.399 89.16 109.639 89.2613 109.842 89.464C110.055 89.6667 110.162 89.9067 110.162 90.184C110.162 90.472 110.055 90.7227 109.842 90.936C109.639 91.1387 109.399 91.24 109.122 91.24ZM112.184 92.44H113.624V93.704C113.901 93.256 114.301 92.9093 114.824 92.664C115.347 92.408 115.917 92.28 116.536 92.28C117.293 92.28 117.992 92.472 118.632 92.856C119.283 93.2293 119.8 93.7573 120.184 94.44C120.568 95.1227 120.76 95.8853 120.76 96.728C120.76 97.5707 120.568 98.3333 120.184 99.016C119.8 99.688 119.283 100.216 118.632 100.6C117.992 100.973 117.293 101.16 116.536 101.16C115.917 101.16 115.347 101.037 114.824 100.792C114.301 100.536 113.901 100.184 113.624 99.736V104.52H112.184V92.44ZM116.408 99.816C116.941 99.816 117.427 99.6773 117.864 99.4C118.312 99.1227 118.659 98.7493 118.904 98.28C119.16 97.8 119.288 97.2773 119.288 96.712C119.288 96.1467 119.16 95.6293 118.904 95.16C118.659 94.68 118.312 94.3067 117.864 94.04C117.427 93.7627 116.941 93.624 116.408 93.624C115.864 93.624 115.373 93.7627 114.936 94.04C114.509 94.3067 114.168 94.68 113.912 95.16C113.667 95.6293 113.544 96.1467 113.544 96.712C113.544 97.2773 113.667 97.8 113.912 98.28C114.168 98.7493 114.509 99.1227 114.936 99.4C115.373 99.6773 115.864 99.816 116.408 99.816ZM124.753 101.16C124.155 101.16 123.633 101.085 123.185 100.936C122.747 100.787 122.331 100.584 121.937 100.328V98.792C122.278 99.0587 122.694 99.304 123.185 99.528C123.686 99.7413 124.198 99.848 124.721 99.848C125.243 99.848 125.675 99.7413 126.016 99.528C126.358 99.304 126.529 99.0107 126.529 98.648C126.529 98.0613 126.134 97.6613 125.345 97.448L124.097 97.128C123.361 96.936 122.811 96.648 122.449 96.264C122.097 95.88 121.921 95.3787 121.921 94.76C121.921 94.248 122.054 93.8053 122.321 93.432C122.598 93.0587 122.966 92.776 123.424 92.584C123.883 92.3813 124.374 92.28 124.897 92.28C125.355 92.28 125.814 92.3493 126.273 92.488C126.742 92.6267 127.169 92.808 127.553 93.032V94.504C127.137 94.2053 126.705 93.976 126.257 93.816C125.809 93.656 125.371 93.576 124.945 93.576C124.465 93.576 124.075 93.6827 123.777 93.896C123.489 94.0987 123.345 94.3707 123.345 94.712C123.345 95.2667 123.761 95.656 124.593 95.88L125.777 96.184C127.238 96.5573 127.969 97.352 127.969 98.568C127.969 99.0907 127.825 99.5493 127.537 99.944C127.259 100.328 126.875 100.627 126.385 100.84C125.905 101.053 125.361 101.16 124.753 101.16ZM132.706 101.16C132.066 101.16 131.517 101.016 131.058 100.728C130.599 100.44 130.253 100.045 130.018 99.544C129.783 99.0427 129.666 98.4827 129.666 97.864V92.44H131.106V97.512C131.106 99.0373 131.751 99.8 133.042 99.8C133.447 99.8 133.826 99.6987 134.178 99.496C134.53 99.2933 134.807 99.0107 135.01 98.648C135.223 98.2747 135.33 97.8533 135.33 97.384V92.44H136.77V101H135.33V99.864C135.021 100.291 134.637 100.616 134.178 100.84C133.73 101.053 133.239 101.16 132.706 101.16ZM139.137 92.44H140.577V93.576C141.185 92.712 142.028 92.28 143.105 92.28C143.724 92.28 144.252 92.4187 144.689 92.696C145.126 92.9627 145.446 93.3467 145.649 93.848C145.969 93.336 146.385 92.9467 146.897 92.68C147.409 92.4133 147.953 92.28 148.529 92.28C149.414 92.28 150.113 92.5627 150.625 93.128C151.137 93.6827 151.393 94.4453 151.393 95.416V101H149.953V95.832C149.953 95.096 149.798 94.5467 149.489 94.184C149.19 93.8213 148.758 93.64 148.193 93.64C147.82 93.64 147.462 93.7413 147.121 93.944C146.78 94.1467 146.502 94.424 146.289 94.776C146.086 95.1173 145.985 95.496 145.985 95.912V101H144.545V95.832C144.545 95.096 144.39 94.5467 144.081 94.184C143.782 93.8213 143.345 93.64 142.769 93.64C142.396 93.64 142.038 93.7413 141.697 93.944C141.356 94.136 141.084 94.408 140.881 94.76C140.678 95.112 140.577 95.496 140.577 95.912V101H139.137V92.44ZM165.805 89.8H167.325L162.381 103.384H160.861L165.805 89.8ZM180.487 101.16C179.73 101.16 179.026 100.973 178.375 100.6C177.735 100.216 177.223 99.6827 176.839 99C176.455 98.3173 176.263 97.5547 176.263 96.712C176.263 95.8693 176.455 95.112 176.839 94.44C177.223 93.7573 177.735 93.2293 178.375 92.856C179.026 92.472 179.73 92.28 180.487 92.28C181.106 92.28 181.676 92.408 182.199 92.664C182.722 92.9093 183.122 93.256 183.399 93.704V89.32H184.839V101H183.399V99.736C183.122 100.184 182.722 100.536 182.199 100.792C181.676 101.037 181.106 101.16 180.487 101.16ZM180.615 99.816C181.159 99.816 181.644 99.6827 182.071 99.416C182.508 99.1387 182.85 98.7653 183.095 98.296C183.351 97.816 183.479 97.2933 183.479 96.728C183.479 96.1627 183.351 95.6453 183.095 95.176C182.85 94.696 182.508 94.3173 182.071 94.04C181.644 93.7627 181.159 93.624 180.615 93.624C180.082 93.624 179.591 93.7627 179.143 94.04C178.706 94.3173 178.359 94.696 178.103 95.176C177.858 95.6453 177.735 96.1627 177.735 96.728C177.735 97.2933 177.858 97.816 178.103 98.296C178.359 98.7653 178.706 99.1387 179.143 99.416C179.591 99.6827 180.082 99.816 180.615 99.816ZM190.898 101.16C190.055 101.16 189.298 100.963 188.626 100.568C187.954 100.173 187.426 99.64 187.042 98.968C186.669 98.2853 186.482 97.5387 186.482 96.728C186.482 95.9173 186.669 95.176 187.042 94.504C187.426 93.8213 187.954 93.2827 188.626 92.888C189.298 92.4827 190.055 92.28 190.898 92.28C191.741 92.28 192.498 92.4827 193.17 92.888C193.842 93.2827 194.365 93.8213 194.738 94.504C195.122 95.176 195.314 95.9173 195.314 96.728C195.314 97.5387 195.122 98.2853 194.738 98.968C194.365 99.64 193.842 100.173 193.17 100.568C192.498 100.963 191.741 101.16 190.898 101.16ZM190.898 99.816C191.442 99.816 191.938 99.6773 192.386 99.4C192.845 99.1227 193.202 98.7493 193.458 98.28C193.714 97.8 193.842 97.2827 193.842 96.728C193.842 96.1733 193.714 95.656 193.458 95.176C193.202 94.696 192.845 94.3173 192.386 94.04C191.938 93.7627 191.442 93.624 190.898 93.624C190.354 93.624 189.853 93.7627 189.394 94.04C188.946 94.3173 188.594 94.696 188.338 95.176C188.082 95.656 187.954 96.1733 187.954 96.728C187.954 97.2827 188.082 97.8 188.338 98.28C188.594 98.7493 188.946 99.1227 189.394 99.4C189.853 99.6773 190.354 99.816 190.898 99.816ZM199.011 101.16C198.392 101.16 197.912 100.963 197.571 100.568C197.23 100.163 197.059 99.64 197.059 99V89.32H198.499V98.76C198.499 99.4533 198.798 99.8 199.395 99.8C199.566 99.8 199.736 99.768 199.907 99.704V101.048C199.651 101.123 199.352 101.16 199.011 101.16ZM205.21 101.16C204.368 101.16 203.61 100.963 202.938 100.568C202.266 100.173 201.738 99.64 201.354 98.968C200.981 98.2853 200.794 97.5387 200.794 96.728C200.794 95.9173 200.981 95.176 201.354 94.504C201.738 93.8213 202.266 93.2827 202.938 92.888C203.61 92.4827 204.368 92.28 205.21 92.28C206.053 92.28 206.81 92.4827 207.482 92.888C208.154 93.2827 208.677 93.8213 209.05 94.504C209.434 95.176 209.626 95.9173 209.626 96.728C209.626 97.5387 209.434 98.2853 209.05 98.968C208.677 99.64 208.154 100.173 207.482 100.568C206.81 100.963 206.053 101.16 205.21 101.16ZM205.21 99.816C205.754 99.816 206.25 99.6773 206.698 99.4C207.157 99.1227 207.514 98.7493 207.77 98.28C208.026 97.8 208.154 97.2827 208.154 96.728C208.154 96.1733 208.026 95.656 207.77 95.176C207.514 94.696 207.157 94.3173 206.698 94.04C206.25 93.7627 205.754 93.624 205.21 93.624C204.666 93.624 204.165 93.7627 203.706 94.04C203.258 94.3173 202.906 94.696 202.65 95.176C202.394 95.656 202.266 96.1733 202.266 96.728C202.266 97.2827 202.394 97.8 202.65 98.28C202.906 98.7493 203.258 99.1227 203.706 99.4C204.165 99.6773 204.666 99.816 205.21 99.816ZM211.372 92.44H212.812V93.768C213.078 93.288 213.43 92.92 213.868 92.664C214.316 92.408 214.753 92.28 215.18 92.28C215.478 92.28 215.745 92.328 215.98 92.424V93.88C215.66 93.752 215.324 93.688 214.972 93.688C214.342 93.688 213.825 93.944 213.42 94.456C213.014 94.9573 212.812 95.6027 212.812 96.392V101H211.372V92.44Z" fill="#042729"/>
</svg>
