<svg xmlns="http://www.w3.org/2000/svg" viewBox="0 0 1610.82 1457.84" fill="none">
  <path d="M1026.04 1412.51C982.363 1449.72 924.189 1465.19 867.794 1454.56C811.27 1443.92 754.748 1433.25 698.204 1422.71C608.362 1405.95 518.426 1389.69 428.656 1372.56C373.46 1362.02 336.343 1330.7 312.184 1278.68C273.711 1195.85 230.205 1115.38 189.72 1033.46C134.832 922.406 80.7195 810.967 26.3364 699.663C21.1904 689.131 13.825 671.456 10.0624 660.354C-11.9857 595.3 1.23742 564.725 59.2764 513.807C192.434 396.987 550.015 79.2348 595.843 37.4494C633.929 2.72335 677.025 -8.54354 725.708 6.55413C807.758 31.9989 1107.15 131.064 1175.36 153.382C1213.06 165.718 1241.82 186.491 1261.75 222.694C1332.57 351.315 1552.61 739.182 1588.15 806.472C1623.25 872.929 1619.49 900.143 1563.48 949.921C1471.6 1031.57 1113 1338.37 1026.99 1411.7L1026.04 1412.51Z" fill="#B9CDBE" fill-opacity="0.05"/>
</svg>
