<svg width="1100" height="996" overflow="visible" style="display: block;" viewBox="0 0 1100.13 995.652" fill="none" xmlns="http://www.w3.org/2000/svg">
<path id="gradiant" opacity="0.8" d="M700.747 964.688C670.916 990.106 631.186 1000.67 592.67 993.41C554.066 986.139 515.463 978.858 476.847 971.655C415.488 960.211 354.065 949.104 292.755 937.404C255.059 930.211 229.709 908.815 213.21 873.292C186.934 816.722 157.221 761.758 129.571 705.814C92.0849 629.968 55.1283 553.859 17.9867 477.843C14.4722 470.65 9.44192 458.579 6.87221 450.997C-8.1858 406.567 0.845111 385.685 40.4835 350.91C131.425 271.127 375.639 54.1143 406.938 25.5765C432.949 1.85994 462.382 -5.83491 495.631 4.47622C551.667 21.854 756.144 89.5115 802.726 104.754C828.473 113.179 848.116 127.366 861.729 152.091C910.092 239.935 1060.38 504.833 1084.65 550.789C1108.62 596.177 1106.05 614.763 1067.79 648.76C1005.04 704.522 760.133 914.056 701.396 964.136L700.747 964.688Z" fill="var(--fill-0, #B9CDBE)" fill-opacity="0.05"/>
</svg>
