<svg width="1042" height="943" overflow="visible" style="display: block;" viewBox="0 0 1041.67 942.746" fill="none" xmlns="http://www.w3.org/2000/svg">
<path id="gradiant" opacity="0.8" d="M663.512 913.428C635.266 937.495 597.647 947.493 561.178 940.624C524.625 933.739 488.074 926.845 451.509 920.025C393.41 909.188 335.251 898.672 277.199 887.594C241.506 880.782 217.503 860.524 201.88 826.889C177.001 773.324 148.867 721.281 122.686 668.31C87.1919 596.493 52.199 524.429 17.031 452.452C13.7032 445.641 8.94021 434.211 6.50704 427.032C-7.75084 384.964 0.800204 365.191 38.3324 332.264C124.442 256.72 355.679 51.2389 385.315 24.2174C409.944 1.76111 437.813 -5.52486 469.295 4.23837C522.354 20.6928 715.965 84.7552 760.072 99.188C784.451 107.165 803.05 120.598 815.939 144.01C861.733 227.185 1004.03 478.008 1027.01 521.522C1049.71 564.498 1047.28 582.096 1011.06 614.287C951.639 667.087 719.742 865.486 664.126 912.905L663.512 913.428Z" fill="var(--fill-0, #B9CDBE)" fill-opacity="0.05"/>
</svg>
