<svg xmlns="http://www.w3.org/2000/svg" viewBox="0 0 1502.62 1359.92" fill="none">
  <path d="M957.125 1317.63C916.38 1352.35 862.113 1366.77 809.506 1356.86C756.778 1346.93 704.053 1336.99 651.307 1327.15C567.5 1311.52 483.605 1296.35 399.864 1280.37C348.376 1270.54 313.751 1241.32 291.215 1192.8C255.327 1115.53 214.743 1040.46 176.977 964.046C125.775 860.45 75.2978 756.497 24.5674 652.668C19.7671 642.843 12.8964 626.356 9.3865 616C-11.1807 555.315 1.15431 526.793 55.295 479.296C179.509 370.323 513.072 73.9128 555.822 34.934C591.349 2.54042 631.551 -7.96969 676.964 6.1139C753.502 29.8496 1032.79 122.26 1096.41 143.08C1131.58 154.587 1158.41 173.965 1177 207.736C1243.06 327.718 1448.33 689.533 1481.48 752.303C1514.22 814.297 1510.71 839.682 1458.46 886.117C1372.75 962.281 1038.24 1248.48 958.011 1316.88L957.125 1317.63Z" fill="#FF4800" fill-opacity="0.05"/>
</svg>
