<svg width="502" height="100" viewBox="0 0 502 100" fill="none" xmlns="http://www.w3.org/2000/svg">
<rect x="0.5" y="0.5" width="501" height="99" rx="4.5" stroke="#9747FF" stroke-dasharray="10 5"/>
<rect x="261" y="20" width="221" height="60" rx="30" fill="#8D2600"/>
<rect x="271" y="28" width="44" height="44" rx="22" fill="#F8F5EE"/>
<g clip-path="url(#clip0_2192_4994)">
<path d="M303.214 49.231H292.103C291.752 47.9075 290.532 46.923 289.072 46.923C287.611 46.923 286.391 47.9075 286.04 49.231H282.786C282.352 49.231 282 49.5754 282 50.0003C282 50.4253 282.352 50.7697 282.786 50.7697H286.04C286.391 52.0928 287.611 53.077 289.072 53.077C290.532 53.077 291.752 52.0928 292.103 50.7697H303.214C303.648 50.7697 304 50.4253 304 50.0003C304 49.5754 303.648 49.231 303.214 49.231ZM289.072 51.539C288.205 51.539 287.5 50.8485 287.5 50.0003C287.5 49.1518 288.205 48.4617 289.072 48.4617C289.937 48.4617 290.642 49.1506 290.643 49.9982L290.642 50.0003L290.643 50.0025C290.642 50.8497 289.937 51.539 289.072 51.539Z" fill="#8D2600"/>
<path d="M282.786 43.8467H293.897C294.249 45.17 295.468 46.1543 296.928 46.1543C298.388 46.1543 299.608 45.17 299.959 43.8467H303.214C303.648 43.8467 304 43.5023 304 43.0773C304 42.6524 303.648 42.308 303.214 42.308H299.959C299.608 40.9845 298.388 40 296.928 40C295.468 40 294.249 40.9845 293.897 42.308H282.786C282.352 42.308 282 42.6524 282 43.0773C282 43.5023 282.352 43.8467 282.786 43.8467ZM296.928 41.5387C297.795 41.5387 298.5 42.2288 298.5 43.0773C298.5 43.9255 297.795 44.6157 296.928 44.6157C296.062 44.6157 295.358 43.9267 295.357 43.0795L295.357 43.0773L295.357 43.0752C295.358 42.2276 296.062 41.5387 296.928 41.5387Z" fill="#8D2600"/>
<path d="M303.214 56.1543H299.96C299.608 54.8305 298.388 53.846 296.928 53.846C295.468 53.846 294.248 54.8305 293.897 56.1543H282.786C282.352 56.1543 282 56.4987 282 56.9233C282 57.3479 282.352 57.6923 282.786 57.6923H293.897C294.248 59.0156 295.468 60 296.928 60C298.388 60 299.608 59.0156 299.96 57.6923H303.214C303.648 57.6923 304 57.3479 304 56.9233C304 56.4987 303.648 56.1543 303.214 56.1543ZM296.928 58.462C296.062 58.462 295.358 57.7731 295.357 56.9255L295.357 56.9233L295.357 56.9212C295.358 56.0736 296.062 55.384 296.928 55.384C297.795 55.384 298.5 56.0748 298.5 56.9233C298.5 57.7719 297.795 58.462 296.928 58.462Z" fill="#8D2600"/>
</g>
<path d="M324.264 44.8H325.768V54.56H331.096V56H324.264V44.8ZM336.367 56.16C335.524 56.16 334.767 55.9627 334.095 55.568C333.423 55.1733 332.895 54.64 332.511 53.968C332.137 53.2853 331.951 52.5387 331.951 51.728C331.951 50.9173 332.137 50.176 332.511 49.504C332.895 48.8213 333.423 48.2827 334.095 47.888C334.767 47.4827 335.524 47.28 336.367 47.28C337.209 47.28 337.967 47.4827 338.639 47.888C339.311 48.2827 339.833 48.8213 340.207 49.504C340.591 50.176 340.783 50.9173 340.783 51.728C340.783 52.5387 340.591 53.2853 340.207 53.968C339.833 54.64 339.311 55.1733 338.639 55.568C337.967 55.9627 337.209 56.16 336.367 56.16ZM336.367 54.816C336.911 54.816 337.407 54.6773 337.855 54.4C338.313 54.1227 338.671 53.7493 338.927 53.28C339.183 52.8 339.311 52.2827 339.311 51.728C339.311 51.1733 339.183 50.656 338.927 50.176C338.671 49.696 338.313 49.3173 337.855 49.04C337.407 48.7627 336.911 48.624 336.367 48.624C335.823 48.624 335.321 48.7627 334.863 49.04C334.415 49.3173 334.063 49.696 333.807 50.176C333.551 50.656 333.423 51.1733 333.423 51.728C333.423 52.2827 333.551 52.8 333.807 53.28C334.063 53.7493 334.415 54.1227 334.863 54.4C335.321 54.6773 335.823 54.816 336.367 54.816ZM342.528 47.44H343.968V48.768C344.234 48.288 344.586 47.92 345.024 47.664C345.472 47.408 345.909 47.28 346.336 47.28C346.634 47.28 346.901 47.328 347.136 47.424V48.88C346.816 48.752 346.48 48.688 346.128 48.688C345.498 48.688 344.981 48.944 344.576 49.456C344.17 49.9573 343.968 50.6027 343.968 51.392V56H342.528V47.44ZM352.607 56.16C351.743 56.16 350.953 55.9787 350.239 55.616C349.535 55.2533 348.975 54.7413 348.559 54.08C348.153 53.408 347.951 52.6293 347.951 51.744C347.951 50.8907 348.137 50.1227 348.511 49.44C348.884 48.7573 349.391 48.2293 350.031 47.856C350.671 47.472 351.375 47.28 352.143 47.28C352.889 47.28 353.545 47.456 354.111 47.808C354.687 48.1493 355.129 48.6347 355.439 49.264C355.759 49.8933 355.919 50.624 355.919 51.456C355.919 51.6907 355.903 51.9147 355.871 52.128H349.439C349.524 52.9173 349.86 53.5627 350.447 54.064C351.044 54.5653 351.764 54.816 352.607 54.816C353.087 54.816 353.545 54.752 353.983 54.624C354.431 54.496 354.895 54.3093 355.375 54.064V55.472C355.012 55.696 354.585 55.8667 354.095 55.984C353.604 56.1013 353.108 56.16 352.607 56.16ZM354.431 50.912C354.42 50.4853 354.313 50.0907 354.111 49.728C353.908 49.3653 353.631 49.0827 353.279 48.88C352.937 48.6667 352.559 48.56 352.143 48.56C351.471 48.56 350.895 48.768 350.415 49.184C349.945 49.6 349.641 50.176 349.503 50.912H354.431ZM357.684 47.44H359.124V48.576C359.732 47.712 360.575 47.28 361.652 47.28C362.271 47.28 362.799 47.4187 363.236 47.696C363.673 47.9627 363.993 48.3467 364.196 48.848C364.516 48.336 364.932 47.9467 365.444 47.68C365.956 47.4133 366.5 47.28 367.076 47.28C367.961 47.28 368.66 47.5627 369.172 48.128C369.684 48.6827 369.94 49.4453 369.94 50.416V56H368.5V50.832C368.5 50.096 368.345 49.5467 368.036 49.184C367.737 48.8213 367.305 48.64 366.74 48.64C366.367 48.64 366.009 48.7413 365.668 48.944C365.327 49.1467 365.049 49.424 364.836 49.776C364.633 50.1173 364.532 50.496 364.532 50.912V56H363.092V50.832C363.092 50.096 362.937 49.5467 362.628 49.184C362.329 48.8213 361.892 48.64 361.316 48.64C360.943 48.64 360.585 48.7413 360.244 48.944C359.903 49.136 359.631 49.408 359.428 49.76C359.225 50.112 359.124 50.496 359.124 50.912V56H357.684V47.44ZM376.34 47.44H377.78V56H376.34V47.44ZM377.06 46.24C376.772 46.24 376.526 46.1387 376.324 45.936C376.121 45.7227 376.02 45.472 376.02 45.184C376.02 44.9067 376.121 44.6667 376.324 44.464C376.526 44.2613 376.772 44.16 377.06 44.16C377.337 44.16 377.577 44.2613 377.78 44.464C377.993 44.6667 378.1 44.9067 378.1 45.184C378.1 45.472 377.993 45.7227 377.78 45.936C377.577 46.1387 377.337 46.24 377.06 46.24ZM380.122 47.44H381.562V48.704C381.839 48.256 382.239 47.9093 382.762 47.664C383.284 47.408 383.855 47.28 384.474 47.28C385.231 47.28 385.93 47.472 386.57 47.856C387.22 48.2293 387.738 48.7573 388.122 49.44C388.506 50.1227 388.698 50.8853 388.698 51.728C388.698 52.5707 388.506 53.3333 388.122 54.016C387.738 54.688 387.22 55.216 386.57 55.6C385.93 55.9733 385.231 56.16 384.474 56.16C383.855 56.16 383.284 56.0373 382.762 55.792C382.239 55.536 381.839 55.184 381.562 54.736V59.52H380.122V47.44ZM384.346 54.816C384.879 54.816 385.364 54.6773 385.802 54.4C386.25 54.1227 386.596 53.7493 386.842 53.28C387.098 52.8 387.226 52.2773 387.226 51.712C387.226 51.1467 387.098 50.6293 386.842 50.16C386.596 49.68 386.25 49.3067 385.802 49.04C385.364 48.7627 384.879 48.624 384.346 48.624C383.802 48.624 383.311 48.7627 382.874 49.04C382.447 49.3067 382.106 49.68 381.85 50.16C381.604 50.6293 381.482 51.1467 381.482 51.712C381.482 52.2773 381.604 52.8 381.85 53.28C382.106 53.7493 382.447 54.1227 382.874 54.4C383.311 54.6773 383.802 54.816 384.346 54.816ZM392.69 56.16C392.093 56.16 391.57 56.0853 391.122 55.936C390.685 55.7867 390.269 55.584 389.874 55.328V53.792C390.215 54.0587 390.631 54.304 391.122 54.528C391.623 54.7413 392.135 54.848 392.658 54.848C393.181 54.848 393.613 54.7413 393.954 54.528C394.295 54.304 394.466 54.0107 394.466 53.648C394.466 53.0613 394.071 52.6613 393.282 52.448L392.034 52.128C391.298 51.936 390.749 51.648 390.386 51.264C390.034 50.88 389.858 50.3787 389.858 49.76C389.858 49.248 389.991 48.8053 390.258 48.432C390.535 48.0587 390.903 47.776 391.362 47.584C391.821 47.3813 392.311 47.28 392.834 47.28C393.293 47.28 393.751 47.3493 394.21 47.488C394.679 47.6267 395.106 47.808 395.49 48.032V49.504C395.074 49.2053 394.642 48.976 394.194 48.816C393.746 48.656 393.309 48.576 392.882 48.576C392.402 48.576 392.013 48.6827 391.714 48.896C391.426 49.0987 391.282 49.3707 391.282 49.712C391.282 50.2667 391.698 50.656 392.53 50.88L393.714 51.184C395.175 51.5573 395.906 52.352 395.906 53.568C395.906 54.0907 395.762 54.5493 395.474 54.944C395.197 55.328 394.813 55.6267 394.322 55.84C393.842 56.0533 393.298 56.16 392.69 56.16ZM400.644 56.16C400.004 56.16 399.454 56.016 398.996 55.728C398.537 55.44 398.19 55.0453 397.956 54.544C397.721 54.0427 397.604 53.4827 397.604 52.864V47.44H399.044V52.512C399.044 54.0373 399.689 54.8 400.98 54.8C401.385 54.8 401.764 54.6987 402.116 54.496C402.468 54.2933 402.745 54.0107 402.948 53.648C403.161 53.2747 403.268 52.8533 403.268 52.384V47.44H404.708V56H403.268V54.864C402.958 55.2907 402.574 55.616 402.116 55.84C401.668 56.0533 401.177 56.16 400.644 56.16ZM407.075 47.44H408.515V48.576C409.123 47.712 409.965 47.28 411.043 47.28C411.661 47.28 412.189 47.4187 412.627 47.696C413.064 47.9627 413.384 48.3467 413.587 48.848C413.907 48.336 414.323 47.9467 414.835 47.68C415.347 47.4133 415.891 47.28 416.467 47.28C417.352 47.28 418.051 47.5627 418.563 48.128C419.075 48.6827 419.331 49.4453 419.331 50.416V56H417.891V50.832C417.891 50.096 417.736 49.5467 417.427 49.184C417.128 48.8213 416.696 48.64 416.131 48.64C415.757 48.64 415.4 48.7413 415.059 48.944C414.717 49.1467 414.44 49.424 414.227 49.776C414.024 50.1173 413.923 50.496 413.923 50.912V56H412.483V50.832C412.483 50.096 412.328 49.5467 412.019 49.184C411.72 48.8213 411.283 48.64 410.707 48.64C410.333 48.64 409.976 48.7413 409.635 48.944C409.293 49.136 409.021 49.408 408.819 49.76C408.616 50.112 408.515 50.496 408.515 50.912V56H407.075V47.44ZM429.362 56.16C428.605 56.16 427.901 55.9733 427.25 55.6C426.61 55.216 426.098 54.6827 425.714 54C425.33 53.3173 425.138 52.5547 425.138 51.712C425.138 50.8693 425.33 50.112 425.714 49.44C426.098 48.7573 426.61 48.2293 427.25 47.856C427.901 47.472 428.605 47.28 429.362 47.28C429.981 47.28 430.551 47.408 431.074 47.664C431.597 47.9093 431.997 48.256 432.274 48.704V44.32H433.714V56H432.274V54.736C431.997 55.184 431.597 55.536 431.074 55.792C430.551 56.0373 429.981 56.16 429.362 56.16ZM429.49 54.816C430.034 54.816 430.519 54.6827 430.946 54.416C431.383 54.1387 431.725 53.7653 431.97 53.296C432.226 52.816 432.354 52.2933 432.354 51.728C432.354 51.1627 432.226 50.6453 431.97 50.176C431.725 49.696 431.383 49.3173 430.946 49.04C430.519 48.7627 430.034 48.624 429.49 48.624C428.957 48.624 428.466 48.7627 428.018 49.04C427.581 49.3173 427.234 49.696 426.978 50.176C426.733 50.6453 426.61 51.1627 426.61 51.728C426.61 52.2933 426.733 52.816 426.978 53.296C427.234 53.7653 427.581 54.1387 428.018 54.416C428.466 54.6827 428.957 54.816 429.49 54.816ZM439.773 56.16C438.93 56.16 438.173 55.9627 437.501 55.568C436.829 55.1733 436.301 54.64 435.917 53.968C435.544 53.2853 435.357 52.5387 435.357 51.728C435.357 50.9173 435.544 50.176 435.917 49.504C436.301 48.8213 436.829 48.2827 437.501 47.888C438.173 47.4827 438.93 47.28 439.773 47.28C440.616 47.28 441.373 47.4827 442.045 47.888C442.717 48.2827 443.24 48.8213 443.613 49.504C443.997 50.176 444.189 50.9173 444.189 51.728C444.189 52.5387 443.997 53.2853 443.613 53.968C443.24 54.64 442.717 55.1733 442.045 55.568C441.373 55.9627 440.616 56.16 439.773 56.16ZM439.773 54.816C440.317 54.816 440.813 54.6773 441.261 54.4C441.72 54.1227 442.077 53.7493 442.333 53.28C442.589 52.8 442.717 52.2827 442.717 51.728C442.717 51.1733 442.589 50.656 442.333 50.176C442.077 49.696 441.72 49.3173 441.261 49.04C440.813 48.7627 440.317 48.624 439.773 48.624C439.229 48.624 438.728 48.7627 438.269 49.04C437.821 49.3173 437.469 49.696 437.213 50.176C436.957 50.656 436.829 51.1733 436.829 51.728C436.829 52.2827 436.957 52.8 437.213 53.28C437.469 53.7493 437.821 54.1227 438.269 54.4C438.728 54.6773 439.229 54.816 439.773 54.816ZM447.886 56.16C447.267 56.16 446.787 55.9627 446.446 55.568C446.105 55.1627 445.934 54.64 445.934 54V44.32H447.374V53.76C447.374 54.4533 447.673 54.8 448.27 54.8C448.441 54.8 448.611 54.768 448.782 54.704V56.048C448.526 56.1227 448.227 56.16 447.886 56.16ZM454.085 56.16C453.243 56.16 452.485 55.9627 451.813 55.568C451.141 55.1733 450.613 54.64 450.229 53.968C449.856 53.2853 449.669 52.5387 449.669 51.728C449.669 50.9173 449.856 50.176 450.229 49.504C450.613 48.8213 451.141 48.2827 451.813 47.888C452.485 47.4827 453.243 47.28 454.085 47.28C454.928 47.28 455.685 47.4827 456.357 47.888C457.029 48.2827 457.552 48.8213 457.925 49.504C458.309 50.176 458.501 50.9173 458.501 51.728C458.501 52.5387 458.309 53.2853 457.925 53.968C457.552 54.64 457.029 55.1733 456.357 55.568C455.685 55.9627 454.928 56.16 454.085 56.16ZM454.085 54.816C454.629 54.816 455.125 54.6773 455.573 54.4C456.032 54.1227 456.389 53.7493 456.645 53.28C456.901 52.8 457.029 52.2827 457.029 51.728C457.029 51.1733 456.901 50.656 456.645 50.176C456.389 49.696 456.032 49.3173 455.573 49.04C455.125 48.7627 454.629 48.624 454.085 48.624C453.541 48.624 453.04 48.7627 452.581 49.04C452.133 49.3173 451.781 49.696 451.525 50.176C451.269 50.656 451.141 51.1733 451.141 51.728C451.141 52.2827 451.269 52.8 451.525 53.28C451.781 53.7493 452.133 54.1227 452.581 54.4C453.04 54.6773 453.541 54.816 454.085 54.816ZM460.247 47.44H461.687V48.768C461.953 48.288 462.305 47.92 462.743 47.664C463.191 47.408 463.628 47.28 464.055 47.28C464.353 47.28 464.62 47.328 464.855 47.424V48.88C464.535 48.752 464.199 48.688 463.847 48.688C463.217 48.688 462.7 48.944 462.295 49.456C461.889 49.9573 461.687 50.6027 461.687 51.392V56H460.247V47.44Z" fill="#F8F5EE"/>
<rect x="20" y="20" width="221" height="60" rx="30" fill="#FF4800"/>
<rect x="30" y="28" width="44" height="44" rx="22" fill="#F8F5EE"/>
<g clip-path="url(#clip1_2192_4994)">
<path d="M62.2145 49.231H51.1032C50.7518 47.9075 49.532 46.923 48.0717 46.923C46.6115 46.923 45.3914 47.9075 45.0399 49.231H41.7859C41.3518 49.231 41 49.5754 41 50.0003C41 50.4253 41.3518 50.7697 41.7859 50.7697H45.04C45.3915 52.0928 46.6115 53.077 48.0717 53.077C49.5319 53.077 50.7517 52.0928 51.1032 50.7697H62.2145C62.6482 50.7697 63 50.4253 63 50.0003C63 49.5754 62.6482 49.231 62.2145 49.231ZM48.0717 51.539C47.205 51.539 46.5 50.8485 46.5 50.0003C46.5 49.1518 47.205 48.4617 48.0717 48.4617C48.9374 48.4617 49.6416 49.1506 49.6429 49.9982L49.6424 50.0003L49.6429 50.0025C49.6416 50.8497 48.9374 51.539 48.0717 51.539Z" fill="#FF4800"/>
<path d="M41.7859 43.8467H52.8971C53.2486 45.17 54.4683 46.1543 55.9283 46.1543C57.3883 46.1543 58.608 45.17 58.9594 43.8467H62.2145C62.6482 43.8467 63 43.5023 63 43.0773C63 42.6524 62.6482 42.308 62.2145 42.308H58.9595C58.608 40.9845 57.3883 40 55.9283 40C54.4683 40 53.2485 40.9845 52.8971 42.308H41.7859C41.3518 42.308 41 42.6524 41 43.0773C41 43.5023 41.3518 43.8467 41.7859 43.8467ZM55.9283 41.5387C56.795 41.5387 57.5 42.2288 57.5 43.0773C57.5 43.9255 56.795 44.6157 55.9283 44.6157C55.0623 44.6157 54.358 43.9267 54.3568 43.0795L54.3572 43.0773L54.3568 43.0752C54.358 42.2276 55.0623 41.5387 55.9283 41.5387Z" fill="#FF4800"/>
<path d="M62.2145 56.1543H58.9596C58.6083 54.8305 57.3884 53.846 55.9283 53.846C54.4681 53.846 53.2482 54.8305 52.897 56.1543H41.7859C41.3518 56.1543 41 56.4987 41 56.9233C41 57.3479 41.3518 57.6923 41.7859 57.6923H52.8971C53.2484 59.0156 54.4682 60 55.9283 60C57.3883 60 58.6082 59.0156 58.9595 57.6923H62.2145C62.6482 57.6923 63 57.3479 63 56.9233C63 56.4987 62.6482 56.1543 62.2145 56.1543ZM55.9283 58.462C55.0623 58.462 54.358 57.7731 54.3568 56.9255L54.3572 56.9233L54.3568 56.9212C54.358 56.0736 55.0623 55.384 55.9283 55.384C56.795 55.384 57.5 56.0748 57.5 56.9233C57.5 57.7719 56.795 58.462 55.9283 58.462Z" fill="#FF4800"/>
</g>
<path d="M83.264 44.8H84.768V54.56H90.096V56H83.264V44.8ZM95.3666 56.16C94.524 56.16 93.7666 55.9627 93.0946 55.568C92.4226 55.1733 91.8946 54.64 91.5106 53.968C91.1373 53.2853 90.9506 52.5387 90.9506 51.728C90.9506 50.9173 91.1373 50.176 91.5106 49.504C91.8946 48.8213 92.4226 48.2827 93.0946 47.888C93.7666 47.4827 94.524 47.28 95.3666 47.28C96.2093 47.28 96.9666 47.4827 97.6386 47.888C98.3106 48.2827 98.8333 48.8213 99.2066 49.504C99.5906 50.176 99.7826 50.9173 99.7826 51.728C99.7826 52.5387 99.5906 53.2853 99.2066 53.968C98.8333 54.64 98.3106 55.1733 97.6386 55.568C96.9666 55.9627 96.2093 56.16 95.3666 56.16ZM95.3666 54.816C95.9106 54.816 96.4066 54.6773 96.8546 54.4C97.3133 54.1227 97.6706 53.7493 97.9266 53.28C98.1826 52.8 98.3106 52.2827 98.3106 51.728C98.3106 51.1733 98.1826 50.656 97.9266 50.176C97.6706 49.696 97.3133 49.3173 96.8546 49.04C96.4066 48.7627 95.9106 48.624 95.3666 48.624C94.8226 48.624 94.3213 48.7627 93.8626 49.04C93.4146 49.3173 93.0626 49.696 92.8066 50.176C92.5506 50.656 92.4226 51.1733 92.4226 51.728C92.4226 52.2827 92.5506 52.8 92.8066 53.28C93.0626 53.7493 93.4146 54.1227 93.8626 54.4C94.3213 54.6773 94.8226 54.816 95.3666 54.816ZM101.528 47.44H102.968V48.768C103.234 48.288 103.586 47.92 104.024 47.664C104.472 47.408 104.909 47.28 105.336 47.28C105.634 47.28 105.901 47.328 106.136 47.424V48.88C105.816 48.752 105.48 48.688 105.128 48.688C104.498 48.688 103.981 48.944 103.576 49.456C103.17 49.9573 102.968 50.6027 102.968 51.392V56H101.528V47.44ZM111.607 56.16C110.743 56.16 109.953 55.9787 109.239 55.616C108.535 55.2533 107.975 54.7413 107.559 54.08C107.153 53.408 106.951 52.6293 106.951 51.744C106.951 50.8907 107.137 50.1227 107.511 49.44C107.884 48.7573 108.391 48.2293 109.031 47.856C109.671 47.472 110.375 47.28 111.143 47.28C111.889 47.28 112.545 47.456 113.111 47.808C113.687 48.1493 114.129 48.6347 114.439 49.264C114.759 49.8933 114.919 50.624 114.919 51.456C114.919 51.6907 114.903 51.9147 114.871 52.128H108.439C108.524 52.9173 108.86 53.5627 109.447 54.064C110.044 54.5653 110.764 54.816 111.607 54.816C112.087 54.816 112.545 54.752 112.983 54.624C113.431 54.496 113.895 54.3093 114.375 54.064V55.472C114.012 55.696 113.585 55.8667 113.095 55.984C112.604 56.1013 112.108 56.16 111.607 56.16ZM113.431 50.912C113.42 50.4853 113.313 50.0907 113.111 49.728C112.908 49.3653 112.631 49.0827 112.279 48.88C111.937 48.6667 111.559 48.56 111.143 48.56C110.471 48.56 109.895 48.768 109.415 49.184C108.945 49.6 108.641 50.176 108.503 50.912H113.431ZM116.684 47.44H118.124V48.576C118.732 47.712 119.575 47.28 120.652 47.28C121.271 47.28 121.799 47.4187 122.236 47.696C122.673 47.9627 122.993 48.3467 123.196 48.848C123.516 48.336 123.932 47.9467 124.444 47.68C124.956 47.4133 125.5 47.28 126.076 47.28C126.961 47.28 127.66 47.5627 128.172 48.128C128.684 48.6827 128.94 49.4453 128.94 50.416V56H127.5V50.832C127.5 50.096 127.345 49.5467 127.036 49.184C126.737 48.8213 126.305 48.64 125.74 48.64C125.367 48.64 125.009 48.7413 124.668 48.944C124.327 49.1467 124.049 49.424 123.836 49.776C123.633 50.1173 123.532 50.496 123.532 50.912V56H122.092V50.832C122.092 50.096 121.937 49.5467 121.628 49.184C121.329 48.8213 120.892 48.64 120.316 48.64C119.943 48.64 119.585 48.7413 119.244 48.944C118.903 49.136 118.631 49.408 118.428 49.76C118.225 50.112 118.124 50.496 118.124 50.912V56H116.684V47.44ZM135.34 47.44H136.78V56H135.34V47.44ZM136.06 46.24C135.772 46.24 135.526 46.1387 135.324 45.936C135.121 45.7227 135.02 45.472 135.02 45.184C135.02 44.9067 135.121 44.6667 135.324 44.464C135.526 44.2613 135.772 44.16 136.06 44.16C136.337 44.16 136.577 44.2613 136.78 44.464C136.993 44.6667 137.1 44.9067 137.1 45.184C137.1 45.472 136.993 45.7227 136.78 45.936C136.577 46.1387 136.337 46.24 136.06 46.24ZM139.122 47.44H140.562V48.704C140.839 48.256 141.239 47.9093 141.762 47.664C142.284 47.408 142.855 47.28 143.474 47.28C144.231 47.28 144.93 47.472 145.57 47.856C146.22 48.2293 146.738 48.7573 147.122 49.44C147.506 50.1227 147.698 50.8853 147.698 51.728C147.698 52.5707 147.506 53.3333 147.122 54.016C146.738 54.688 146.22 55.216 145.57 55.6C144.93 55.9733 144.231 56.16 143.474 56.16C142.855 56.16 142.284 56.0373 141.762 55.792C141.239 55.536 140.839 55.184 140.562 54.736V59.52H139.122V47.44ZM143.346 54.816C143.879 54.816 144.364 54.6773 144.802 54.4C145.25 54.1227 145.596 53.7493 145.842 53.28C146.098 52.8 146.226 52.2773 146.226 51.712C146.226 51.1467 146.098 50.6293 145.842 50.16C145.596 49.68 145.25 49.3067 144.802 49.04C144.364 48.7627 143.879 48.624 143.346 48.624C142.802 48.624 142.311 48.7627 141.874 49.04C141.447 49.3067 141.106 49.68 140.85 50.16C140.604 50.6293 140.482 51.1467 140.482 51.712C140.482 52.2773 140.604 52.8 140.85 53.28C141.106 53.7493 141.447 54.1227 141.874 54.4C142.311 54.6773 142.802 54.816 143.346 54.816ZM151.69 56.16C151.093 56.16 150.57 56.0853 150.122 55.936C149.685 55.7867 149.269 55.584 148.874 55.328V53.792C149.215 54.0587 149.631 54.304 150.122 54.528C150.623 54.7413 151.135 54.848 151.658 54.848C152.181 54.848 152.613 54.7413 152.954 54.528C153.295 54.304 153.466 54.0107 153.466 53.648C153.466 53.0613 153.071 52.6613 152.282 52.448L151.034 52.128C150.298 51.936 149.749 51.648 149.386 51.264C149.034 50.88 148.858 50.3787 148.858 49.76C148.858 49.248 148.991 48.8053 149.258 48.432C149.535 48.0587 149.903 47.776 150.362 47.584C150.821 47.3813 151.311 47.28 151.834 47.28C152.293 47.28 152.751 47.3493 153.21 47.488C153.679 47.6267 154.106 47.808 154.49 48.032V49.504C154.074 49.2053 153.642 48.976 153.194 48.816C152.746 48.656 152.309 48.576 151.882 48.576C151.402 48.576 151.013 48.6827 150.714 48.896C150.426 49.0987 150.282 49.3707 150.282 49.712C150.282 50.2667 150.698 50.656 151.53 50.88L152.714 51.184C154.175 51.5573 154.906 52.352 154.906 53.568C154.906 54.0907 154.762 54.5493 154.474 54.944C154.197 55.328 153.813 55.6267 153.322 55.84C152.842 56.0533 152.298 56.16 151.69 56.16ZM159.644 56.16C159.004 56.16 158.454 56.016 157.996 55.728C157.537 55.44 157.19 55.0453 156.956 54.544C156.721 54.0427 156.604 53.4827 156.604 52.864V47.44H158.044V52.512C158.044 54.0373 158.689 54.8 159.98 54.8C160.385 54.8 160.764 54.6987 161.116 54.496C161.468 54.2933 161.745 54.0107 161.948 53.648C162.161 53.2747 162.268 52.8533 162.268 52.384V47.44H163.708V56H162.268V54.864C161.958 55.2907 161.574 55.616 161.116 55.84C160.668 56.0533 160.177 56.16 159.644 56.16ZM166.075 47.44H167.515V48.576C168.123 47.712 168.965 47.28 170.043 47.28C170.661 47.28 171.189 47.4187 171.627 47.696C172.064 47.9627 172.384 48.3467 172.587 48.848C172.907 48.336 173.323 47.9467 173.835 47.68C174.347 47.4133 174.891 47.28 175.467 47.28C176.352 47.28 177.051 47.5627 177.563 48.128C178.075 48.6827 178.331 49.4453 178.331 50.416V56H176.891V50.832C176.891 50.096 176.736 49.5467 176.427 49.184C176.128 48.8213 175.696 48.64 175.131 48.64C174.757 48.64 174.4 48.7413 174.059 48.944C173.717 49.1467 173.44 49.424 173.227 49.776C173.024 50.1173 172.923 50.496 172.923 50.912V56H171.483V50.832C171.483 50.096 171.328 49.5467 171.019 49.184C170.72 48.8213 170.283 48.64 169.707 48.64C169.333 48.64 168.976 48.7413 168.635 48.944C168.293 49.136 168.021 49.408 167.819 49.76C167.616 50.112 167.515 50.496 167.515 50.912V56H166.075V47.44ZM188.362 56.16C187.605 56.16 186.901 55.9733 186.25 55.6C185.61 55.216 185.098 54.6827 184.714 54C184.33 53.3173 184.138 52.5547 184.138 51.712C184.138 50.8693 184.33 50.112 184.714 49.44C185.098 48.7573 185.61 48.2293 186.25 47.856C186.901 47.472 187.605 47.28 188.362 47.28C188.981 47.28 189.551 47.408 190.074 47.664C190.597 47.9093 190.997 48.256 191.274 48.704V44.32H192.714V56H191.274V54.736C190.997 55.184 190.597 55.536 190.074 55.792C189.551 56.0373 188.981 56.16 188.362 56.16ZM188.49 54.816C189.034 54.816 189.519 54.6827 189.946 54.416C190.383 54.1387 190.725 53.7653 190.97 53.296C191.226 52.816 191.354 52.2933 191.354 51.728C191.354 51.1627 191.226 50.6453 190.97 50.176C190.725 49.696 190.383 49.3173 189.946 49.04C189.519 48.7627 189.034 48.624 188.49 48.624C187.957 48.624 187.466 48.7627 187.018 49.04C186.581 49.3173 186.234 49.696 185.978 50.176C185.733 50.6453 185.61 51.1627 185.61 51.728C185.61 52.2933 185.733 52.816 185.978 53.296C186.234 53.7653 186.581 54.1387 187.018 54.416C187.466 54.6827 187.957 54.816 188.49 54.816ZM198.773 56.16C197.93 56.16 197.173 55.9627 196.501 55.568C195.829 55.1733 195.301 54.64 194.917 53.968C194.544 53.2853 194.357 52.5387 194.357 51.728C194.357 50.9173 194.544 50.176 194.917 49.504C195.301 48.8213 195.829 48.2827 196.501 47.888C197.173 47.4827 197.93 47.28 198.773 47.28C199.616 47.28 200.373 47.4827 201.045 47.888C201.717 48.2827 202.24 48.8213 202.613 49.504C202.997 50.176 203.189 50.9173 203.189 51.728C203.189 52.5387 202.997 53.2853 202.613 53.968C202.24 54.64 201.717 55.1733 201.045 55.568C200.373 55.9627 199.616 56.16 198.773 56.16ZM198.773 54.816C199.317 54.816 199.813 54.6773 200.261 54.4C200.72 54.1227 201.077 53.7493 201.333 53.28C201.589 52.8 201.717 52.2827 201.717 51.728C201.717 51.1733 201.589 50.656 201.333 50.176C201.077 49.696 200.72 49.3173 200.261 49.04C199.813 48.7627 199.317 48.624 198.773 48.624C198.229 48.624 197.728 48.7627 197.269 49.04C196.821 49.3173 196.469 49.696 196.213 50.176C195.957 50.656 195.829 51.1733 195.829 51.728C195.829 52.2827 195.957 52.8 196.213 53.28C196.469 53.7493 196.821 54.1227 197.269 54.4C197.728 54.6773 198.229 54.816 198.773 54.816ZM206.886 56.16C206.267 56.16 205.787 55.9627 205.446 55.568C205.105 55.1627 204.934 54.64 204.934 54V44.32H206.374V53.76C206.374 54.4533 206.673 54.8 207.27 54.8C207.441 54.8 207.611 54.768 207.782 54.704V56.048C207.526 56.1227 207.227 56.16 206.886 56.16ZM213.085 56.16C212.243 56.16 211.485 55.9627 210.813 55.568C210.141 55.1733 209.613 54.64 209.229 53.968C208.856 53.2853 208.669 52.5387 208.669 51.728C208.669 50.9173 208.856 50.176 209.229 49.504C209.613 48.8213 210.141 48.2827 210.813 47.888C211.485 47.4827 212.243 47.28 213.085 47.28C213.928 47.28 214.685 47.4827 215.357 47.888C216.029 48.2827 216.552 48.8213 216.925 49.504C217.309 50.176 217.501 50.9173 217.501 51.728C217.501 52.5387 217.309 53.2853 216.925 53.968C216.552 54.64 216.029 55.1733 215.357 55.568C214.685 55.9627 213.928 56.16 213.085 56.16ZM213.085 54.816C213.629 54.816 214.125 54.6773 214.573 54.4C215.032 54.1227 215.389 53.7493 215.645 53.28C215.901 52.8 216.029 52.2827 216.029 51.728C216.029 51.1733 215.901 50.656 215.645 50.176C215.389 49.696 215.032 49.3173 214.573 49.04C214.125 48.7627 213.629 48.624 213.085 48.624C212.541 48.624 212.04 48.7627 211.581 49.04C211.133 49.3173 210.781 49.696 210.525 50.176C210.269 50.656 210.141 51.1733 210.141 51.728C210.141 52.2827 210.269 52.8 210.525 53.28C210.781 53.7493 211.133 54.1227 211.581 54.4C212.04 54.6773 212.541 54.816 213.085 54.816ZM219.247 47.44H220.687V48.768C220.953 48.288 221.305 47.92 221.743 47.664C222.191 47.408 222.628 47.28 223.055 47.28C223.353 47.28 223.62 47.328 223.855 47.424V48.88C223.535 48.752 223.199 48.688 222.847 48.688C222.217 48.688 221.7 48.944 221.295 49.456C220.889 49.9573 220.687 50.6027 220.687 51.392V56H219.247V47.44Z" fill="#F8F5EE"/>
<defs>
<clipPath id="clip0_2192_4994">
<rect width="22" height="20" fill="white" transform="translate(282 40)"/>
</clipPath>
<clipPath id="clip1_2192_4994">
<rect width="22" height="20" fill="white" transform="translate(41 40)"/>
</clipPath>
</defs>
</svg>
