<svg width="156" height="88" viewBox="0 0 156 88" fill="none" xmlns="http://www.w3.org/2000/svg">
<rect x="0.5" y="0.5" width="155" height="87" rx="4.5" stroke="#9747FF" stroke-dasharray="10 5"/>
<rect x="88" y="20" width="48" height="48" rx="24" fill="#FF4800"/>
<path d="M118.857 32H115.429C114.797 32 114.286 32.5374 114.286 33.2002V54.7998C114.286 55.4626 114.797 56 115.429 56H118.857C119.488 56 120 55.4626 120 54.7998V33.2002C120 32.5374 119.488 32 118.857 32Z" fill="#F8F5EE"/>
<path d="M108.571 32H105.143C104.512 32 104 32.5374 104 33.2002V54.7998C104 55.4626 104.512 56 105.143 56H108.571C109.203 56 109.714 55.4626 109.714 54.7998V33.2002C109.714 32.5374 109.203 32 108.571 32Z" fill="#F8F5EE"/>
<rect x="20" y="20" width="48" height="48" rx="24" fill="#FF4800"/>
<path d="M51.6805 43.1521L41.8625 32.3523C41.5507 32.0093 41.0814 31.9047 40.6735 32.0919C40.2661 32.278 40 32.7153 40 33.2008V54.8004C40 55.2853 40.2661 55.7232 40.6735 55.9087C40.8087 55.9703 40.9504 56 41.0907 56C41.375 56 41.6542 55.878 41.8625 55.6493L51.6805 44.849C52.1065 44.3804 52.1065 43.6207 51.6805 43.1521Z" fill="#F8F5EE"/>
</svg>
