<svg width="24" height="24" viewBox="0 0 24 24" fill="none" xmlns="http://www.w3.org/2000/svg">
<path d="M20.9598 9.55408C20.9518 9.52448 20.9531 9.49341 20.9415 9.46478C20.9213 9.41669 20.886 9.37872 20.8566 9.33612C20.8306 9.29749 20.8141 9.25409 20.78 9.22003L14.78 3.22003C14.64 3.08002 14.45 3 14.25 3H5.25C4.01001 3 3 4.01001 3 5.25V18.75C3 19.99 4.01001 21 5.25 21H11.25C11.66 21 12 20.66 12 20.25C12 19.84 11.66 19.5 11.25 19.5H5.25C4.84003 19.5 4.5 19.16 4.5 18.75V5.25C4.5 4.84003 4.84003 4.5 5.25 4.5H13.5V8.25C13.5 9.48999 14.51 10.5 15.75 10.5H19.5V11.25C19.5 11.66 19.84 12 20.25 12C20.66 12 21 11.66 21 11.25V9.75C21 9.68079 20.9779 9.61798 20.9598 9.55408ZM15 8.25V5.56L18.4399 9H15.75C15.34 9 15 8.66003 15 8.25Z" fill="#FF4800"/>
<path d="M20.25 13.27H15.75C15.34 13.27 15 13.61 15 14.02V18C14.17 18 13.5 18.67 13.5 19.5C13.5 20.33 14.17 21 15 21C15.83 21 16.5 20.33 16.5 19.5V14.77H19.5V16.5C18.67 16.5 18 17.17 18 18C18 18.83 18.67 19.5 19.5 19.5C20.33 19.5 21 18.83 21 18V14.02C21 13.61 20.66 13.27 20.25 13.27Z" fill="#FF4800"/>
</svg>
