<svg width="24" height="24" viewBox="0 0 24 24" fill="none" xmlns="http://www.w3.org/2000/svg">
<path d="M9.92893 6.12571C9.53959 5.88571 9.0421 6.03429 8.8258 6.44571L5.10545 13.2914C4.96485 13.5543 4.96485 13.8857 5.10545 14.1486C5.24604 14.4114 5.51642 14.5714 5.80842 14.5714H10.3832V23.1429C10.3832 23.5314 10.6319 23.8743 10.9888 23.9657C11.0537 23.9886 11.1294 24 11.1943 24C11.4755 24 11.7458 23.84 11.8973 23.5657L18.8946 10.7086C19.0351 10.4457 19.0351 10.1143 18.8946 9.85143C18.754 9.58857 18.4836 9.42857 18.1916 9.42857H13.6277V0.857143C13.6277 0.388571 13.2599 0 12.8165 0C12.3731 0 12.0054 0.388571 12.0054 0.857143V10.2857C12.0054 10.7543 12.3731 11.1429 12.8165 11.1429H16.7964L12.0162 19.9314V13.7143C12.0162 13.2457 11.6485 12.8571 11.2051 12.8571H7.22518L10.2534 7.29143C10.4805 6.88 10.3399 6.35429 9.95056 6.12571H9.92893Z" fill="#FF4800"/>
</svg>
