<svg width="24" height="24" viewBox="0 0 24 24" fill="none" xmlns="http://www.w3.org/2000/svg">
<path d="M14.2933 9.7146C14.4933 9.91449 14.7467 10.0078 15 10.0078C15.2533 10.0078 15.5067 9.91449 15.7067 9.7146L22 3.42476V9.00833C22 9.55469 22.4533 10.0078 23 10.0078C23.5467 10.0078 24 9.55469 24 9.00833V1.01277C24 0.879511 23.9733 0.759578 23.92 0.626319C23.8133 0.386452 23.6267 0.186563 23.3733 0.0799554C23.2533 0.0266517 23.12 0 22.9867 0H14.9867C14.44 0 13.9867 0.453081 13.9867 0.999445C13.9867 1.54581 14.44 1.99889 14.9867 1.99889H20.5733L14.28 8.28873C13.8933 8.67518 13.8933 9.31482 14.28 9.70127L14.2933 9.7146Z" fill="#FF4800"/>
<path d="M1 24H9C9.54667 24 10 23.5469 10 23.0006C10 22.4542 9.54667 22.0011 9 22.0011H3.41333L9.70667 15.7113C10.0933 15.3248 10.0933 14.6852 9.70667 14.2987C9.32 13.9123 8.68 13.9123 8.29333 14.2987L2 20.5886V15.005C2 14.4586 1.54667 14.0056 1 14.0056C0.453334 14.0056 0 14.4586 0 15.005V23.0006C0 23.5469 0.453333 24 1 24Z" fill="#FF4800"/>
</svg>
