<svg width="24" height="24" viewBox="0 0 24 24" fill="none" xmlns="http://www.w3.org/2000/svg">
<path d="M11.9962 7.96535C9.6895 7.96535 7.81287 9.7755 7.81287 12C7.81287 14.225 9.6895 16.0351 11.9962 16.0351C14.3029 16.0351 16.1795 14.225 16.1795 12C16.1795 9.7755 14.3029 7.96535 11.9962 7.96535ZM11.9962 14.4822C10.5777 14.4822 9.42385 13.3683 9.42385 12C9.42385 10.6317 10.5777 9.51877 11.9962 9.51877C13.4147 9.51877 14.5696 10.6317 14.5696 12C14.5696 13.3683 13.4147 14.4822 11.9962 14.4822Z" fill="#FF4800"/>
<path d="M21.4235 12.6053L21.4295 12.4622C21.4435 12.1586 21.4435 11.8463 21.4295 11.5388L21.4235 11.3956L23.4986 9.54633C24.0349 9.0672 24.1552 8.30475 23.7903 7.69218L21.7593 4.3083C21.3924 3.69718 20.6426 3.41724 19.9509 3.62466L17.2502 4.43255L17.1249 4.35423C16.8572 4.18791 16.5845 4.03465 16.2988 3.89444L16.1645 3.82869L15.545 1.17051C15.3796 0.482031 14.754 0 14.0232 0H9.96919C9.24942 0 8.61084 0.492184 8.45245 1.17099L7.8279 3.82869L7.69357 3.89444C7.40887 4.03465 7.13619 4.18791 6.86853 4.35423L6.74322 4.43255L4.04756 3.62466C3.34783 3.41338 2.604 3.69476 2.23809 4.30733L0.211084 7.69267C-0.152815 8.30475 -0.0325181 9.0672 0.503807 9.54682L2.57793 11.3956L2.57192 11.5388C2.55788 11.8424 2.55788 12.1547 2.57192 12.4622L2.57793 12.6053L0.502804 14.4541C-0.0355257 14.9357 -0.155823 15.6977 0.211084 16.3068L2.23809 19.6931C2.59698 20.2956 3.35686 20.5799 4.04857 20.3758L6.74623 19.5684L6.87254 19.6467C7.1402 19.8121 7.41288 19.9658 7.69858 20.106L7.83292 20.1718L8.45746 22.829C8.61886 23.5185 9.2424 24 9.97421 24H14.0282C14.76 24 15.3836 23.5185 15.545 22.83L16.1695 20.1718L16.3038 20.106C16.5906 19.9658 16.8622 19.8121 17.1309 19.6458L17.2562 19.5684L19.9549 20.3758C20.6546 20.5886 21.3984 20.3062 21.7643 19.6931L23.7903 16.3078C24.1552 15.6957 24.0349 14.9328 23.4986 14.4541L21.4235 12.6053ZM20.3849 18.8819L17.3484 17.971C17.1028 17.8946 16.8392 17.94 16.6276 18.089C16.1545 18.4245 15.6532 18.7039 15.142 18.9186C14.9094 19.0182 14.735 19.2203 14.6788 19.4591L13.9801 22.4471H10.0133L9.31458 19.4582C9.25744 19.2213 9.08401 19.0182 8.84943 18.9186C8.32112 18.6914 7.82189 18.4119 7.36376 18.088C7.15524 17.9391 6.88658 17.8965 6.64498 17.97L3.60848 18.8819L1.62458 15.5652L3.96235 13.4833C4.14881 13.317 4.24405 13.0724 4.21798 12.8297C4.15383 12.2882 4.15383 11.7128 4.21798 11.1694C4.24405 10.9257 4.14881 10.6811 3.96336 10.5176L1.62458 8.43481L3.60848 5.1191L6.64398 6.02998C6.88558 6.10201 7.15424 6.0585 7.36476 5.91201C7.83893 5.57647 8.34017 5.29654 8.85143 5.08187C9.08401 4.98276 9.25744 4.78018 9.31458 4.54037L10.0133 1.55342H13.9801L14.6788 4.54182C14.735 4.78018 14.9094 4.98276 15.143 5.08284C15.6723 5.31007 16.1715 5.58904 16.6286 5.91297C16.8362 6.05995 17.1048 6.1025 17.3474 6.02998L20.3849 5.1191L22.3678 8.43481L20.0301 10.5167C19.8436 10.684 19.7484 10.9286 19.7754 11.1713C19.8396 11.7128 19.8396 12.2882 19.7754 12.8316C19.7484 13.0753 19.8426 13.3189 20.028 13.4814L22.3678 15.5652L20.3849 18.8819Z" fill="#FF4800"/>
</svg>
