<svg width="24" height="24" viewBox="0 0 24 24" fill="none" xmlns="http://www.w3.org/2000/svg">
<path d="M19 10.4286C19 9.99905 18.6474 9.64286 18.2222 9.64286C17.797 9.64286 17.4444 9.99905 17.4444 10.4286C17.4444 13.4562 14.997 15.9286 12 15.9286C9.00296 15.9286 6.55556 13.4562 6.55556 10.4286C6.55556 9.99905 6.20296 9.64286 5.77778 9.64286C5.35259 9.64286 5 9.99905 5 10.4286C5 14.0638 7.72741 17.0286 11.2222 17.4162V21.4286H8.11111C7.68593 21.4286 7.33333 21.7848 7.33333 22.2143C7.33333 22.6438 7.68593 23 8.11111 23H15.8889C16.3141 23 16.6667 22.6438 16.6667 22.2143C16.6667 21.7848 16.3141 21.4286 15.8889 21.4286H12.7778V17.4162C16.2726 17.0181 19 14.0533 19 10.4286Z" fill="#FF4800"/>
<path d="M12 14.3571C14.1467 14.3571 15.8889 12.5971 15.8889 10.4286V4.92857C15.8889 2.76 14.1467 1 12 1C9.85333 1 8.11111 2.76 8.11111 4.92857V10.4286C8.11111 12.5971 9.85333 14.3571 12 14.3571ZM9.66667 4.92857C9.66667 3.62952 10.7141 2.57143 12 2.57143C13.2859 2.57143 14.3333 3.62952 14.3333 4.92857V10.4286C14.3333 11.7276 13.2859 12.7857 12 12.7857C10.7141 12.7857 9.66667 11.7276 9.66667 10.4286V4.92857Z" fill="#FF4800"/>
</svg>
