<svg width="24" height="24" viewBox="0 0 24 24" fill="none" xmlns="http://www.w3.org/2000/svg">
<path d="M18.857 0H15.4285C14.7972 0 14.2855 0.537362 14.2855 1.20023V22.7998C14.2855 23.4626 14.7972 24 15.4285 24H18.857C19.4883 24 20 23.4626 20 22.7998V1.20023C20 0.537362 19.4883 0 18.857 0Z" fill="#FF4800"/>
<path d="M8.5715 0H5.143C4.51174 0 4 0.537362 4 1.20023V22.7998C4 23.4626 4.51174 24 5.143 24H8.5715C9.20276 24 9.7145 23.4626 9.7145 22.7998V1.20023C9.7145 0.537362 9.20276 0 8.5715 0Z" fill="#FF4800"/>
</svg>
