<svg width="24" height="24" viewBox="0 0 24 24" fill="none" xmlns="http://www.w3.org/2000/svg">
<path d="M12.5058 24C18.2893 24 23 19.3823 23 13.7131C23 8.04382 18.2893 3.42612 12.5058 3.42612H10.2438L12.2493 1.46017C12.5875 1.12871 12.5875 0.580069 12.2493 0.248601C11.9112 -0.0828669 11.3515 -0.082867 11.0133 0.248601L7.51527 3.67758C7.17712 4.00905 7.17712 4.55769 7.51527 4.88915L11.0133 8.31813C11.1882 8.48958 11.4098 8.56959 11.6313 8.56959C11.8529 8.56959 12.0744 8.48958 12.2493 8.31813C12.5875 7.98667 12.5875 7.43803 12.2493 7.10656L10.2438 5.14061H12.5058C17.3331 5.14061 21.251 8.98107 21.251 13.7131C21.251 18.4451 17.3331 22.2855 12.5058 22.2855C7.67851 22.2855 3.76069 18.4451 3.76069 13.7131C3.76069 11.5071 4.61188 9.40398 6.16269 7.80379C6.50083 7.46089 6.47751 6.92368 6.12771 6.59221C5.7779 6.27218 5.22987 6.28361 4.89173 6.6265C3.0261 8.54673 2 11.0613 2 13.7131C2 19.3823 6.71072 24 12.4942 24H12.5058Z" fill="#FF4800"/>
<path d="M11.0366 10.6613H9.48584C9.39256 11.3356 8.86785 11.7814 8.01666 11.7928V13.3816C8.56469 13.3587 9.01943 13.1416 9.2643 12.8444V17.4621H11.0366V10.6613Z" fill="#FF4800"/>
<path d="M14.1383 15.9762C13.4736 15.9762 12.7857 15.7704 12.261 15.4047H12.2376V17.0049C12.5991 17.2335 13.4037 17.5535 14.1732 17.5535C15.7707 17.5535 16.9134 16.582 16.9134 15.199C16.9134 13.9417 15.829 13.0501 14.558 13.0501C14.3715 13.0501 14.2082 13.073 14.0333 13.1073L14.1266 12.2386H16.482V10.6498H12.6458L12.2376 14.7875H12.261C12.879 14.4789 13.4853 14.3646 14.045 14.3646C14.7329 14.3646 15.1061 14.696 15.1061 15.1647C15.1061 15.6676 14.6863 15.9648 14.1383 15.9648L14.1383 15.9762Z" fill="#FF4800"/>
</svg>
