<svg width="24" height="24" viewBox="0 0 24 24" fill="none" xmlns="http://www.w3.org/2000/svg">
<path d="M18.4474 4.26643L12 10.7115L5.55263 4.26643C5.19726 3.91119 4.62193 3.91122 4.26656 4.26647C3.91119 4.62171 3.91116 5.19684 4.26653 5.55209L10.7139 11.9972L4.26653 18.4423C3.91116 18.7975 3.91116 19.3727 4.26653 19.7279C4.6219 20.0832 5.19726 20.0832 5.55263 19.7279L12 13.2828L18.453 19.7336C18.8084 20.0888 19.3837 20.0888 19.7391 19.7336L19.7335 19.7279C20.0888 19.3727 20.0888 18.7975 19.7335 18.4423L13.2861 11.9972L19.7335 5.55209C20.0888 5.19684 20.0888 4.62168 19.7335 4.26643C19.3781 3.91119 18.8027 3.91119 18.4474 4.26643Z" fill="#FF4800"/>
</svg>
