<svg width="24" height="24" viewBox="0 0 24 24" fill="none" xmlns="http://www.w3.org/2000/svg">
<path d="M1.84615 21C2.30872 21 2.69231 20.592 2.69231 20.1V17.4H3.53846C4.00103 17.4 4.38462 16.992 4.38462 16.5C4.38462 16.008 4.00103 15.6 3.53846 15.6H1.84615C1.38359 15.6 1 16.008 1 16.5V20.1C1 20.592 1.38359 21 1.84615 21Z" fill="#FF4800"/>
<path d="M7.76923 20.1V12.9H8.61538C9.07795 12.9 9.46154 12.492 9.46154 12C9.46154 11.508 9.07795 11.1 8.61538 11.1H6.92308C6.46051 11.1 6.07692 11.508 6.07692 12V20.1C6.07692 20.592 6.46051 21 6.92308 21C7.38564 21 7.76923 20.592 7.76923 20.1Z" fill="#FF4800"/>
<path d="M12.8462 20.1V4.8H16.2308C16.6933 4.8 17.0769 4.392 17.0769 3.9C17.0769 3.408 16.6933 3 16.2308 3H12C11.5374 3 11.1538 3.408 11.1538 3.9V20.1C11.1538 20.592 11.5374 21 12 21C12.4626 21 12.8462 20.592 12.8462 20.1Z" fill="#FF4800"/>
<path d="M17.0769 6.6C16.6144 6.6 16.2308 7.008 16.2308 7.5V20.1C16.2308 20.592 16.6144 21 17.0769 21C17.5395 21 17.9231 20.592 17.9231 20.1V8.4H21.3077V20.1C21.3077 20.592 21.6913 21 22.1538 21C22.6164 21 23 20.592 23 20.1V7.5C23 7.008 22.6164 6.6 22.1538 6.6H17.0769Z" fill="#FF4800"/>
</svg>
