<svg width="130" height="36" viewBox="0 0 130 36" fill="none" xmlns="http://www.w3.org/2000/svg">
<path d="M14.0812 16.1119H4.53224V5.95609H0V30.2002H4.53224V20.3754H14.0812V30.2002H18.612V5.95609H14.0812V16.1119Z" fill="#FF4800"/>
<path d="M33.118 22.3634C33.118 24.3838 31.4344 26.0245 29.3672 26.0245C27.2993 26.0245 25.6199 24.3796 25.6199 22.3634V11.9799H21.3257V22.3634C21.3257 26.6949 24.9337 30.2199 29.3672 30.2199C33.8007 30.2199 37.408 26.6949 37.408 22.3634V11.9799H33.118V22.3634Z" fill="#FF4800"/>
<path d="M64.9696 13.0539V13.0498C64.9696 10.9219 66.4124 10.2472 67.9894 10.2472C69.2603 10.2472 70.9439 11.1932 72.0429 12.3432L74.8581 9.10137C73.453 7.24555 70.6001 5.95948 68.2672 5.95948C63.5964 5.95948 60.23 8.62667 60.23 13.0539C60.23 21.2616 70.4978 18.6583 70.4978 23.2535C70.4978 24.6708 69.0927 25.92 67.4787 25.92C64.9376 25.92 64.1115 24.7027 62.9471 23.4215L59.8207 26.5946C61.8148 28.9939 64.287 30.2078 67.2371 30.2078C71.6671 30.2078 75.2382 27.5052 75.2382 23.2854C75.2382 14.1679 64.9696 17.0058 64.9696 13.0539Z" fill="#FF4800"/>
<path d="M128.488 26.3237V26.3278C125.947 26.3278 125.228 25.2541 125.228 23.6093V16.3316H129.175V12.6428H125.228V7.7762L120.868 9.68895V24.5157C120.868 28.3079 123.544 30.22 127.217 30.22C127.765 30.22 128.525 30.1839 128.934 30.0847L130 26.2598C129.518 26.2917 128.971 26.3237 128.488 26.3237Z" fill="#FF4800"/>
<path d="M49.4787 12.1038C47.3497 12.1038 45.8622 12.7069 44.4286 14.0839V6.10384H40.1216V20.8945C40.1216 26.4315 44.2198 30.2203 48.8209 30.2203C53.9364 30.2203 58.4196 26.3593 58.4196 21.1617C58.4196 15.964 54.2838 12.1038 49.4787 12.1038ZM49.4503 25.9846C46.7534 25.9846 44.5671 23.8486 44.5671 21.2137C44.5671 18.5789 46.7534 16.4429 49.4503 16.4429C52.1472 16.4429 54.3335 18.5789 54.3335 21.2137C54.3335 23.8486 52.1472 25.9846 49.4503 25.9846Z" fill="#FF4800"/>
<path d="M96.2284 20.9422C96.2284 15.7445 91.7459 11.8843 86.6304 11.8843C82.0293 11.8843 77.9311 15.6765 77.9311 21.2094V36H82.2374V28.02C83.6717 29.3976 85.1592 30 87.2883 30C92.0975 30 96.2284 26.0759 96.2284 20.9422ZM87.2641 25.6609C84.5668 25.6609 82.3802 23.5254 82.3802 20.8901C82.3802 18.2555 84.5668 16.12 87.2641 16.12C89.9607 16.12 92.1465 18.2555 92.1465 20.8901C92.1465 23.5254 89.9607 25.6609 87.2641 25.6609Z" fill="#FF4800"/>
<path d="M110.146 11.6848V7.45324C111.274 6.92996 112.066 5.81604 112.066 4.51887V4.42309C112.066 2.63454 110.571 1.1736 108.74 1.1736H108.642C106.811 1.1736 105.316 2.63454 105.316 4.42309V4.51887C105.316 5.81257 106.109 6.92996 107.237 7.45324V11.6806C105.557 11.9361 104.021 12.6107 102.754 13.6087L90.8759 4.58271C90.9533 4.28707 91.0101 3.98792 91.0101 3.66865C91.0101 1.64415 89.3351 0 87.2636 0C85.1921 0 83.5085 1.63652 83.5085 3.66035C83.5085 5.68485 85.1836 7.32904 87.2551 7.32904C87.9292 7.32904 88.5544 7.14164 89.1021 6.83833L100.784 15.7165C99.7912 17.1816 99.2072 18.9382 99.2072 20.8267C99.2072 22.7152 99.8487 24.6349 100.927 26.1402L97.3723 29.6132C97.0903 29.5292 96.8004 29.4737 96.49 29.4737C94.7858 29.4737 93.4048 30.8229 93.4048 32.4872C93.4048 34.1522 94.7858 35.5014 96.49 35.5014C98.1935 35.5014 99.5752 34.1522 99.5752 32.4872C99.5752 32.1881 99.5177 31.9008 99.4317 31.6252L102.946 28.1918C104.539 29.3814 106.529 30.0962 108.691 30.0962C113.929 30.0962 118.175 25.9487 118.175 20.8308C118.175 16.1995 114.689 12.3712 110.146 11.6848ZM108.687 25.5774C106.002 25.5774 103.825 23.4495 103.825 20.8267C103.825 18.2039 106.002 16.076 108.687 16.076C111.372 16.076 113.549 18.2039 113.549 20.8267C113.549 23.4495 111.372 25.5774 108.687 25.5774Z" fill="#FF4800"/>
</svg>
