<svg width="225" height="76" viewBox="0 0 225 76" fill="none" xmlns="http://www.w3.org/2000/svg">
<rect x="0.5" y="0.5" width="223.667" height="75" rx="4.5" stroke="#9747FF" stroke-dasharray="10 5"/>
<path d="M34.0812 36.1119H24.5322V25.9561H20V50.2002H24.5322V40.3754H34.0812V50.2002H38.612V25.9561H34.0812V36.1119Z" fill="#FF4800"/>
<path d="M53.118 42.3634C53.118 44.3838 51.4344 46.0245 49.3672 46.0245C47.2993 46.0245 45.6199 44.3796 45.6199 42.3634V31.9799H41.3257V42.3634C41.3257 46.6949 44.9337 50.2199 49.3672 50.2199C53.8007 50.2199 57.408 46.6949 57.408 42.3634V31.9799H53.118V42.3634Z" fill="#FF4800"/>
<path d="M84.9696 33.0539V33.0498C84.9696 30.9219 86.4124 30.2472 87.9894 30.2472C89.2603 30.2472 90.9439 31.1932 92.0429 32.3432L94.8581 29.1014C93.453 27.2455 90.6001 25.9595 88.2672 25.9595C83.5964 25.9595 80.23 28.6267 80.23 33.0539C80.23 41.2616 90.4978 38.6583 90.4978 43.2535C90.4978 44.6708 89.0927 45.92 87.4787 45.92C84.9376 45.92 84.1115 44.7027 82.9471 43.4215L79.8207 46.5946C81.8148 48.9939 84.287 50.2078 87.2371 50.2078C91.6671 50.2078 95.2382 47.5052 95.2382 43.2854C95.2382 34.1679 84.9696 37.0058 84.9696 33.0539Z" fill="#FF4800"/>
<path d="M148.488 46.3237V46.3278C145.947 46.3278 145.228 45.2541 145.228 43.6093V36.3316H149.175V32.6428H145.228V27.7762L140.868 29.689V44.5157C140.868 48.3079 143.544 50.22 147.217 50.22C147.765 50.22 148.525 50.1839 148.934 50.0847L150 46.2598C149.518 46.2917 148.971 46.3237 148.488 46.3237Z" fill="#FF4800"/>
<path d="M69.4787 32.1038C67.3497 32.1038 65.8622 32.7069 64.4286 34.0839V26.1038H60.1216V40.8945C60.1216 46.4315 64.2198 50.2203 68.8209 50.2203C73.9364 50.2203 78.4196 46.3593 78.4196 41.1617C78.4196 35.964 74.2838 32.1038 69.4787 32.1038ZM69.4503 45.9846C66.7534 45.9846 64.5671 43.8486 64.5671 41.2137C64.5671 38.5789 66.7534 36.4429 69.4503 36.4429C72.1472 36.4429 74.3335 38.5789 74.3335 41.2137C74.3335 43.8486 72.1472 45.9846 69.4503 45.9846Z" fill="#FF4800"/>
<path d="M116.228 40.9422C116.228 35.7445 111.746 31.8843 106.63 31.8843C102.029 31.8843 97.9311 35.6765 97.9311 41.2094V56H102.237V48.02C103.672 49.3976 105.159 50 107.288 50C112.098 50 116.228 46.0759 116.228 40.9422ZM107.264 45.6609C104.567 45.6609 102.38 43.5254 102.38 40.8901C102.38 38.2555 104.567 36.12 107.264 36.12C109.961 36.12 112.147 38.2555 112.147 40.8901C112.147 43.5254 109.961 45.6609 107.264 45.6609Z" fill="#FF4800"/>
<path d="M130.146 31.6848V27.4532C131.274 26.93 132.066 25.816 132.066 24.5189V24.4231C132.066 22.6345 130.571 21.1736 128.74 21.1736H128.642C126.811 21.1736 125.316 22.6345 125.316 24.4231V24.5189C125.316 25.8126 126.109 26.93 127.237 27.4532V31.6806C125.557 31.9361 124.021 32.6107 122.754 33.6087L110.876 24.5827C110.953 24.2871 111.01 23.9879 111.01 23.6686C111.01 21.6441 109.335 20 107.264 20C105.192 20 103.508 21.6365 103.508 23.6603C103.508 25.6849 105.184 27.329 107.255 27.329C107.929 27.329 108.554 27.1416 109.102 26.8383L120.784 35.7165C119.791 37.1816 119.207 38.9382 119.207 40.8267C119.207 42.7152 119.849 44.6349 120.927 46.1402L117.372 49.6132C117.09 49.5292 116.8 49.4737 116.49 49.4737C114.786 49.4737 113.405 50.8229 113.405 52.4872C113.405 54.1522 114.786 55.5014 116.49 55.5014C118.194 55.5014 119.575 54.1522 119.575 52.4872C119.575 52.1881 119.518 51.9008 119.432 51.6252L122.946 48.1918C124.539 49.3814 126.529 50.0962 128.691 50.0962C133.929 50.0962 138.175 45.9487 138.175 40.8308C138.175 36.1995 134.689 32.3712 130.146 31.6848ZM128.687 45.5774C126.002 45.5774 123.825 43.4495 123.825 40.8267C123.825 38.2039 126.002 36.076 128.687 36.076C131.372 36.076 133.549 38.2039 133.549 40.8267C133.549 43.4495 131.372 45.5774 128.687 45.5774Z" fill="#FF4800"/>
<path d="M196.637 31.6848V27.4532C197.765 26.93 198.557 25.816 198.557 24.5189V24.4231C198.557 22.6345 197.062 21.1736 195.231 21.1736H195.133C193.303 21.1736 191.807 22.6345 191.807 24.4231V24.5189C191.807 25.8126 192.6 26.93 193.728 27.4532V31.6806C192.048 31.9361 190.512 32.6107 189.246 33.6087L177.367 24.5827C177.445 24.2871 177.502 23.9879 177.502 23.6686C177.502 21.6441 175.827 20 173.755 20C171.684 20 170 21.6365 170 23.6603C170 25.6849 171.675 27.329 173.747 27.329C174.421 27.329 175.046 27.1416 175.594 26.8383L187.276 35.7165C186.283 37.1816 185.699 38.9382 185.699 40.8267C185.699 42.7152 186.34 44.6349 187.419 46.1402L183.864 49.6132C183.582 49.5292 183.292 49.4737 182.982 49.4737C181.277 49.4737 179.896 50.8229 179.896 52.4872C179.896 54.1522 181.277 55.5014 182.982 55.5014C184.685 55.5014 186.067 54.1522 186.067 52.4872C186.067 52.1881 186.009 51.9008 185.923 51.6252L189.437 48.1918C191.031 49.3814 193.021 50.0962 195.182 50.0962C200.421 50.0962 204.667 45.9487 204.667 40.8308C204.667 36.1995 201.181 32.3712 196.637 31.6848ZM195.179 45.5774C192.494 45.5774 190.316 43.4495 190.316 40.8267C190.316 38.2039 192.494 36.076 195.179 36.076C197.863 36.076 200.041 38.2039 200.041 40.8267C200.041 43.4495 197.863 45.5774 195.179 45.5774Z" fill="#FF4800"/>
</svg>
