<svg width="442" height="108" viewBox="0 0 442 108" fill="none" xmlns="http://www.w3.org/2000/svg">
<rect x="0.5" y="0.5" width="441" height="107" rx="4.5" stroke="#9747FF" stroke-dasharray="10 5"/>
<path d="M231 30C231 24.4772 235.477 20 241 20H412C417.523 20 422 24.4772 422 30V90H231V30Z" fill="#FF4800"/>
<path d="M256.616 49.8H258.12V59.56H263.448V61H256.616V49.8ZM268.718 61.16C267.876 61.16 267.118 60.9627 266.446 60.568C265.774 60.1733 265.246 59.64 264.862 58.968C264.489 58.2853 264.302 57.5387 264.302 56.728C264.302 55.9173 264.489 55.176 264.862 54.504C265.246 53.8213 265.774 53.2827 266.446 52.888C267.118 52.4827 267.876 52.28 268.718 52.28C269.561 52.28 270.318 52.4827 270.99 52.888C271.662 53.2827 272.185 53.8213 272.558 54.504C272.942 55.176 273.134 55.9173 273.134 56.728C273.134 57.5387 272.942 58.2853 272.558 58.968C272.185 59.64 271.662 60.1733 270.99 60.568C270.318 60.9627 269.561 61.16 268.718 61.16ZM268.718 59.816C269.262 59.816 269.758 59.6773 270.206 59.4C270.665 59.1227 271.022 58.7493 271.278 58.28C271.534 57.8 271.662 57.2827 271.662 56.728C271.662 56.1733 271.534 55.656 271.278 55.176C271.022 54.696 270.665 54.3173 270.206 54.04C269.758 53.7627 269.262 53.624 268.718 53.624C268.174 53.624 267.673 53.7627 267.214 54.04C266.766 54.3173 266.414 54.696 266.158 55.176C265.902 55.656 265.774 56.1733 265.774 56.728C265.774 57.2827 265.902 57.8 266.158 58.28C266.414 58.7493 266.766 59.1227 267.214 59.4C267.673 59.6773 268.174 59.816 268.718 59.816ZM274.879 52.44H276.319V53.768C276.586 53.288 276.938 52.92 277.375 52.664C277.823 52.408 278.261 52.28 278.687 52.28C278.986 52.28 279.253 52.328 279.487 52.424V53.88C279.167 53.752 278.831 53.688 278.479 53.688C277.85 53.688 277.333 53.944 276.927 54.456C276.522 54.9573 276.319 55.6027 276.319 56.392V61H274.879V52.44ZM284.958 61.16C284.094 61.16 283.305 60.9787 282.59 60.616C281.886 60.2533 281.326 59.7413 280.91 59.08C280.505 58.408 280.302 57.6293 280.302 56.744C280.302 55.8907 280.489 55.1227 280.862 54.44C281.236 53.7573 281.742 53.2293 282.382 52.856C283.022 52.472 283.726 52.28 284.494 52.28C285.241 52.28 285.897 52.456 286.462 52.808C287.038 53.1493 287.481 53.6347 287.79 54.264C288.11 54.8933 288.27 55.624 288.27 56.456C288.27 56.6907 288.254 56.9147 288.222 57.128H281.79C281.876 57.9173 282.212 58.5627 282.798 59.064C283.396 59.5653 284.116 59.816 284.958 59.816C285.438 59.816 285.897 59.752 286.334 59.624C286.782 59.496 287.246 59.3093 287.726 59.064V60.472C287.364 60.696 286.937 60.8667 286.446 60.984C285.956 61.1013 285.46 61.16 284.958 61.16ZM286.782 55.912C286.772 55.4853 286.665 55.0907 286.462 54.728C286.26 54.3653 285.982 54.0827 285.63 53.88C285.289 53.6667 284.91 53.56 284.494 53.56C283.822 53.56 283.246 53.768 282.766 54.184C282.297 54.6 281.993 55.176 281.854 55.912H286.782ZM290.036 52.44H291.476V53.576C292.084 52.712 292.926 52.28 294.004 52.28C294.622 52.28 295.15 52.4187 295.588 52.696C296.025 52.9627 296.345 53.3467 296.548 53.848C296.868 53.336 297.284 52.9467 297.796 52.68C298.308 52.4133 298.852 52.28 299.428 52.28C300.313 52.28 301.012 52.5627 301.524 53.128C302.036 53.6827 302.292 54.4453 302.292 55.416V61H300.852V55.832C300.852 55.096 300.697 54.5467 300.388 54.184C300.089 53.8213 299.657 53.64 299.092 53.64C298.718 53.64 298.361 53.7413 298.02 53.944C297.678 54.1467 297.401 54.424 297.188 54.776C296.985 55.1173 296.884 55.496 296.884 55.912V61H295.444V55.832C295.444 55.096 295.289 54.5467 294.98 54.184C294.681 53.8213 294.244 53.64 293.668 53.64C293.294 53.64 292.937 53.7413 292.596 53.944C292.254 54.136 291.982 54.408 291.78 54.76C291.577 55.112 291.476 55.496 291.476 55.912V61H290.036V52.44ZM308.691 52.44H310.131V61H308.691V52.44ZM309.411 51.24C309.123 51.24 308.878 51.1387 308.675 50.936C308.472 50.7227 308.371 50.472 308.371 50.184C308.371 49.9067 308.472 49.6667 308.675 49.464C308.878 49.2613 309.123 49.16 309.411 49.16C309.688 49.16 309.928 49.2613 310.131 49.464C310.344 49.6667 310.451 49.9067 310.451 50.184C310.451 50.472 310.344 50.7227 310.131 50.936C309.928 51.1387 309.688 51.24 309.411 51.24ZM312.473 52.44H313.913V53.704C314.19 53.256 314.59 52.9093 315.113 52.664C315.636 52.408 316.206 52.28 316.825 52.28C317.582 52.28 318.281 52.472 318.921 52.856C319.572 53.2293 320.089 53.7573 320.473 54.44C320.857 55.1227 321.049 55.8853 321.049 56.728C321.049 57.5707 320.857 58.3333 320.473 59.016C320.089 59.688 319.572 60.216 318.921 60.6C318.281 60.9733 317.582 61.16 316.825 61.16C316.206 61.16 315.636 61.0373 315.113 60.792C314.59 60.536 314.19 60.184 313.913 59.736V64.52H312.473V52.44ZM316.697 59.816C317.23 59.816 317.716 59.6773 318.153 59.4C318.601 59.1227 318.948 58.7493 319.193 58.28C319.449 57.8 319.577 57.2773 319.577 56.712C319.577 56.1467 319.449 55.6293 319.193 55.16C318.948 54.68 318.601 54.3067 318.153 54.04C317.716 53.7627 317.23 53.624 316.697 53.624C316.153 53.624 315.662 53.7627 315.225 54.04C314.798 54.3067 314.457 54.68 314.201 55.16C313.956 55.6293 313.833 56.1467 313.833 56.712C313.833 57.2773 313.956 57.8 314.201 58.28C314.457 58.7493 314.798 59.1227 315.225 59.4C315.662 59.6773 316.153 59.816 316.697 59.816ZM325.042 61.16C324.444 61.16 323.922 61.0853 323.474 60.936C323.036 60.7867 322.62 60.584 322.226 60.328V58.792C322.567 59.0587 322.983 59.304 323.474 59.528C323.975 59.7413 324.487 59.848 325.01 59.848C325.532 59.848 325.964 59.7413 326.306 59.528C326.647 59.304 326.818 59.0107 326.818 58.648C326.818 58.0613 326.423 57.6613 325.634 57.448L324.386 57.128C323.65 56.936 323.1 56.648 322.738 56.264C322.386 55.88 322.21 55.3787 322.21 54.76C322.21 54.248 322.343 53.8053 322.61 53.432C322.887 53.0587 323.255 52.776 323.714 52.584C324.172 52.3813 324.663 52.28 325.186 52.28C325.644 52.28 326.103 52.3493 326.562 52.488C327.031 52.6267 327.458 52.808 327.842 53.032V54.504C327.426 54.2053 326.994 53.976 326.546 53.816C326.098 53.656 325.66 53.576 325.234 53.576C324.754 53.576 324.364 53.6827 324.066 53.896C323.778 54.0987 323.634 54.3707 323.634 54.712C323.634 55.2667 324.05 55.656 324.882 55.88L326.066 56.184C327.527 56.5573 328.258 57.352 328.258 58.568C328.258 59.0907 328.114 59.5493 327.826 59.944C327.548 60.328 327.164 60.6267 326.674 60.84C326.194 61.0533 325.65 61.16 325.042 61.16ZM332.995 61.16C332.355 61.16 331.806 61.016 331.347 60.728C330.889 60.44 330.542 60.0453 330.307 59.544C330.073 59.0427 329.955 58.4827 329.955 57.864V52.44H331.395V57.512C331.395 59.0373 332.041 59.8 333.331 59.8C333.737 59.8 334.115 59.6987 334.467 59.496C334.819 59.2933 335.097 59.0107 335.299 58.648C335.513 58.2747 335.619 57.8533 335.619 57.384V52.44H337.059V61H335.619V59.864C335.31 60.2907 334.926 60.616 334.467 60.84C334.019 61.0533 333.529 61.16 332.995 61.16ZM339.426 52.44H340.866V53.576C341.474 52.712 342.317 52.28 343.394 52.28C344.013 52.28 344.541 52.4187 344.978 52.696C345.416 52.9627 345.736 53.3467 345.938 53.848C346.258 53.336 346.674 52.9467 347.186 52.68C347.698 52.4133 348.242 52.28 348.818 52.28C349.704 52.28 350.402 52.5627 350.914 53.128C351.426 53.6827 351.682 54.4453 351.682 55.416V61H350.242V55.832C350.242 55.096 350.088 54.5467 349.778 54.184C349.48 53.8213 349.048 53.64 348.482 53.64C348.109 53.64 347.752 53.7413 347.41 53.944C347.069 54.1467 346.792 54.424 346.578 54.776C346.376 55.1173 346.274 55.496 346.274 55.912V61H344.834V55.832C344.834 55.096 344.68 54.5467 344.37 54.184C344.072 53.8213 343.634 53.64 343.058 53.64C342.685 53.64 342.328 53.7413 341.986 53.944C341.645 54.136 341.373 54.408 341.17 54.76C340.968 55.112 340.866 55.496 340.866 55.912V61H339.426V52.44ZM361.714 61.16C360.956 61.16 360.252 60.9733 359.602 60.6C358.962 60.216 358.45 59.6827 358.066 59C357.682 58.3173 357.49 57.5547 357.49 56.712C357.49 55.8693 357.682 55.112 358.066 54.44C358.45 53.7573 358.962 53.2293 359.602 52.856C360.252 52.472 360.956 52.28 361.714 52.28C362.332 52.28 362.903 52.408 363.426 52.664C363.948 52.9093 364.348 53.256 364.626 53.704V49.32H366.066V61H364.626V59.736C364.348 60.184 363.948 60.536 363.426 60.792C362.903 61.0373 362.332 61.16 361.714 61.16ZM361.842 59.816C362.386 59.816 362.871 59.6827 363.298 59.416C363.735 59.1387 364.076 58.7653 364.322 58.296C364.578 57.816 364.706 57.2933 364.706 56.728C364.706 56.1627 364.578 55.6453 364.322 55.176C364.076 54.696 363.735 54.3173 363.298 54.04C362.871 53.7627 362.386 53.624 361.842 53.624C361.308 53.624 360.818 53.7627 360.37 54.04C359.932 54.3173 359.586 54.696 359.33 55.176C359.084 55.6453 358.962 56.1627 358.962 56.728C358.962 57.2933 359.084 57.816 359.33 58.296C359.586 58.7653 359.932 59.1387 360.37 59.416C360.818 59.6827 361.308 59.816 361.842 59.816ZM372.124 61.16C371.282 61.16 370.524 60.9627 369.852 60.568C369.18 60.1733 368.652 59.64 368.268 58.968C367.895 58.2853 367.708 57.5387 367.708 56.728C367.708 55.9173 367.895 55.176 368.268 54.504C368.652 53.8213 369.18 53.2827 369.852 52.888C370.524 52.4827 371.282 52.28 372.124 52.28C372.967 52.28 373.724 52.4827 374.396 52.888C375.068 53.2827 375.591 53.8213 375.964 54.504C376.348 55.176 376.54 55.9173 376.54 56.728C376.54 57.5387 376.348 58.2853 375.964 58.968C375.591 59.64 375.068 60.1733 374.396 60.568C373.724 60.9627 372.967 61.16 372.124 61.16ZM372.124 59.816C372.668 59.816 373.164 59.6773 373.612 59.4C374.071 59.1227 374.428 58.7493 374.684 58.28C374.94 57.8 375.068 57.2827 375.068 56.728C375.068 56.1733 374.94 55.656 374.684 55.176C374.428 54.696 374.071 54.3173 373.612 54.04C373.164 53.7627 372.668 53.624 372.124 53.624C371.58 53.624 371.079 53.7627 370.62 54.04C370.172 54.3173 369.82 54.696 369.564 55.176C369.308 55.656 369.18 56.1733 369.18 56.728C369.18 57.2827 369.308 57.8 369.564 58.28C369.82 58.7493 370.172 59.1227 370.62 59.4C371.079 59.6773 371.58 59.816 372.124 59.816ZM380.238 61.16C379.619 61.16 379.139 60.9627 378.798 60.568C378.456 60.1627 378.286 59.64 378.286 59V49.32H379.726V58.76C379.726 59.4533 380.024 59.8 380.622 59.8C380.792 59.8 380.963 59.768 381.134 59.704V61.048C380.878 61.1227 380.579 61.16 380.238 61.16ZM386.437 61.16C385.594 61.16 384.837 60.9627 384.165 60.568C383.493 60.1733 382.965 59.64 382.581 58.968C382.208 58.2853 382.021 57.5387 382.021 56.728C382.021 55.9173 382.208 55.176 382.581 54.504C382.965 53.8213 383.493 53.2827 384.165 52.888C384.837 52.4827 385.594 52.28 386.437 52.28C387.28 52.28 388.037 52.4827 388.709 52.888C389.381 53.2827 389.904 53.8213 390.277 54.504C390.661 55.176 390.853 55.9173 390.853 56.728C390.853 57.5387 390.661 58.2853 390.277 58.968C389.904 59.64 389.381 60.1733 388.709 60.568C388.037 60.9627 387.28 61.16 386.437 61.16ZM386.437 59.816C386.981 59.816 387.477 59.6773 387.925 59.4C388.384 59.1227 388.741 58.7493 388.997 58.28C389.253 57.8 389.381 57.2827 389.381 56.728C389.381 56.1733 389.253 55.656 388.997 55.176C388.741 54.696 388.384 54.3173 387.925 54.04C387.477 53.7627 386.981 53.624 386.437 53.624C385.893 53.624 385.392 53.7627 384.933 54.04C384.485 54.3173 384.133 54.696 383.877 55.176C383.621 55.656 383.493 56.1733 383.493 56.728C383.493 57.2827 383.621 57.8 383.877 58.28C384.133 58.7493 384.485 59.1227 384.933 59.4C385.392 59.6773 385.893 59.816 386.437 59.816ZM392.598 52.44H394.038V53.768C394.305 53.288 394.657 52.92 395.094 52.664C395.542 52.408 395.979 52.28 396.406 52.28C396.705 52.28 396.971 52.328 397.206 52.424V53.88C396.886 53.752 396.55 53.688 396.198 53.688C395.569 53.688 395.051 53.944 394.646 54.456C394.241 54.9573 394.038 55.6027 394.038 56.392V61H392.598V52.44Z" fill="#F8F5EE"/>
<path d="M20 30C20 24.4772 24.4772 20 30 20H201C206.523 20 211 24.4772 211 30V90H20V30Z" fill="#0C4D51"/>
<path d="M45.6156 49.8H47.1196V59.56H52.4476V61H45.6156V49.8ZM57.7182 61.16C56.8755 61.16 56.1182 60.9627 55.4462 60.568C54.7742 60.1733 54.2462 59.64 53.8622 58.968C53.4889 58.2853 53.3022 57.5387 53.3022 56.728C53.3022 55.9173 53.4889 55.176 53.8622 54.504C54.2462 53.8213 54.7742 53.2827 55.4462 52.888C56.1182 52.4827 56.8755 52.28 57.7182 52.28C58.5609 52.28 59.3182 52.4827 59.9902 52.888C60.6622 53.2827 61.1849 53.8213 61.5582 54.504C61.9422 55.176 62.1342 55.9173 62.1342 56.728C62.1342 57.5387 61.9422 58.2853 61.5582 58.968C61.1849 59.64 60.6622 60.1733 59.9902 60.568C59.3182 60.9627 58.5609 61.16 57.7182 61.16ZM57.7182 59.816C58.2622 59.816 58.7582 59.6773 59.2062 59.4C59.6649 59.1227 60.0222 58.7493 60.2782 58.28C60.5342 57.8 60.6622 57.2827 60.6622 56.728C60.6622 56.1733 60.5342 55.656 60.2782 55.176C60.0222 54.696 59.6649 54.3173 59.2062 54.04C58.7582 53.7627 58.2622 53.624 57.7182 53.624C57.1742 53.624 56.6729 53.7627 56.2142 54.04C55.7662 54.3173 55.4142 54.696 55.1582 55.176C54.9022 55.656 54.7742 56.1733 54.7742 56.728C54.7742 57.2827 54.9022 57.8 55.1582 58.28C55.4142 58.7493 55.7662 59.1227 56.2142 59.4C56.6729 59.6773 57.1742 59.816 57.7182 59.816ZM63.8793 52.44H65.3193V53.768C65.586 53.288 65.938 52.92 66.3753 52.664C66.8233 52.408 67.2606 52.28 67.6873 52.28C67.986 52.28 68.2526 52.328 68.4873 52.424V53.88C68.1673 53.752 67.8313 53.688 67.4793 53.688C66.85 53.688 66.3326 53.944 65.9273 54.456C65.522 54.9573 65.3193 55.6027 65.3193 56.392V61H63.8793V52.44ZM73.9582 61.16C73.0942 61.16 72.3049 60.9787 71.5902 60.616C70.8862 60.2533 70.3262 59.7413 69.9102 59.08C69.5049 58.408 69.3022 57.6293 69.3022 56.744C69.3022 55.8907 69.4889 55.1227 69.8622 54.44C70.2355 53.7573 70.7422 53.2293 71.3822 52.856C72.0222 52.472 72.7262 52.28 73.4942 52.28C74.2409 52.28 74.8969 52.456 75.4622 52.808C76.0382 53.1493 76.4809 53.6347 76.7902 54.264C77.1102 54.8933 77.2702 55.624 77.2702 56.456C77.2702 56.6907 77.2542 56.9147 77.2222 57.128H70.7902C70.8755 57.9173 71.2115 58.5627 71.7982 59.064C72.3955 59.5653 73.1155 59.816 73.9582 59.816C74.4382 59.816 74.8969 59.752 75.3342 59.624C75.7822 59.496 76.2462 59.3093 76.7262 59.064V60.472C76.3635 60.696 75.9369 60.8667 75.4462 60.984C74.9555 61.1013 74.4595 61.16 73.9582 61.16ZM75.7822 55.912C75.7715 55.4853 75.6649 55.0907 75.4622 54.728C75.2595 54.3653 74.9822 54.0827 74.6302 53.88C74.2889 53.6667 73.9102 53.56 73.4942 53.56C72.8222 53.56 72.2462 53.768 71.7662 54.184C71.2969 54.6 70.9929 55.176 70.8542 55.912H75.7822ZM79.0356 52.44H80.4756V53.576C81.0836 52.712 81.9262 52.28 83.0036 52.28C83.6222 52.28 84.1502 52.4187 84.5876 52.696C85.0249 52.9627 85.3449 53.3467 85.5476 53.848C85.8676 53.336 86.2836 52.9467 86.7956 52.68C87.3076 52.4133 87.8516 52.28 88.4276 52.28C89.3129 52.28 90.0116 52.5627 90.5236 53.128C91.0356 53.6827 91.2916 54.4453 91.2916 55.416V61H89.8516V55.832C89.8516 55.096 89.6969 54.5467 89.3876 54.184C89.0889 53.8213 88.6569 53.64 88.0916 53.64C87.7182 53.64 87.3609 53.7413 87.0196 53.944C86.6782 54.1467 86.4009 54.424 86.1876 54.776C85.9849 55.1173 85.8836 55.496 85.8836 55.912V61H84.4436V55.832C84.4436 55.096 84.2889 54.5467 83.9796 54.184C83.6809 53.8213 83.2436 53.64 82.6676 53.64C82.2942 53.64 81.9369 53.7413 81.5956 53.944C81.2542 54.136 80.9822 54.408 80.7796 54.76C80.5769 55.112 80.4756 55.496 80.4756 55.912V61H79.0356V52.44ZM97.6911 52.44H99.1311V61H97.6911V52.44ZM98.4111 51.24C98.1231 51.24 97.8777 51.1387 97.6751 50.936C97.4724 50.7227 97.3711 50.472 97.3711 50.184C97.3711 49.9067 97.4724 49.6667 97.6751 49.464C97.8777 49.2613 98.1231 49.16 98.4111 49.16C98.6884 49.16 98.9284 49.2613 99.1311 49.464C99.3444 49.6667 99.4511 49.9067 99.4511 50.184C99.4511 50.472 99.3444 50.7227 99.1311 50.936C98.9284 51.1387 98.6884 51.24 98.4111 51.24ZM101.473 52.44H102.913V53.704C103.19 53.256 103.59 52.9093 104.113 52.664C104.636 52.408 105.206 52.28 105.825 52.28C106.582 52.28 107.281 52.472 107.921 52.856C108.572 53.2293 109.089 53.7573 109.473 54.44C109.857 55.1227 110.049 55.8853 110.049 56.728C110.049 57.5707 109.857 58.3333 109.473 59.016C109.089 59.688 108.572 60.216 107.921 60.6C107.281 60.9733 106.582 61.16 105.825 61.16C105.206 61.16 104.636 61.0373 104.113 60.792C103.59 60.536 103.19 60.184 102.913 59.736V64.52H101.473V52.44ZM105.697 59.816C106.23 59.816 106.716 59.6773 107.153 59.4C107.601 59.1227 107.948 58.7493 108.193 58.28C108.449 57.8 108.577 57.2773 108.577 56.712C108.577 56.1467 108.449 55.6293 108.193 55.16C107.948 54.68 107.601 54.3067 107.153 54.04C106.716 53.7627 106.23 53.624 105.697 53.624C105.153 53.624 104.662 53.7627 104.225 54.04C103.798 54.3067 103.457 54.68 103.201 55.16C102.956 55.6293 102.833 56.1467 102.833 56.712C102.833 57.2773 102.956 57.8 103.201 58.28C103.457 58.7493 103.798 59.1227 104.225 59.4C104.662 59.6773 105.153 59.816 105.697 59.816ZM114.042 61.16C113.444 61.16 112.922 61.0853 112.474 60.936C112.036 60.7867 111.62 60.584 111.226 60.328V58.792C111.567 59.0587 111.983 59.304 112.474 59.528C112.975 59.7413 113.487 59.848 114.01 59.848C114.532 59.848 114.964 59.7413 115.306 59.528C115.647 59.304 115.818 59.0107 115.818 58.648C115.818 58.0613 115.423 57.6613 114.634 57.448L113.386 57.128C112.65 56.936 112.1 56.648 111.738 56.264C111.386 55.88 111.21 55.3787 111.21 54.76C111.21 54.248 111.343 53.8053 111.61 53.432C111.887 53.0587 112.255 52.776 112.714 52.584C113.172 52.3813 113.663 52.28 114.186 52.28C114.644 52.28 115.103 52.3493 115.562 52.488C116.031 52.6267 116.458 52.808 116.842 53.032V54.504C116.426 54.2053 115.994 53.976 115.546 53.816C115.098 53.656 114.66 53.576 114.234 53.576C113.754 53.576 113.364 53.6827 113.066 53.896C112.778 54.0987 112.634 54.3707 112.634 54.712C112.634 55.2667 113.05 55.656 113.882 55.88L115.066 56.184C116.527 56.5573 117.258 57.352 117.258 58.568C117.258 59.0907 117.114 59.5493 116.826 59.944C116.548 60.328 116.164 60.6267 115.674 60.84C115.194 61.0533 114.65 61.16 114.042 61.16ZM121.995 61.16C121.355 61.16 120.806 61.016 120.347 60.728C119.889 60.44 119.542 60.0453 119.307 59.544C119.073 59.0427 118.955 58.4827 118.955 57.864V52.44H120.395V57.512C120.395 59.0373 121.041 59.8 122.331 59.8C122.737 59.8 123.115 59.6987 123.467 59.496C123.819 59.2933 124.097 59.0107 124.299 58.648C124.513 58.2747 124.619 57.8533 124.619 57.384V52.44H126.059V61H124.619V59.864C124.31 60.2907 123.926 60.616 123.467 60.84C123.019 61.0533 122.529 61.16 121.995 61.16ZM128.426 52.44H129.866V53.576C130.474 52.712 131.317 52.28 132.394 52.28C133.013 52.28 133.541 52.4187 133.978 52.696C134.416 52.9627 134.736 53.3467 134.938 53.848C135.258 53.336 135.674 52.9467 136.186 52.68C136.698 52.4133 137.242 52.28 137.818 52.28C138.704 52.28 139.402 52.5627 139.914 53.128C140.426 53.6827 140.682 54.4453 140.682 55.416V61H139.242V55.832C139.242 55.096 139.088 54.5467 138.778 54.184C138.48 53.8213 138.048 53.64 137.482 53.64C137.109 53.64 136.752 53.7413 136.41 53.944C136.069 54.1467 135.792 54.424 135.578 54.776C135.376 55.1173 135.274 55.496 135.274 55.912V61H133.834V55.832C133.834 55.096 133.68 54.5467 133.37 54.184C133.072 53.8213 132.634 53.64 132.058 53.64C131.685 53.64 131.328 53.7413 130.986 53.944C130.645 54.136 130.373 54.408 130.17 54.76C129.968 55.112 129.866 55.496 129.866 55.912V61H128.426V52.44ZM150.714 61.16C149.956 61.16 149.252 60.9733 148.602 60.6C147.962 60.216 147.45 59.6827 147.066 59C146.682 58.3173 146.49 57.5547 146.49 56.712C146.49 55.8693 146.682 55.112 147.066 54.44C147.45 53.7573 147.962 53.2293 148.602 52.856C149.252 52.472 149.956 52.28 150.714 52.28C151.332 52.28 151.903 52.408 152.426 52.664C152.948 52.9093 153.348 53.256 153.626 53.704V49.32H155.066V61H153.626V59.736C153.348 60.184 152.948 60.536 152.426 60.792C151.903 61.0373 151.332 61.16 150.714 61.16ZM150.842 59.816C151.386 59.816 151.871 59.6827 152.298 59.416C152.735 59.1387 153.076 58.7653 153.322 58.296C153.578 57.816 153.706 57.2933 153.706 56.728C153.706 56.1627 153.578 55.6453 153.322 55.176C153.076 54.696 152.735 54.3173 152.298 54.04C151.871 53.7627 151.386 53.624 150.842 53.624C150.308 53.624 149.818 53.7627 149.37 54.04C148.932 54.3173 148.586 54.696 148.33 55.176C148.084 55.6453 147.962 56.1627 147.962 56.728C147.962 57.2933 148.084 57.816 148.33 58.296C148.586 58.7653 148.932 59.1387 149.37 59.416C149.818 59.6827 150.308 59.816 150.842 59.816ZM161.124 61.16C160.282 61.16 159.524 60.9627 158.852 60.568C158.18 60.1733 157.652 59.64 157.268 58.968C156.895 58.2853 156.708 57.5387 156.708 56.728C156.708 55.9173 156.895 55.176 157.268 54.504C157.652 53.8213 158.18 53.2827 158.852 52.888C159.524 52.4827 160.282 52.28 161.124 52.28C161.967 52.28 162.724 52.4827 163.396 52.888C164.068 53.2827 164.591 53.8213 164.964 54.504C165.348 55.176 165.54 55.9173 165.54 56.728C165.54 57.5387 165.348 58.2853 164.964 58.968C164.591 59.64 164.068 60.1733 163.396 60.568C162.724 60.9627 161.967 61.16 161.124 61.16ZM161.124 59.816C161.668 59.816 162.164 59.6773 162.612 59.4C163.071 59.1227 163.428 58.7493 163.684 58.28C163.94 57.8 164.068 57.2827 164.068 56.728C164.068 56.1733 163.94 55.656 163.684 55.176C163.428 54.696 163.071 54.3173 162.612 54.04C162.164 53.7627 161.668 53.624 161.124 53.624C160.58 53.624 160.079 53.7627 159.62 54.04C159.172 54.3173 158.82 54.696 158.564 55.176C158.308 55.656 158.18 56.1733 158.18 56.728C158.18 57.2827 158.308 57.8 158.564 58.28C158.82 58.7493 159.172 59.1227 159.62 59.4C160.079 59.6773 160.58 59.816 161.124 59.816ZM169.238 61.16C168.619 61.16 168.139 60.9627 167.798 60.568C167.456 60.1627 167.286 59.64 167.286 59V49.32H168.726V58.76C168.726 59.4533 169.024 59.8 169.622 59.8C169.792 59.8 169.963 59.768 170.134 59.704V61.048C169.878 61.1227 169.579 61.16 169.238 61.16ZM175.437 61.16C174.594 61.16 173.837 60.9627 173.165 60.568C172.493 60.1733 171.965 59.64 171.581 58.968C171.208 58.2853 171.021 57.5387 171.021 56.728C171.021 55.9173 171.208 55.176 171.581 54.504C171.965 53.8213 172.493 53.2827 173.165 52.888C173.837 52.4827 174.594 52.28 175.437 52.28C176.28 52.28 177.037 52.4827 177.709 52.888C178.381 53.2827 178.904 53.8213 179.277 54.504C179.661 55.176 179.853 55.9173 179.853 56.728C179.853 57.5387 179.661 58.2853 179.277 58.968C178.904 59.64 178.381 60.1733 177.709 60.568C177.037 60.9627 176.28 61.16 175.437 61.16ZM175.437 59.816C175.981 59.816 176.477 59.6773 176.925 59.4C177.384 59.1227 177.741 58.7493 177.997 58.28C178.253 57.8 178.381 57.2827 178.381 56.728C178.381 56.1733 178.253 55.656 177.997 55.176C177.741 54.696 177.384 54.3173 176.925 54.04C176.477 53.7627 175.981 53.624 175.437 53.624C174.893 53.624 174.392 53.7627 173.933 54.04C173.485 54.3173 173.133 54.696 172.877 55.176C172.621 55.656 172.493 56.1733 172.493 56.728C172.493 57.2827 172.621 57.8 172.877 58.28C173.133 58.7493 173.485 59.1227 173.933 59.4C174.392 59.6773 174.893 59.816 175.437 59.816ZM181.598 52.44H183.038V53.768C183.305 53.288 183.657 52.92 184.094 52.664C184.542 52.408 184.979 52.28 185.406 52.28C185.705 52.28 185.971 52.328 186.206 52.424V53.88C185.886 53.752 185.55 53.688 185.198 53.688C184.569 53.688 184.051 53.944 183.646 54.456C183.241 54.9573 183.038 55.6027 183.038 56.392V61H181.598V52.44Z" fill="#B9CDBE"/>
</svg>
