<svg xmlns="http://www.w3.org/2000/svg" viewBox="0 0 1468.62 1364.92" fill="none">
  <path d="M935.465 1322.48C895.642 1357.32 842.604 1371.8 791.187 1361.85C739.652 1351.88 688.12 1341.9 636.568 1332.03C554.657 1316.34 472.661 1301.11 390.815 1285.07C340.492 1275.21 306.651 1245.88 284.625 1197.18C249.549 1119.63 209.883 1044.28 172.972 967.59C122.929 863.613 73.5938 759.278 24.0115 655.068C19.3198 645.207 12.6045 628.659 9.17408 618.265C-10.9277 557.357 1.12818 528.73 54.0436 481.058C175.447 371.684 501.461 74.1846 543.243 35.0624C577.967 2.54977 617.259 -7.99899 661.644 6.13638C736.45 29.9594 1009.42 122.71 1071.6 143.606C1105.97 155.155 1132.2 174.605 1150.37 208.5C1214.93 328.923 1415.55 692.068 1447.95 755.069C1479.95 817.29 1476.53 842.769 1425.46 889.375C1341.69 965.819 1014.74 1253.07 936.331 1321.72L935.465 1322.48Z" fill="var(--fill-0, #B9CDBE)" fill-opacity="0.05"/>
</svg>
