<svg width="420" height="76" viewBox="0 0 420 76" fill="none" xmlns="http://www.w3.org/2000/svg">
<rect x="0.5" y="0.5" width="419" height="75" rx="4.5" stroke="#9747FF" stroke-dasharray="10 5"/>
<rect x="220" y="20" width="180" height="36" rx="18" fill="#8D2600"/>
<g clip-path="url(#clip0_2192_4985)">
<path d="M266.214 37.231H255.103C254.752 35.9075 253.532 34.923 252.072 34.923C250.611 34.923 249.391 35.9075 249.04 37.231H245.786C245.352 37.231 245 37.5754 245 38.0003C245 38.4253 245.352 38.7697 245.786 38.7697H249.04C249.391 40.0928 250.611 41.077 252.072 41.077C253.532 41.077 254.752 40.0928 255.103 38.7697H266.214C266.648 38.7697 267 38.4253 267 38.0003C267 37.5754 266.648 37.231 266.214 37.231ZM252.072 39.539C251.205 39.539 250.5 38.8485 250.5 38.0003C250.5 37.1518 251.205 36.4617 252.072 36.4617C252.937 36.4617 253.642 37.1506 253.643 37.9982L253.642 38.0003L253.643 38.0025C253.642 38.8497 252.937 39.539 252.072 39.539Z" fill="#F8F5EE"/>
<path d="M245.786 31.8467H256.897C257.249 33.17 258.468 34.1543 259.928 34.1543C261.388 34.1543 262.608 33.17 262.959 31.8467H266.214C266.648 31.8467 267 31.5023 267 31.0773C267 30.6524 266.648 30.308 266.214 30.308H262.959C262.608 28.9845 261.388 28 259.928 28C258.468 28 257.249 28.9845 256.897 30.308H245.786C245.352 30.308 245 30.6524 245 31.0773C245 31.5023 245.352 31.8467 245.786 31.8467ZM259.928 29.5387C260.795 29.5387 261.5 30.2288 261.5 31.0773C261.5 31.9255 260.795 32.6157 259.928 32.6157C259.062 32.6157 258.358 31.9267 258.357 31.0795L258.357 31.0773L258.357 31.0752C258.358 30.2276 259.062 29.5387 259.928 29.5387Z" fill="#F8F5EE"/>
<path d="M266.214 44.1543H262.96C262.608 42.8305 261.388 41.846 259.928 41.846C258.468 41.846 257.248 42.8305 256.897 44.1543H245.786C245.352 44.1543 245 44.4987 245 44.9233C245 45.3479 245.352 45.6923 245.786 45.6923H256.897C257.248 47.0156 258.468 48 259.928 48C261.388 48 262.608 47.0156 262.96 45.6923H266.214C266.648 45.6923 267 45.3479 267 44.9233C267 44.4987 266.648 44.1543 266.214 44.1543ZM259.928 46.462C259.062 46.462 258.358 45.7731 258.357 44.9255L258.357 44.9233L258.357 44.9212C258.358 44.0736 259.062 43.384 259.928 43.384C260.795 43.384 261.5 44.0748 261.5 44.9233C261.5 45.7719 260.795 46.462 259.928 46.462Z" fill="#F8F5EE"/>
</g>
<path d="M279.412 32.8H280.916V42.56H286.244V44H279.412V32.8ZM291.515 44.16C290.672 44.16 289.915 43.9627 289.243 43.568C288.571 43.1733 288.043 42.64 287.659 41.968C287.286 41.2853 287.099 40.5387 287.099 39.728C287.099 38.9173 287.286 38.176 287.659 37.504C288.043 36.8213 288.571 36.2827 289.243 35.888C289.915 35.4827 290.672 35.28 291.515 35.28C292.358 35.28 293.115 35.4827 293.787 35.888C294.459 36.2827 294.982 36.8213 295.355 37.504C295.739 38.176 295.931 38.9173 295.931 39.728C295.931 40.5387 295.739 41.2853 295.355 41.968C294.982 42.64 294.459 43.1733 293.787 43.568C293.115 43.9627 292.358 44.16 291.515 44.16ZM291.515 42.816C292.059 42.816 292.555 42.6773 293.003 42.4C293.462 42.1227 293.819 41.7493 294.075 41.28C294.331 40.8 294.459 40.2827 294.459 39.728C294.459 39.1733 294.331 38.656 294.075 38.176C293.819 37.696 293.462 37.3173 293.003 37.04C292.555 36.7627 292.059 36.624 291.515 36.624C290.971 36.624 290.47 36.7627 290.011 37.04C289.563 37.3173 289.211 37.696 288.955 38.176C288.699 38.656 288.571 39.1733 288.571 39.728C288.571 40.2827 288.699 40.8 288.955 41.28C289.211 41.7493 289.563 42.1227 290.011 42.4C290.47 42.6773 290.971 42.816 291.515 42.816ZM297.676 35.44H299.116V36.768C299.383 36.288 299.735 35.92 300.172 35.664C300.62 35.408 301.058 35.28 301.484 35.28C301.783 35.28 302.05 35.328 302.284 35.424V36.88C301.964 36.752 301.628 36.688 301.276 36.688C300.647 36.688 300.13 36.944 299.724 37.456C299.319 37.9573 299.116 38.6027 299.116 39.392V44H297.676V35.44ZM307.755 44.16C306.891 44.16 306.102 43.9787 305.387 43.616C304.683 43.2533 304.123 42.7413 303.707 42.08C303.302 41.408 303.099 40.6293 303.099 39.744C303.099 38.8907 303.286 38.1227 303.659 37.44C304.032 36.7573 304.539 36.2293 305.179 35.856C305.819 35.472 306.523 35.28 307.291 35.28C308.038 35.28 308.694 35.456 309.259 35.808C309.835 36.1493 310.278 36.6347 310.587 37.264C310.907 37.8933 311.067 38.624 311.067 39.456C311.067 39.6907 311.051 39.9147 311.019 40.128H304.587C304.672 40.9173 305.008 41.5627 305.595 42.064C306.192 42.5653 306.912 42.816 307.755 42.816C308.235 42.816 308.694 42.752 309.131 42.624C309.579 42.496 310.043 42.3093 310.523 42.064V43.472C310.16 43.696 309.734 43.8667 309.243 43.984C308.752 44.1013 308.256 44.16 307.755 44.16ZM309.579 38.912C309.568 38.4853 309.462 38.0907 309.259 37.728C309.056 37.3653 308.779 37.0827 308.427 36.88C308.086 36.6667 307.707 36.56 307.291 36.56C306.619 36.56 306.043 36.768 305.563 37.184C305.094 37.6 304.79 38.176 304.651 38.912H309.579ZM312.832 35.44H314.272V36.576C314.88 35.712 315.723 35.28 316.8 35.28C317.419 35.28 317.947 35.4187 318.384 35.696C318.822 35.9627 319.142 36.3467 319.344 36.848C319.664 36.336 320.08 35.9467 320.592 35.68C321.104 35.4133 321.648 35.28 322.224 35.28C323.11 35.28 323.808 35.5627 324.32 36.128C324.832 36.6827 325.088 37.4453 325.088 38.416V44H323.648V38.832C323.648 38.096 323.494 37.5467 323.184 37.184C322.886 36.8213 322.454 36.64 321.888 36.64C321.515 36.64 321.158 36.7413 320.816 36.944C320.475 37.1467 320.198 37.424 319.984 37.776C319.782 38.1173 319.68 38.496 319.68 38.912V44H318.24V38.832C318.24 38.096 318.086 37.5467 317.776 37.184C317.478 36.8213 317.04 36.64 316.464 36.64C316.091 36.64 315.734 36.7413 315.392 36.944C315.051 37.136 314.779 37.408 314.576 37.76C314.374 38.112 314.272 38.496 314.272 38.912V44H312.832V35.44ZM331.6 32.8H333.104V44H331.6V32.8ZM335.551 35.44H336.991V36.704C337.269 36.256 337.669 35.9093 338.191 35.664C338.714 35.408 339.285 35.28 339.903 35.28C340.661 35.28 341.359 35.472 341.999 35.856C342.65 36.2293 343.167 36.7573 343.551 37.44C343.935 38.1227 344.127 38.8853 344.127 39.728C344.127 40.5707 343.935 41.3333 343.551 42.016C343.167 42.688 342.65 43.216 341.999 43.6C341.359 43.9733 340.661 44.16 339.903 44.16C339.285 44.16 338.714 44.0373 338.191 43.792C337.669 43.536 337.269 43.184 336.991 42.736V47.52H335.551V35.44ZM339.775 42.816C340.309 42.816 340.794 42.6773 341.231 42.4C341.679 42.1227 342.026 41.7493 342.271 41.28C342.527 40.8 342.655 40.2773 342.655 39.712C342.655 39.1467 342.527 38.6293 342.271 38.16C342.026 37.68 341.679 37.3067 341.231 37.04C340.794 36.7627 340.309 36.624 339.775 36.624C339.231 36.624 338.741 36.7627 338.303 37.04C337.877 37.3067 337.535 37.68 337.279 38.16C337.034 38.6293 336.911 39.1467 336.911 39.712C336.911 40.2773 337.034 40.8 337.279 41.28C337.535 41.7493 337.877 42.1227 338.303 42.4C338.741 42.6773 339.231 42.816 339.775 42.816ZM348.12 44.16C347.522 44.16 347 44.0853 346.552 43.936C346.114 43.7867 345.698 43.584 345.304 43.328V41.792C345.645 42.0587 346.061 42.304 346.552 42.528C347.053 42.7413 347.565 42.848 348.088 42.848C348.61 42.848 349.042 42.7413 349.384 42.528C349.725 42.304 349.896 42.0107 349.896 41.648C349.896 41.0613 349.501 40.6613 348.712 40.448L347.464 40.128C346.728 39.936 346.178 39.648 345.816 39.264C345.464 38.88 345.288 38.3787 345.288 37.76C345.288 37.248 345.421 36.8053 345.688 36.432C345.965 36.0587 346.333 35.776 346.792 35.584C347.25 35.3813 347.741 35.28 348.264 35.28C348.722 35.28 349.181 35.3493 349.64 35.488C350.109 35.6267 350.536 35.808 350.92 36.032V37.504C350.504 37.2053 350.072 36.976 349.624 36.816C349.176 36.656 348.738 36.576 348.312 36.576C347.832 36.576 347.442 36.6827 347.144 36.896C346.856 37.0987 346.712 37.3707 346.712 37.712C346.712 38.2667 347.128 38.656 347.96 38.88L349.144 39.184C350.605 39.5573 351.336 40.352 351.336 41.568C351.336 42.0907 351.192 42.5493 350.904 42.944C350.626 43.328 350.242 43.6267 349.752 43.84C349.272 44.0533 348.728 44.16 348.12 44.16ZM356.073 44.16C355.433 44.16 354.884 44.016 354.425 43.728C353.967 43.44 353.62 43.0453 353.385 42.544C353.151 42.0427 353.033 41.4827 353.033 40.864V35.44H354.473V40.512C354.473 42.0373 355.119 42.8 356.409 42.8C356.815 42.8 357.193 42.6987 357.545 42.496C357.897 42.2933 358.175 42.0107 358.377 41.648C358.591 41.2747 358.697 40.8533 358.697 40.384V35.44H360.137V44H358.697V42.864C358.388 43.2907 358.004 43.616 357.545 43.84C357.097 44.0533 356.607 44.16 356.073 44.16ZM362.504 35.44H363.944V36.576C364.552 35.712 365.395 35.28 366.472 35.28C367.091 35.28 367.619 35.4187 368.056 35.696C368.494 35.9627 368.814 36.3467 369.016 36.848C369.336 36.336 369.752 35.9467 370.264 35.68C370.776 35.4133 371.32 35.28 371.896 35.28C372.782 35.28 373.48 35.5627 373.992 36.128C374.504 36.6827 374.76 37.4453 374.76 38.416V44H373.32V38.832C373.32 38.096 373.166 37.5467 372.856 37.184C372.558 36.8213 372.126 36.64 371.56 36.64C371.187 36.64 370.83 36.7413 370.488 36.944C370.147 37.1467 369.87 37.424 369.656 37.776C369.454 38.1173 369.352 38.496 369.352 38.912V44H367.912V38.832C367.912 38.096 367.758 37.5467 367.448 37.184C367.15 36.8213 366.712 36.64 366.136 36.64C365.763 36.64 365.406 36.7413 365.064 36.944C364.723 37.136 364.451 37.408 364.248 37.76C364.046 38.112 363.944 38.496 363.944 38.912V44H362.504V35.44Z" fill="#F8F5EE"/>
<rect x="20" y="20" width="180" height="36" rx="18" fill="#FF4800"/>
<g clip-path="url(#clip1_2192_4985)">
<path d="M66.2145 37.231H55.1032C54.7518 35.9075 53.532 34.923 52.0717 34.923C50.6115 34.923 49.3914 35.9075 49.0399 37.231H45.7859C45.3518 37.231 45 37.5754 45 38.0003C45 38.4253 45.3518 38.7697 45.7859 38.7697H49.04C49.3915 40.0928 50.6115 41.077 52.0717 41.077C53.5319 41.077 54.7517 40.0928 55.1032 38.7697H66.2145C66.6482 38.7697 67 38.4253 67 38.0003C67 37.5754 66.6482 37.231 66.2145 37.231ZM52.0717 39.539C51.205 39.539 50.5 38.8485 50.5 38.0003C50.5 37.1518 51.205 36.4617 52.0717 36.4617C52.9374 36.4617 53.6416 37.1506 53.6429 37.9982L53.6424 38.0003L53.6429 38.0025C53.6416 38.8497 52.9374 39.539 52.0717 39.539Z" fill="#F8F5EE"/>
<path d="M45.7859 31.8467H56.8971C57.2486 33.17 58.4683 34.1543 59.9283 34.1543C61.3883 34.1543 62.608 33.17 62.9594 31.8467H66.2145C66.6482 31.8467 67 31.5023 67 31.0773C67 30.6524 66.6482 30.308 66.2145 30.308H62.9595C62.608 28.9845 61.3883 28 59.9283 28C58.4683 28 57.2485 28.9845 56.8971 30.308H45.7859C45.3518 30.308 45 30.6524 45 31.0773C45 31.5023 45.3518 31.8467 45.7859 31.8467ZM59.9283 29.5387C60.795 29.5387 61.5 30.2288 61.5 31.0773C61.5 31.9255 60.795 32.6157 59.9283 32.6157C59.0623 32.6157 58.358 31.9267 58.3568 31.0795L58.3572 31.0773L58.3568 31.0752C58.358 30.2276 59.0623 29.5387 59.9283 29.5387Z" fill="#F8F5EE"/>
<path d="M66.2145 44.1543H62.9596C62.6083 42.8305 61.3884 41.846 59.9283 41.846C58.4681 41.846 57.2482 42.8305 56.897 44.1543H45.7859C45.3518 44.1543 45 44.4987 45 44.9233C45 45.3479 45.3518 45.6923 45.7859 45.6923H56.8971C57.2484 47.0156 58.4682 48 59.9283 48C61.3883 48 62.6082 47.0156 62.9595 45.6923H66.2145C66.6482 45.6923 67 45.3479 67 44.9233C67 44.4987 66.6482 44.1543 66.2145 44.1543ZM59.9283 46.462C59.0623 46.462 58.358 45.7731 58.3568 44.9255L58.3572 44.9233L58.3568 44.9212C58.358 44.0736 59.0623 43.384 59.9283 43.384C60.795 43.384 61.5 44.0748 61.5 44.9233C61.5 45.7719 60.795 46.462 59.9283 46.462Z" fill="#F8F5EE"/>
</g>
<path d="M79.4124 32.8H80.9164V42.56H86.2444V44H79.4124V32.8ZM91.5151 44.16C90.6724 44.16 89.9151 43.9627 89.2431 43.568C88.5711 43.1733 88.0431 42.64 87.6591 41.968C87.2857 41.2853 87.0991 40.5387 87.0991 39.728C87.0991 38.9173 87.2857 38.176 87.6591 37.504C88.0431 36.8213 88.5711 36.2827 89.2431 35.888C89.9151 35.4827 90.6724 35.28 91.5151 35.28C92.3577 35.28 93.1151 35.4827 93.7871 35.888C94.4591 36.2827 94.9817 36.8213 95.3551 37.504C95.7391 38.176 95.9311 38.9173 95.9311 39.728C95.9311 40.5387 95.7391 41.2853 95.3551 41.968C94.9817 42.64 94.4591 43.1733 93.7871 43.568C93.1151 43.9627 92.3577 44.16 91.5151 44.16ZM91.5151 42.816C92.0591 42.816 92.5551 42.6773 93.0031 42.4C93.4617 42.1227 93.8191 41.7493 94.0751 41.28C94.3311 40.8 94.4591 40.2827 94.4591 39.728C94.4591 39.1733 94.3311 38.656 94.0751 38.176C93.8191 37.696 93.4617 37.3173 93.0031 37.04C92.5551 36.7627 92.0591 36.624 91.5151 36.624C90.9711 36.624 90.4697 36.7627 90.0111 37.04C89.5631 37.3173 89.2111 37.696 88.9551 38.176C88.6991 38.656 88.5711 39.1733 88.5711 39.728C88.5711 40.2827 88.6991 40.8 88.9551 41.28C89.2111 41.7493 89.5631 42.1227 90.0111 42.4C90.4697 42.6773 90.9711 42.816 91.5151 42.816ZM97.6762 35.44H99.1162V36.768C99.3829 36.288 99.7349 35.92 100.172 35.664C100.62 35.408 101.058 35.28 101.484 35.28C101.783 35.28 102.05 35.328 102.284 35.424V36.88C101.964 36.752 101.628 36.688 101.276 36.688C100.647 36.688 100.13 36.944 99.7242 37.456C99.3189 37.9573 99.1162 38.6027 99.1162 39.392V44H97.6762V35.44ZM107.755 44.16C106.891 44.16 106.102 43.9787 105.387 43.616C104.683 43.2533 104.123 42.7413 103.707 42.08C103.302 41.408 103.099 40.6293 103.099 39.744C103.099 38.8907 103.286 38.1227 103.659 37.44C104.032 36.7573 104.539 36.2293 105.179 35.856C105.819 35.472 106.523 35.28 107.291 35.28C108.038 35.28 108.694 35.456 109.259 35.808C109.835 36.1493 110.278 36.6347 110.587 37.264C110.907 37.8933 111.067 38.624 111.067 39.456C111.067 39.6907 111.051 39.9147 111.019 40.128H104.587C104.672 40.9173 105.008 41.5627 105.595 42.064C106.192 42.5653 106.912 42.816 107.755 42.816C108.235 42.816 108.694 42.752 109.131 42.624C109.579 42.496 110.043 42.3093 110.523 42.064V43.472C110.16 43.696 109.734 43.8667 109.243 43.984C108.752 44.1013 108.256 44.16 107.755 44.16ZM109.579 38.912C109.568 38.4853 109.462 38.0907 109.259 37.728C109.056 37.3653 108.779 37.0827 108.427 36.88C108.086 36.6667 107.707 36.56 107.291 36.56C106.619 36.56 106.043 36.768 105.563 37.184C105.094 37.6 104.79 38.176 104.651 38.912H109.579ZM112.832 35.44H114.272V36.576C114.88 35.712 115.723 35.28 116.8 35.28C117.419 35.28 117.947 35.4187 118.384 35.696C118.822 35.9627 119.142 36.3467 119.344 36.848C119.664 36.336 120.08 35.9467 120.592 35.68C121.104 35.4133 121.648 35.28 122.224 35.28C123.11 35.28 123.808 35.5627 124.32 36.128C124.832 36.6827 125.088 37.4453 125.088 38.416V44H123.648V38.832C123.648 38.096 123.494 37.5467 123.184 37.184C122.886 36.8213 122.454 36.64 121.888 36.64C121.515 36.64 121.158 36.7413 120.816 36.944C120.475 37.1467 120.198 37.424 119.984 37.776C119.782 38.1173 119.68 38.496 119.68 38.912V44H118.24V38.832C118.24 38.096 118.086 37.5467 117.776 37.184C117.478 36.8213 117.04 36.64 116.464 36.64C116.091 36.64 115.734 36.7413 115.392 36.944C115.051 37.136 114.779 37.408 114.576 37.76C114.374 38.112 114.272 38.496 114.272 38.912V44H112.832V35.44ZM131.6 32.8H133.104V44H131.6V32.8ZM135.551 35.44H136.991V36.704C137.269 36.256 137.669 35.9093 138.191 35.664C138.714 35.408 139.285 35.28 139.903 35.28C140.661 35.28 141.359 35.472 141.999 35.856C142.65 36.2293 143.167 36.7573 143.551 37.44C143.935 38.1227 144.127 38.8853 144.127 39.728C144.127 40.5707 143.935 41.3333 143.551 42.016C143.167 42.688 142.65 43.216 141.999 43.6C141.359 43.9733 140.661 44.16 139.903 44.16C139.285 44.16 138.714 44.0373 138.191 43.792C137.669 43.536 137.269 43.184 136.991 42.736V47.52H135.551V35.44ZM139.775 42.816C140.309 42.816 140.794 42.6773 141.231 42.4C141.679 42.1227 142.026 41.7493 142.271 41.28C142.527 40.8 142.655 40.2773 142.655 39.712C142.655 39.1467 142.527 38.6293 142.271 38.16C142.026 37.68 141.679 37.3067 141.231 37.04C140.794 36.7627 140.309 36.624 139.775 36.624C139.231 36.624 138.741 36.7627 138.303 37.04C137.877 37.3067 137.535 37.68 137.279 38.16C137.034 38.6293 136.911 39.1467 136.911 39.712C136.911 40.2773 137.034 40.8 137.279 41.28C137.535 41.7493 137.877 42.1227 138.303 42.4C138.741 42.6773 139.231 42.816 139.775 42.816ZM148.12 44.16C147.522 44.16 147 44.0853 146.552 43.936C146.114 43.7867 145.698 43.584 145.304 43.328V41.792C145.645 42.0587 146.061 42.304 146.552 42.528C147.053 42.7413 147.565 42.848 148.088 42.848C148.61 42.848 149.042 42.7413 149.384 42.528C149.725 42.304 149.896 42.0107 149.896 41.648C149.896 41.0613 149.501 40.6613 148.712 40.448L147.464 40.128C146.728 39.936 146.178 39.648 145.816 39.264C145.464 38.88 145.288 38.3787 145.288 37.76C145.288 37.248 145.421 36.8053 145.688 36.432C145.965 36.0587 146.333 35.776 146.792 35.584C147.25 35.3813 147.741 35.28 148.264 35.28C148.722 35.28 149.181 35.3493 149.64 35.488C150.109 35.6267 150.536 35.808 150.92 36.032V37.504C150.504 37.2053 150.072 36.976 149.624 36.816C149.176 36.656 148.738 36.576 148.312 36.576C147.832 36.576 147.442 36.6827 147.144 36.896C146.856 37.0987 146.712 37.3707 146.712 37.712C146.712 38.2667 147.128 38.656 147.96 38.88L149.144 39.184C150.605 39.5573 151.336 40.352 151.336 41.568C151.336 42.0907 151.192 42.5493 150.904 42.944C150.626 43.328 150.242 43.6267 149.752 43.84C149.272 44.0533 148.728 44.16 148.12 44.16ZM156.073 44.16C155.433 44.16 154.884 44.016 154.425 43.728C153.967 43.44 153.62 43.0453 153.385 42.544C153.151 42.0427 153.033 41.4827 153.033 40.864V35.44H154.473V40.512C154.473 42.0373 155.119 42.8 156.409 42.8C156.815 42.8 157.193 42.6987 157.545 42.496C157.897 42.2933 158.175 42.0107 158.377 41.648C158.591 41.2747 158.697 40.8533 158.697 40.384V35.44H160.137V44H158.697V42.864C158.388 43.2907 158.004 43.616 157.545 43.84C157.097 44.0533 156.607 44.16 156.073 44.16ZM162.504 35.44H163.944V36.576C164.552 35.712 165.395 35.28 166.472 35.28C167.091 35.28 167.619 35.4187 168.056 35.696C168.494 35.9627 168.814 36.3467 169.016 36.848C169.336 36.336 169.752 35.9467 170.264 35.68C170.776 35.4133 171.32 35.28 171.896 35.28C172.782 35.28 173.48 35.5627 173.992 36.128C174.504 36.6827 174.76 37.4453 174.76 38.416V44H173.32V38.832C173.32 38.096 173.166 37.5467 172.856 37.184C172.558 36.8213 172.126 36.64 171.56 36.64C171.187 36.64 170.83 36.7413 170.488 36.944C170.147 37.1467 169.87 37.424 169.656 37.776C169.454 38.1173 169.352 38.496 169.352 38.912V44H167.912V38.832C167.912 38.096 167.758 37.5467 167.448 37.184C167.15 36.8213 166.712 36.64 166.136 36.64C165.763 36.64 165.406 36.7413 165.064 36.944C164.723 37.136 164.451 37.408 164.248 37.76C164.046 38.112 163.944 38.496 163.944 38.912V44H162.504V35.44Z" fill="#F8F5EE"/>
<defs>
<clipPath id="clip0_2192_4985">
<rect width="22" height="20" fill="white" transform="translate(245 28)"/>
</clipPath>
<clipPath id="clip1_2192_4985">
<rect width="22" height="20" fill="white" transform="translate(45 28)"/>
</clipPath>
</defs>
</svg>
